<mxfile host="Electron" modified="2024-02-02T16:57:41.252Z" agent="Mozilla/5.0 (Windows NT 10.0; Win64; x64) AppleWebKit/537.36 (KHTML, like Gecko) draw.io/22.1.2 Chrome/114.0.5735.289 Electron/25.9.4 Safari/537.36" etag="JBDijjiGKBkws8egZg_l" version="22.1.2" type="device" pages="2">
  <diagram id="53cCRegSWCXkiN6Ra-gP" name="NiChart Website + AWS">
    <mxGraphModel dx="7171" dy="2269" grid="1" gridSize="10" guides="1" tooltips="1" connect="1" arrows="1" fold="1" page="1" pageScale="1" pageWidth="850" pageHeight="1100" math="0" shadow="0">
      <root>
        <mxCell id="0" />
        <mxCell id="1" parent="0" />
        <mxCell id="eToo1uj2b1ARvQIdUc5P-3" value="" style="verticalLabelPosition=bottom;verticalAlign=top;html=1;shape=mxgraph.basic.layered_rect;dx=10;outlineConnect=0;whiteSpace=wrap;fontFamily=Helvetica;fontSize=11;fontColor=default;dashed=1;dashPattern=8 8;" parent="1" vertex="1">
          <mxGeometry x="660" y="2015" width="460" height="290" as="geometry" />
        </mxCell>
        <mxCell id="oc_KrWGCgvXSQ-w0boeC-9" value="Study RAW&lt;br&gt;(Images)" style="shape=datastore;whiteSpace=wrap;html=1;fontFamily=Helvetica;fontSize=11;fontColor=default;" parent="1" vertex="1">
          <mxGeometry x="740" y="1350" width="70" height="110" as="geometry" />
        </mxCell>
        <mxCell id="oc_KrWGCgvXSQ-w0boeC-10" value="Study RAW&lt;br&gt;(Images)" style="shape=datastore;whiteSpace=wrap;html=1;fontFamily=Helvetica;fontSize=11;fontColor=default;" parent="1" vertex="1">
          <mxGeometry x="820" y="1350" width="70" height="110" as="geometry" />
        </mxCell>
        <mxCell id="oc_KrWGCgvXSQ-w0boeC-2" value="" style="rounded=0;whiteSpace=wrap;html=1;fontFamily=Helvetica;fontSize=11;fontColor=default;fillColor=none;" parent="1" vertex="1">
          <mxGeometry x="700" y="1280" width="440" height="260" as="geometry" />
        </mxCell>
        <mxCell id="KIxfDSOly882Vs4wJonP-5" value="" style="rounded=0;whiteSpace=wrap;html=1;fontFamily=Helvetica;fontSize=11;fontColor=default;fillColor=none;" parent="1" vertex="1">
          <mxGeometry x="60" y="1740" width="540" height="580" as="geometry" />
        </mxCell>
        <mxCell id="c4oOFyMenq184vYpYAAe-1" value="" style="verticalLabelPosition=bottom;verticalAlign=top;html=1;shape=mxgraph.basic.layered_rect;dx=10;outlineConnect=0;whiteSpace=wrap;fontFamily=Helvetica;fontSize=11;fontColor=default;dashed=1;dashPattern=8 8;" parent="1" vertex="1">
          <mxGeometry x="355" y="1900" width="205" height="390" as="geometry" />
        </mxCell>
        <mxCell id="CK7g-8x-_ucV-Jjm1lYH-17" value="" style="rounded=0;whiteSpace=wrap;html=1;fillColor=none;dashed=1;dashPattern=8 8;" parent="1" vertex="1">
          <mxGeometry x="-580" y="1760" width="360" height="500" as="geometry" />
        </mxCell>
        <mxCell id="HfQkpLC3kCFj8I65ou__-76" value="" style="rounded=0;whiteSpace=wrap;html=1;fillColor=none;dashed=1;dashPattern=8 8;" parent="1" vertex="1">
          <mxGeometry x="230" y="1180" width="340" height="370" as="geometry" />
        </mxCell>
        <mxCell id="HfQkpLC3kCFj8I65ou__-59" value="TBA" style="rounded=0;whiteSpace=wrap;html=1;fillColor=#fff2cc;strokeColor=#d6b656;" parent="1" vertex="1">
          <mxGeometry x="410" y="1400" width="140" height="130" as="geometry" />
        </mxCell>
        <mxCell id="HfQkpLC3kCFj8I65ou__-61" value="" style="rounded=0;whiteSpace=wrap;html=1;fillColor=#ffe6cc;strokeColor=#d79b00;" parent="1" vertex="1">
          <mxGeometry x="410" y="1220" width="140" height="130" as="geometry" />
        </mxCell>
        <mxCell id="HfQkpLC3kCFj8I65ou__-60" value="" style="rounded=0;whiteSpace=wrap;html=1;fillColor=#f8cecc;strokeColor=#b85450;" parent="1" vertex="1">
          <mxGeometry x="250" y="1220" width="100" height="200" as="geometry" />
        </mxCell>
        <mxCell id="HfQkpLC3kCFj8I65ou__-57" value="" style="rounded=0;whiteSpace=wrap;html=1;fillColor=none;dashed=1;dashPattern=8 8;" parent="1" vertex="1">
          <mxGeometry x="-130" y="760" width="340" height="370" as="geometry" />
        </mxCell>
        <mxCell id="HfQkpLC3kCFj8I65ou__-34" value="" style="rounded=0;whiteSpace=wrap;html=1;fillColor=#fff2cc;strokeColor=#d6b656;" parent="1" vertex="1">
          <mxGeometry x="50" y="980" width="140" height="130" as="geometry" />
        </mxCell>
        <mxCell id="HfQkpLC3kCFj8I65ou__-31" value="" style="rounded=0;whiteSpace=wrap;html=1;fillColor=#f8cecc;strokeColor=#b85450;" parent="1" vertex="1">
          <mxGeometry x="-110" y="800" width="100" height="200" as="geometry" />
        </mxCell>
        <mxCell id="HfQkpLC3kCFj8I65ou__-21" value="" style="rounded=0;whiteSpace=wrap;html=1;fillColor=#ffe6cc;strokeColor=#d79b00;" parent="1" vertex="1">
          <mxGeometry x="50" y="800" width="140" height="130" as="geometry" />
        </mxCell>
        <mxCell id="HfQkpLC3kCFj8I65ou__-14" value="S3 Bucket" style="text;html=1;strokeColor=none;fillColor=none;align=center;verticalAlign=middle;whiteSpace=wrap;rounded=0;" parent="1" vertex="1">
          <mxGeometry x="-110" y="770" width="100" height="30" as="geometry" />
        </mxCell>
        <mxCell id="HfQkpLC3kCFj8I65ou__-27" style="edgeStyle=orthogonalEdgeStyle;rounded=0;orthogonalLoop=1;jettySize=auto;html=1;entryX=0;entryY=0.5;entryDx=0;entryDy=0;" parent="1" source="HfQkpLC3kCFj8I65ou__-15" target="HfQkpLC3kCFj8I65ou__-24" edge="1">
          <mxGeometry relative="1" as="geometry" />
        </mxCell>
        <mxCell id="HfQkpLC3kCFj8I65ou__-37" style="edgeStyle=orthogonalEdgeStyle;rounded=0;orthogonalLoop=1;jettySize=auto;html=1;entryX=0;entryY=0.5;entryDx=0;entryDy=0;" parent="1" source="HfQkpLC3kCFj8I65ou__-15" target="HfQkpLC3kCFj8I65ou__-36" edge="1">
          <mxGeometry relative="1" as="geometry" />
        </mxCell>
        <mxCell id="HfQkpLC3kCFj8I65ou__-15" value="Imaging Data" style="rounded=0;whiteSpace=wrap;html=1;" parent="1" vertex="1">
          <mxGeometry x="-100" y="825" width="80" height="30" as="geometry" />
        </mxCell>
        <mxCell id="HfQkpLC3kCFj8I65ou__-115" style="edgeStyle=orthogonalEdgeStyle;rounded=0;orthogonalLoop=1;jettySize=auto;html=1;entryX=1.029;entryY=0.214;entryDx=0;entryDy=0;entryPerimeter=0;jumpStyle=arc;" parent="1" source="HfQkpLC3kCFj8I65ou__-16" target="HfQkpLC3kCFj8I65ou__-97" edge="1">
          <mxGeometry relative="1" as="geometry" />
        </mxCell>
        <mxCell id="HfQkpLC3kCFj8I65ou__-119" style="edgeStyle=orthogonalEdgeStyle;shape=connector;rounded=0;jumpStyle=arc;orthogonalLoop=1;jettySize=auto;html=1;entryX=0;entryY=0.25;entryDx=0;entryDy=0;labelBackgroundColor=default;strokeColor=default;align=center;verticalAlign=middle;fontFamily=Helvetica;fontSize=11;fontColor=default;endArrow=classic;" parent="1" source="HfQkpLC3kCFj8I65ou__-16" target="HfQkpLC3kCFj8I65ou__-66" edge="1">
          <mxGeometry relative="1" as="geometry">
            <Array as="points">
              <mxPoint x="-120" y="890" />
              <mxPoint x="-120" y="1248" />
            </Array>
          </mxGeometry>
        </mxCell>
        <mxCell id="HfQkpLC3kCFj8I65ou__-16" value="MUSE ROIs" style="rounded=0;whiteSpace=wrap;html=1;" parent="1" vertex="1">
          <mxGeometry x="-100" y="875" width="80" height="30" as="geometry" />
        </mxCell>
        <mxCell id="HfQkpLC3kCFj8I65ou__-29" style="edgeStyle=orthogonalEdgeStyle;rounded=0;orthogonalLoop=1;jettySize=auto;html=1;entryX=0.5;entryY=0;entryDx=0;entryDy=0;" parent="1" source="HfQkpLC3kCFj8I65ou__-24" target="HfQkpLC3kCFj8I65ou__-25" edge="1">
          <mxGeometry relative="1" as="geometry" />
        </mxCell>
        <mxCell id="HfQkpLC3kCFj8I65ou__-24" value="Preprocessing" style="rounded=0;whiteSpace=wrap;html=1;" parent="1" vertex="1">
          <mxGeometry x="60" y="825" width="120" height="30" as="geometry" />
        </mxCell>
        <mxCell id="HfQkpLC3kCFj8I65ou__-30" style="edgeStyle=orthogonalEdgeStyle;rounded=0;orthogonalLoop=1;jettySize=auto;html=1;entryX=1;entryY=0.5;entryDx=0;entryDy=0;jumpStyle=arc;" parent="1" source="HfQkpLC3kCFj8I65ou__-25" target="HfQkpLC3kCFj8I65ou__-16" edge="1">
          <mxGeometry relative="1" as="geometry" />
        </mxCell>
        <mxCell id="HfQkpLC3kCFj8I65ou__-25" value="DLMUSE" style="rounded=0;whiteSpace=wrap;html=1;" parent="1" vertex="1">
          <mxGeometry x="60" y="875" width="120" height="30" as="geometry" />
        </mxCell>
        <mxCell id="HfQkpLC3kCFj8I65ou__-26" value="AWS Batch" style="text;html=1;strokeColor=none;fillColor=none;align=center;verticalAlign=middle;whiteSpace=wrap;rounded=0;" parent="1" vertex="1">
          <mxGeometry x="50" y="770" width="140" height="30" as="geometry" />
        </mxCell>
        <mxCell id="HfQkpLC3kCFj8I65ou__-116" style="edgeStyle=orthogonalEdgeStyle;rounded=0;orthogonalLoop=1;jettySize=auto;html=1;entryX=1;entryY=0.75;entryDx=0;entryDy=0;jumpStyle=arc;" parent="1" source="HfQkpLC3kCFj8I65ou__-32" target="HfQkpLC3kCFj8I65ou__-97" edge="1">
          <mxGeometry relative="1" as="geometry" />
        </mxCell>
        <mxCell id="HfQkpLC3kCFj8I65ou__-32" value="QC Results" style="rounded=0;whiteSpace=wrap;html=1;" parent="1" vertex="1">
          <mxGeometry x="-100" y="950" width="80" height="30" as="geometry" />
        </mxCell>
        <mxCell id="HfQkpLC3kCFj8I65ou__-35" value="AWS Lambda" style="text;html=1;strokeColor=none;fillColor=none;align=center;verticalAlign=middle;whiteSpace=wrap;rounded=0;" parent="1" vertex="1">
          <mxGeometry x="50" y="950" width="140" height="30" as="geometry" />
        </mxCell>
        <mxCell id="HfQkpLC3kCFj8I65ou__-38" style="edgeStyle=orthogonalEdgeStyle;rounded=0;orthogonalLoop=1;jettySize=auto;html=1;entryX=1;entryY=0.5;entryDx=0;entryDy=0;" parent="1" source="HfQkpLC3kCFj8I65ou__-36" target="HfQkpLC3kCFj8I65ou__-32" edge="1">
          <mxGeometry relative="1" as="geometry">
            <Array as="points">
              <mxPoint x="120" y="1090" />
              <mxPoint x="10" y="1090" />
              <mxPoint x="10" y="965" />
            </Array>
          </mxGeometry>
        </mxCell>
        <mxCell id="HfQkpLC3kCFj8I65ou__-36" value="QC Imaging Data" style="rounded=0;whiteSpace=wrap;html=1;" parent="1" vertex="1">
          <mxGeometry x="60" y="1030" width="120" height="30" as="geometry" />
        </mxCell>
        <mxCell id="HfQkpLC3kCFj8I65ou__-58" value="&lt;h2&gt;&lt;font style=&quot;font-size: 20px;&quot;&gt;Module 1: Segmentation&lt;/font&gt;&lt;/h2&gt;" style="text;html=1;strokeColor=none;fillColor=none;spacing=5;spacingTop=-20;whiteSpace=wrap;overflow=hidden;rounded=0;" parent="1" vertex="1">
          <mxGeometry x="-130" y="720" width="350" height="40" as="geometry" />
        </mxCell>
        <mxCell id="HfQkpLC3kCFj8I65ou__-62" value="S3 Bucket" style="text;html=1;strokeColor=none;fillColor=none;align=center;verticalAlign=middle;whiteSpace=wrap;rounded=0;" parent="1" vertex="1">
          <mxGeometry x="250" y="1190" width="100" height="30" as="geometry" />
        </mxCell>
        <mxCell id="HfQkpLC3kCFj8I65ou__-78" style="edgeStyle=orthogonalEdgeStyle;rounded=0;orthogonalLoop=1;jettySize=auto;html=1;entryX=0;entryY=0.5;entryDx=0;entryDy=0;" parent="1" source="HfQkpLC3kCFj8I65ou__-66" target="HfQkpLC3kCFj8I65ou__-70" edge="1">
          <mxGeometry relative="1" as="geometry" />
        </mxCell>
        <mxCell id="HfQkpLC3kCFj8I65ou__-66" value="MUSE ROIs" style="rounded=0;whiteSpace=wrap;html=1;" parent="1" vertex="1">
          <mxGeometry x="260" y="1240" width="80" height="30" as="geometry" />
        </mxCell>
        <mxCell id="HfQkpLC3kCFj8I65ou__-80" style="edgeStyle=orthogonalEdgeStyle;rounded=0;orthogonalLoop=1;jettySize=auto;html=1;entryX=1;entryY=0.5;entryDx=0;entryDy=0;" parent="1" source="HfQkpLC3kCFj8I65ou__-70" target="HfQkpLC3kCFj8I65ou__-79" edge="1">
          <mxGeometry relative="1" as="geometry">
            <Array as="points">
              <mxPoint x="480" y="1340" />
              <mxPoint x="360" y="1340" />
              <mxPoint x="360" y="1395" />
            </Array>
          </mxGeometry>
        </mxCell>
        <mxCell id="HfQkpLC3kCFj8I65ou__-70" value="SPARE_Score" style="rounded=0;whiteSpace=wrap;html=1;" parent="1" vertex="1">
          <mxGeometry x="420" y="1270" width="120" height="30" as="geometry" />
        </mxCell>
        <mxCell id="HfQkpLC3kCFj8I65ou__-71" value="AWS Batch" style="text;html=1;strokeColor=none;fillColor=none;align=center;verticalAlign=middle;whiteSpace=wrap;rounded=0;" parent="1" vertex="1">
          <mxGeometry x="410" y="1190" width="140" height="30" as="geometry" />
        </mxCell>
        <mxCell id="HfQkpLC3kCFj8I65ou__-73" value="AWS Lambda" style="text;html=1;strokeColor=none;fillColor=none;align=center;verticalAlign=middle;whiteSpace=wrap;rounded=0;" parent="1" vertex="1">
          <mxGeometry x="410" y="1370" width="140" height="30" as="geometry" />
        </mxCell>
        <mxCell id="HfQkpLC3kCFj8I65ou__-77" value="&lt;h2 style=&quot;font-size: 20px;&quot;&gt;Module 2: ML Pipeline / Scores&lt;/h2&gt;" style="text;html=1;strokeColor=none;fillColor=none;spacing=5;spacingTop=-20;whiteSpace=wrap;overflow=hidden;rounded=0;fontSize=20;verticalAlign=top;" parent="1" vertex="1">
          <mxGeometry x="230" y="1140" width="340" height="40" as="geometry" />
        </mxCell>
        <mxCell id="HfQkpLC3kCFj8I65ou__-121" style="edgeStyle=orthogonalEdgeStyle;shape=connector;rounded=0;jumpStyle=arc;orthogonalLoop=1;jettySize=auto;html=1;entryX=1;entryY=0.5;entryDx=0;entryDy=0;labelBackgroundColor=default;strokeColor=default;align=center;verticalAlign=middle;fontFamily=Helvetica;fontSize=11;fontColor=default;endArrow=classic;" parent="1" source="HfQkpLC3kCFj8I65ou__-79" target="HfQkpLC3kCFj8I65ou__-104" edge="1">
          <mxGeometry relative="1" as="geometry" />
        </mxCell>
        <mxCell id="HfQkpLC3kCFj8I65ou__-79" value="SPARE Result" style="rounded=0;whiteSpace=wrap;html=1;" parent="1" vertex="1">
          <mxGeometry x="260" y="1380" width="80" height="30" as="geometry" />
        </mxCell>
        <mxCell id="HfQkpLC3kCFj8I65ou__-114" style="edgeStyle=orthogonalEdgeStyle;rounded=0;orthogonalLoop=1;jettySize=auto;html=1;" parent="1" source="HfQkpLC3kCFj8I65ou__-96" target="HfQkpLC3kCFj8I65ou__-15" edge="1">
          <mxGeometry relative="1" as="geometry" />
        </mxCell>
        <mxCell id="HfQkpLC3kCFj8I65ou__-96" value="Input" style="rounded=0;whiteSpace=wrap;html=1;fillColor=none;" parent="1" vertex="1">
          <mxGeometry x="-410" y="760" width="40" height="90" as="geometry" />
        </mxCell>
        <mxCell id="HfQkpLC3kCFj8I65ou__-97" value="Output" style="rounded=0;whiteSpace=wrap;html=1;fillColor=none;" parent="1" vertex="1">
          <mxGeometry x="-410" y="870" width="40" height="90" as="geometry" />
        </mxCell>
        <mxCell id="HfQkpLC3kCFj8I65ou__-101" value="Module 1&lt;br&gt;Page" style="rounded=0;whiteSpace=wrap;html=1;fillColor=none;" parent="1" vertex="1">
          <mxGeometry x="-570" y="760" width="150" height="200" as="geometry" />
        </mxCell>
        <mxCell id="HfQkpLC3kCFj8I65ou__-120" style="edgeStyle=orthogonalEdgeStyle;shape=connector;rounded=0;jumpStyle=arc;orthogonalLoop=1;jettySize=auto;html=1;entryX=0;entryY=0.75;entryDx=0;entryDy=0;labelBackgroundColor=default;strokeColor=default;align=center;verticalAlign=middle;fontFamily=Helvetica;fontSize=11;fontColor=default;endArrow=classic;exitX=1;exitY=0.5;exitDx=0;exitDy=0;dashed=1;dashPattern=1 1;" parent="1" source="HfQkpLC3kCFj8I65ou__-103" target="HfQkpLC3kCFj8I65ou__-66" edge="1">
          <mxGeometry relative="1" as="geometry">
            <Array as="points">
              <mxPoint x="-160" y="1225" />
              <mxPoint x="-160" y="1263" />
              <mxPoint x="-20" y="1263" />
            </Array>
          </mxGeometry>
        </mxCell>
        <mxCell id="3BUDHjFz4d8L0ne-tI7D-2" style="edgeStyle=orthogonalEdgeStyle;shape=connector;rounded=0;jumpStyle=arc;orthogonalLoop=1;jettySize=auto;html=1;entryX=0;entryY=0.75;entryDx=0;entryDy=0;labelBackgroundColor=default;strokeColor=default;align=center;verticalAlign=middle;fontFamily=Helvetica;fontSize=11;fontColor=default;endArrow=classic;" parent="1" source="HfQkpLC3kCFj8I65ou__-103" target="3BUDHjFz4d8L0ne-tI7D-1" edge="1">
          <mxGeometry relative="1" as="geometry">
            <Array as="points">
              <mxPoint x="-230" y="1240" />
              <mxPoint x="-230" y="1280" />
              <mxPoint x="-10" y="1280" />
              <mxPoint x="-10" y="1328" />
            </Array>
          </mxGeometry>
        </mxCell>
        <mxCell id="HfQkpLC3kCFj8I65ou__-103" value="Input" style="rounded=0;whiteSpace=wrap;html=1;fillColor=none;" parent="1" vertex="1">
          <mxGeometry x="-320" y="1180" width="40" height="90" as="geometry" />
        </mxCell>
        <mxCell id="CK7g-8x-_ucV-Jjm1lYH-13" style="edgeStyle=orthogonalEdgeStyle;shape=connector;rounded=0;jumpStyle=arc;orthogonalLoop=1;jettySize=auto;html=1;entryX=0.5;entryY=0;entryDx=0;entryDy=0;labelBackgroundColor=default;strokeColor=default;align=center;verticalAlign=middle;fontFamily=Helvetica;fontSize=11;fontColor=default;endArrow=classic;" parent="1" source="HfQkpLC3kCFj8I65ou__-104" target="HfQkpLC3kCFj8I65ou__-107" edge="1">
          <mxGeometry relative="1" as="geometry" />
        </mxCell>
        <mxCell id="HfQkpLC3kCFj8I65ou__-104" value="Output" style="rounded=0;whiteSpace=wrap;html=1;fillColor=none;" parent="1" vertex="1">
          <mxGeometry x="-320" y="1290" width="40" height="90" as="geometry" />
        </mxCell>
        <mxCell id="HfQkpLC3kCFj8I65ou__-105" value="Module 2&lt;br&gt;Page" style="rounded=0;whiteSpace=wrap;html=1;fillColor=none;" parent="1" vertex="1">
          <mxGeometry x="-480" y="1180" width="150" height="200" as="geometry" />
        </mxCell>
        <mxCell id="HfQkpLC3kCFj8I65ou__-106" value="Output" style="rounded=0;whiteSpace=wrap;html=1;fillColor=none;" parent="1" vertex="1">
          <mxGeometry x="-560" y="1790" width="150" height="40" as="geometry" />
        </mxCell>
        <mxCell id="CK7g-8x-_ucV-Jjm1lYH-22" style="edgeStyle=orthogonalEdgeStyle;shape=connector;rounded=0;jumpStyle=arc;orthogonalLoop=1;jettySize=auto;html=1;labelBackgroundColor=default;strokeColor=default;align=center;verticalAlign=middle;fontFamily=Helvetica;fontSize=11;fontColor=default;endArrow=classic;" parent="1" source="HfQkpLC3kCFj8I65ou__-107" target="CK7g-8x-_ucV-Jjm1lYH-21" edge="1">
          <mxGeometry relative="1" as="geometry" />
        </mxCell>
        <mxCell id="HfQkpLC3kCFj8I65ou__-107" value="Input" style="rounded=0;whiteSpace=wrap;html=1;fillColor=none;" parent="1" vertex="1">
          <mxGeometry x="-390" y="1790" width="160" height="40" as="geometry" />
        </mxCell>
        <mxCell id="A6G5gNtqjlQXvQilSKfw-25" style="edgeStyle=orthogonalEdgeStyle;shape=connector;rounded=0;jumpStyle=arc;orthogonalLoop=1;jettySize=auto;html=1;entryX=1;entryY=0.5;entryDx=0;entryDy=0;labelBackgroundColor=default;strokeColor=default;align=center;verticalAlign=middle;fontFamily=Helvetica;fontSize=11;fontColor=default;endArrow=classic;" parent="1" source="A6G5gNtqjlQXvQilSKfw-2" target="A6G5gNtqjlQXvQilSKfw-7" edge="1">
          <mxGeometry relative="1" as="geometry" />
        </mxCell>
        <mxCell id="A6G5gNtqjlQXvQilSKfw-2" value="" style="rounded=1;whiteSpace=wrap;html=1;fillColor=none;" parent="1" vertex="1">
          <mxGeometry x="910" y="950" width="430" height="70" as="geometry" />
        </mxCell>
        <mxCell id="A6G5gNtqjlQXvQilSKfw-3" value="Code" style="rounded=0;whiteSpace=wrap;html=1;" parent="1" vertex="1">
          <mxGeometry x="930" y="970" width="120" height="30" as="geometry" />
        </mxCell>
        <mxCell id="A6G5gNtqjlQXvQilSKfw-4" value="Data (mapping)" style="rounded=0;whiteSpace=wrap;html=1;" parent="1" vertex="1">
          <mxGeometry x="1070" y="970" width="120" height="30" as="geometry" />
        </mxCell>
        <mxCell id="A6G5gNtqjlQXvQilSKfw-5" value="Pre-trained&lt;br&gt;Models" style="rounded=0;whiteSpace=wrap;html=1;" parent="1" vertex="1">
          <mxGeometry x="1210" y="970" width="120" height="30" as="geometry" />
        </mxCell>
        <mxCell id="A6G5gNtqjlQXvQilSKfw-6" value="DLMUSE Container" style="text;html=1;strokeColor=none;fillColor=none;align=center;verticalAlign=middle;whiteSpace=wrap;rounded=0;" parent="1" vertex="1">
          <mxGeometry x="910" y="920" width="430" height="30" as="geometry" />
        </mxCell>
        <mxCell id="A6G5gNtqjlQXvQilSKfw-27" style="edgeStyle=orthogonalEdgeStyle;shape=connector;rounded=0;jumpStyle=arc;orthogonalLoop=1;jettySize=auto;html=1;entryX=1;entryY=0.5;entryDx=0;entryDy=0;labelBackgroundColor=default;strokeColor=default;align=center;verticalAlign=middle;fontFamily=Helvetica;fontSize=11;fontColor=default;endArrow=classic;" parent="1" source="A6G5gNtqjlQXvQilSKfw-7" target="HfQkpLC3kCFj8I65ou__-21" edge="1">
          <mxGeometry relative="1" as="geometry">
            <Array as="points">
              <mxPoint x="660" y="1085" />
              <mxPoint x="660" y="865" />
            </Array>
          </mxGeometry>
        </mxCell>
        <mxCell id="A6G5gNtqjlQXvQilSKfw-29" style="edgeStyle=orthogonalEdgeStyle;shape=connector;rounded=0;jumpStyle=arc;orthogonalLoop=1;jettySize=auto;html=1;labelBackgroundColor=default;strokeColor=default;align=center;verticalAlign=middle;fontFamily=Helvetica;fontSize=11;fontColor=default;endArrow=classic;" parent="1" source="A6G5gNtqjlQXvQilSKfw-7" target="HfQkpLC3kCFj8I65ou__-61" edge="1">
          <mxGeometry relative="1" as="geometry">
            <Array as="points">
              <mxPoint x="660" y="1085" />
              <mxPoint x="660" y="1285" />
            </Array>
          </mxGeometry>
        </mxCell>
        <mxCell id="A6G5gNtqjlQXvQilSKfw-7" value="Docker Hub" style="rounded=0;whiteSpace=wrap;html=1;fillColor=#1ba1e2;fontColor=#ffffff;strokeColor=#006EAF;" parent="1" vertex="1">
          <mxGeometry x="700" y="1020" width="130" height="130" as="geometry" />
        </mxCell>
        <mxCell id="A6G5gNtqjlQXvQilSKfw-26" style="edgeStyle=orthogonalEdgeStyle;shape=connector;rounded=0;jumpStyle=none;orthogonalLoop=1;jettySize=auto;html=1;labelBackgroundColor=default;strokeColor=default;align=center;verticalAlign=middle;fontFamily=Helvetica;fontSize=11;fontColor=default;endArrow=classic;" parent="1" source="A6G5gNtqjlQXvQilSKfw-20" target="A6G5gNtqjlQXvQilSKfw-7" edge="1">
          <mxGeometry relative="1" as="geometry" />
        </mxCell>
        <mxCell id="A6G5gNtqjlQXvQilSKfw-20" value="" style="rounded=1;whiteSpace=wrap;html=1;fillColor=none;" parent="1" vertex="1">
          <mxGeometry x="910" y="1050" width="430" height="70" as="geometry" />
        </mxCell>
        <mxCell id="A6G5gNtqjlQXvQilSKfw-21" value="Code" style="rounded=0;whiteSpace=wrap;html=1;" parent="1" vertex="1">
          <mxGeometry x="967" y="1070" width="120" height="30" as="geometry" />
        </mxCell>
        <mxCell id="A6G5gNtqjlQXvQilSKfw-23" value="Pre-trained&lt;br&gt;Models" style="rounded=0;whiteSpace=wrap;html=1;" parent="1" vertex="1">
          <mxGeometry x="1164" y="1070" width="120" height="30" as="geometry" />
        </mxCell>
        <mxCell id="A6G5gNtqjlQXvQilSKfw-24" value="SPARE_Score Container" style="text;html=1;strokeColor=none;fillColor=none;align=center;verticalAlign=middle;whiteSpace=wrap;rounded=0;" parent="1" vertex="1">
          <mxGeometry x="910" y="1020" width="430" height="30" as="geometry" />
        </mxCell>
        <mxCell id="CK7g-8x-_ucV-Jjm1lYH-5" style="edgeStyle=orthogonalEdgeStyle;shape=connector;rounded=0;jumpStyle=arc;orthogonalLoop=1;jettySize=auto;html=1;entryX=1;entryY=0.5;entryDx=0;entryDy=0;labelBackgroundColor=default;strokeColor=default;align=center;verticalAlign=middle;fontFamily=Helvetica;fontSize=11;fontColor=default;endArrow=classic;dashed=1;dashPattern=12 12;" parent="1" source="z984Q-BBnVBb7h8HNXGi-1" target="A6G5gNtqjlQXvQilSKfw-7" edge="1">
          <mxGeometry relative="1" as="geometry" />
        </mxCell>
        <mxCell id="z984Q-BBnVBb7h8HNXGi-1" value="" style="rounded=1;whiteSpace=wrap;html=1;fillColor=none;" parent="1" vertex="1">
          <mxGeometry x="910" y="1150" width="430" height="70" as="geometry" />
        </mxCell>
        <mxCell id="z984Q-BBnVBb7h8HNXGi-2" value="Code" style="rounded=0;whiteSpace=wrap;html=1;" parent="1" vertex="1">
          <mxGeometry x="930" y="1170" width="120" height="30" as="geometry" />
        </mxCell>
        <mxCell id="z984Q-BBnVBb7h8HNXGi-3" value="Data (maybe)" style="rounded=0;whiteSpace=wrap;html=1;" parent="1" vertex="1">
          <mxGeometry x="1070" y="1170" width="120" height="30" as="geometry" />
        </mxCell>
        <mxCell id="z984Q-BBnVBb7h8HNXGi-4" value="Pre-trained&lt;br&gt;Models" style="rounded=0;whiteSpace=wrap;html=1;" parent="1" vertex="1">
          <mxGeometry x="1210" y="1170" width="120" height="30" as="geometry" />
        </mxCell>
        <mxCell id="z984Q-BBnVBb7h8HNXGi-5" value="SurrealGAN Container" style="text;html=1;strokeColor=none;fillColor=none;align=center;verticalAlign=middle;whiteSpace=wrap;rounded=0;" parent="1" vertex="1">
          <mxGeometry x="910" y="1120" width="430" height="30" as="geometry" />
        </mxCell>
        <mxCell id="CK7g-8x-_ucV-Jjm1lYH-4" value="&lt;h1&gt;&lt;font style=&quot;font-size: 34px;&quot;&gt;AWS&lt;/font&gt;&lt;/h1&gt;" style="text;html=1;strokeColor=none;fillColor=none;spacing=5;spacingTop=-20;whiteSpace=wrap;overflow=hidden;rounded=0;" parent="1" vertex="1">
          <mxGeometry x="-190" y="660" width="340" height="50" as="geometry" />
        </mxCell>
        <mxCell id="CK7g-8x-_ucV-Jjm1lYH-16" style="edgeStyle=orthogonalEdgeStyle;shape=connector;rounded=0;jumpStyle=arc;orthogonalLoop=1;jettySize=auto;html=1;entryX=0.75;entryY=0;entryDx=0;entryDy=0;labelBackgroundColor=default;strokeColor=default;align=center;verticalAlign=middle;fontFamily=Helvetica;fontSize=11;fontColor=default;endArrow=classic;" parent="1" source="CK7g-8x-_ucV-Jjm1lYH-12" target="HfQkpLC3kCFj8I65ou__-107" edge="1">
          <mxGeometry relative="1" as="geometry" />
        </mxCell>
        <mxCell id="CK7g-8x-_ucV-Jjm1lYH-12" value="Reference&lt;br style=&quot;border-color: var(--border-color);&quot;&gt;Data&lt;br&gt;(frozen)" style="whiteSpace=wrap;html=1;aspect=fixed;fontFamily=Helvetica;fontSize=11;fontColor=default;" parent="1" vertex="1">
          <mxGeometry x="-300" y="1610" width="80" height="80" as="geometry" />
        </mxCell>
        <mxCell id="CK7g-8x-_ucV-Jjm1lYH-18" value="&lt;h2 style=&quot;font-size: 20px;&quot;&gt;Module 3: Visualization (local)&lt;/h2&gt;" style="text;html=1;strokeColor=none;fillColor=none;spacing=5;spacingTop=-20;whiteSpace=wrap;overflow=hidden;rounded=0;fontSize=20;verticalAlign=top;" parent="1" vertex="1">
          <mxGeometry x="-580" y="1720" width="360" height="40" as="geometry" />
        </mxCell>
        <mxCell id="CK7g-8x-_ucV-Jjm1lYH-20" value="&lt;h1&gt;&lt;font style=&quot;font-size: 34px;&quot;&gt;NiChart Website&lt;/font&gt;&lt;/h1&gt;" style="text;html=1;strokeColor=none;fillColor=none;spacing=5;spacingTop=-20;whiteSpace=wrap;overflow=hidden;rounded=0;" parent="1" vertex="1">
          <mxGeometry x="-600" y="660" width="400" height="50" as="geometry" />
        </mxCell>
        <mxCell id="CK7g-8x-_ucV-Jjm1lYH-21" value="Visualization&lt;br&gt;Function" style="ellipse;shape=cloud;whiteSpace=wrap;html=1;fontFamily=Helvetica;fontSize=11;fontColor=default;" parent="1" vertex="1">
          <mxGeometry x="-460" y="2000" width="120" height="80" as="geometry" />
        </mxCell>
        <mxCell id="CK7g-8x-_ucV-Jjm1lYH-23" style="edgeStyle=orthogonalEdgeStyle;shape=connector;rounded=0;jumpStyle=arc;orthogonalLoop=1;jettySize=auto;html=1;entryX=0.467;entryY=0.982;entryDx=0;entryDy=0;entryPerimeter=0;labelBackgroundColor=default;strokeColor=default;align=center;verticalAlign=middle;fontFamily=Helvetica;fontSize=11;fontColor=default;endArrow=classic;" parent="1" source="CK7g-8x-_ucV-Jjm1lYH-21" target="HfQkpLC3kCFj8I65ou__-106" edge="1">
          <mxGeometry relative="1" as="geometry">
            <Array as="points">
              <mxPoint x="-400" y="2180" />
              <mxPoint x="-490" y="2180" />
            </Array>
          </mxGeometry>
        </mxCell>
        <mxCell id="CK7g-8x-_ucV-Jjm1lYH-24" value="&lt;h2 style=&quot;font-size: 20px;&quot;&gt;Module 2: SPARE Score&lt;/h2&gt;" style="text;html=1;strokeColor=none;fillColor=none;spacing=5;spacingTop=-20;whiteSpace=wrap;overflow=hidden;rounded=0;fontSize=20;verticalAlign=top;" parent="1" vertex="1">
          <mxGeometry x="-580" y="1140" width="340" height="40" as="geometry" />
        </mxCell>
        <mxCell id="CK7g-8x-_ucV-Jjm1lYH-25" value="&lt;h2&gt;&lt;font style=&quot;font-size: 20px;&quot;&gt;Module 1: Segmentation&lt;/font&gt;&lt;/h2&gt;" style="text;html=1;strokeColor=none;fillColor=none;spacing=5;spacingTop=-20;whiteSpace=wrap;overflow=hidden;rounded=0;" parent="1" vertex="1">
          <mxGeometry x="-580" y="720" width="350" height="40" as="geometry" />
        </mxCell>
        <mxCell id="CK7g-8x-_ucV-Jjm1lYH-203" value="Merge" style="shape=cube;whiteSpace=wrap;html=1;boundedLbl=1;backgroundOutline=1;darkOpacity=0.05;darkOpacity2=0.1;fontFamily=Helvetica;fontSize=11;fontColor=default;flipV=0;flipH=1;" parent="1" vertex="1">
          <mxGeometry x="-120" y="1610" width="120" height="80" as="geometry" />
        </mxCell>
        <mxCell id="zXEOm9zhbUbJKIQH3wM_-2" value="&lt;h2&gt;&lt;span style=&quot;font-size: 20px;&quot;&gt;Data_Consolidation_NiChart&lt;/span&gt;&lt;/h2&gt;" style="text;html=1;strokeColor=none;fillColor=none;spacing=5;spacingTop=-20;whiteSpace=wrap;overflow=hidden;rounded=0;" parent="1" vertex="1">
          <mxGeometry x="60" y="1700" width="350" height="40" as="geometry" />
        </mxCell>
        <mxCell id="R3MZH-MRjxxJCDUfZfmy-4" style="edgeStyle=orthogonalEdgeStyle;shape=connector;rounded=0;jumpStyle=arc;orthogonalLoop=1;jettySize=auto;html=1;entryX=0;entryY=0.5;entryDx=0;entryDy=0;labelBackgroundColor=default;strokeColor=default;align=center;verticalAlign=middle;fontFamily=Helvetica;fontSize=11;fontColor=default;endArrow=classic;" parent="1" source="oapGFXK2UFMUVKaCYQHU-2" target="c4oOFyMenq184vYpYAAe-2" edge="1">
          <mxGeometry relative="1" as="geometry" />
        </mxCell>
        <mxCell id="oapGFXK2UFMUVKaCYQHU-2" value="step1_init_data" style="rounded=0;whiteSpace=wrap;html=1;fontFamily=Helvetica;fontSize=11;fontColor=default;" parent="1" vertex="1">
          <mxGeometry x="125" y="1910" width="140" height="20" as="geometry" />
        </mxCell>
        <mxCell id="NjeRcFu6_T-CQDwp8Fj8-2" value="&lt;h3&gt;Input&lt;/h3&gt;" style="text;html=1;strokeColor=none;fillColor=none;align=left;verticalAlign=middle;whiteSpace=wrap;rounded=0;fontSize=11;fontFamily=Helvetica;fontColor=default;" parent="1" vertex="1">
          <mxGeometry x="100" y="1750" width="60" height="30" as="geometry" />
        </mxCell>
        <mxCell id="NjeRcFu6_T-CQDwp8Fj8-4" value="&lt;h3&gt;Scripts&lt;/h3&gt;" style="text;html=1;strokeColor=none;fillColor=none;align=left;verticalAlign=middle;whiteSpace=wrap;rounded=0;fontSize=11;fontFamily=Helvetica;fontColor=default;" parent="1" vertex="1">
          <mxGeometry x="100" y="1870" width="60" height="30" as="geometry" />
        </mxCell>
        <mxCell id="R3MZH-MRjxxJCDUfZfmy-5" style="edgeStyle=orthogonalEdgeStyle;shape=connector;rounded=0;jumpStyle=arc;orthogonalLoop=1;jettySize=auto;html=1;entryX=0;entryY=0.5;entryDx=0;entryDy=0;labelBackgroundColor=default;strokeColor=default;align=center;verticalAlign=middle;fontFamily=Helvetica;fontSize=11;fontColor=default;endArrow=classic;" parent="1" source="NjeRcFu6_T-CQDwp8Fj8-5" target="c4oOFyMenq184vYpYAAe-3" edge="1">
          <mxGeometry relative="1" as="geometry" />
        </mxCell>
        <mxCell id="NjeRcFu6_T-CQDwp8Fj8-5" value="step2_corr_icv" style="rounded=0;whiteSpace=wrap;html=1;fontFamily=Helvetica;fontSize=11;fontColor=default;" parent="1" vertex="1">
          <mxGeometry x="125" y="1970" width="140" height="20" as="geometry" />
        </mxCell>
        <mxCell id="R3MZH-MRjxxJCDUfZfmy-6" style="edgeStyle=orthogonalEdgeStyle;shape=connector;rounded=0;jumpStyle=arc;orthogonalLoop=1;jettySize=auto;html=1;entryX=0;entryY=0.5;entryDx=0;entryDy=0;labelBackgroundColor=default;strokeColor=default;align=center;verticalAlign=middle;fontFamily=Helvetica;fontSize=11;fontColor=default;endArrow=classic;" parent="1" source="mu3f0GLNDps_eS_9TxsD-1" target="c4oOFyMenq184vYpYAAe-4" edge="1">
          <mxGeometry relative="1" as="geometry" />
        </mxCell>
        <mxCell id="mu3f0GLNDps_eS_9TxsD-1" value="step3_select_ROIs" style="rounded=0;whiteSpace=wrap;html=1;fontFamily=Helvetica;fontSize=11;fontColor=default;" parent="1" vertex="1">
          <mxGeometry x="125" y="2030" width="140" height="20" as="geometry" />
        </mxCell>
        <mxCell id="R3MZH-MRjxxJCDUfZfmy-7" style="edgeStyle=orthogonalEdgeStyle;shape=connector;rounded=0;jumpStyle=arc;orthogonalLoop=1;jettySize=auto;html=1;labelBackgroundColor=default;strokeColor=default;align=center;verticalAlign=middle;fontFamily=Helvetica;fontSize=11;fontColor=default;endArrow=classic;" parent="1" source="mu3f0GLNDps_eS_9TxsD-2" target="c4oOFyMenq184vYpYAAe-5" edge="1">
          <mxGeometry relative="1" as="geometry" />
        </mxCell>
        <mxCell id="mu3f0GLNDps_eS_9TxsD-2" value="step4_merge_data" style="rounded=0;whiteSpace=wrap;html=1;fontFamily=Helvetica;fontSize=11;fontColor=default;" parent="1" vertex="1">
          <mxGeometry x="125" y="2090" width="140" height="20" as="geometry" />
        </mxCell>
        <mxCell id="R3MZH-MRjxxJCDUfZfmy-8" style="edgeStyle=orthogonalEdgeStyle;shape=connector;rounded=0;jumpStyle=arc;orthogonalLoop=1;jettySize=auto;html=1;labelBackgroundColor=default;strokeColor=default;align=center;verticalAlign=middle;fontFamily=Helvetica;fontSize=11;fontColor=default;endArrow=classic;" parent="1" source="mu3f0GLNDps_eS_9TxsD-3" target="c4oOFyMenq184vYpYAAe-6" edge="1">
          <mxGeometry relative="1" as="geometry" />
        </mxCell>
        <mxCell id="mu3f0GLNDps_eS_9TxsD-3" value="step5_select_subsample" style="rounded=0;whiteSpace=wrap;html=1;fontFamily=Helvetica;fontSize=11;fontColor=default;" parent="1" vertex="1">
          <mxGeometry x="125" y="2150" width="140" height="20" as="geometry" />
        </mxCell>
        <mxCell id="R3MZH-MRjxxJCDUfZfmy-9" style="edgeStyle=orthogonalEdgeStyle;shape=connector;rounded=0;jumpStyle=arc;orthogonalLoop=1;jettySize=auto;html=1;entryX=0;entryY=0.5;entryDx=0;entryDy=0;labelBackgroundColor=default;strokeColor=default;align=center;verticalAlign=middle;fontFamily=Helvetica;fontSize=11;fontColor=default;endArrow=classic;" parent="1" source="mu3f0GLNDps_eS_9TxsD-4" target="c4oOFyMenq184vYpYAAe-7" edge="1">
          <mxGeometry relative="1" as="geometry" />
        </mxCell>
        <mxCell id="mu3f0GLNDps_eS_9TxsD-4" value="step6_calc_centiles" style="rounded=0;whiteSpace=wrap;html=1;fontFamily=Helvetica;fontSize=11;fontColor=default;" parent="1" vertex="1">
          <mxGeometry x="125" y="2210" width="140" height="20" as="geometry" />
        </mxCell>
        <mxCell id="mu3f0GLNDps_eS_9TxsD-5" value="step7_view_data" style="rounded=0;whiteSpace=wrap;html=1;fontFamily=Helvetica;fontSize=11;fontColor=default;" parent="1" vertex="1">
          <mxGeometry x="125" y="2270" width="140" height="20" as="geometry" />
        </mxCell>
        <mxCell id="fLtLlD3MquQ-CAmwdAc8-1" value="&lt;h3&gt;Output (for each Study)&lt;/h3&gt;" style="text;html=1;strokeColor=none;fillColor=none;align=left;verticalAlign=middle;whiteSpace=wrap;rounded=0;fontSize=11;fontFamily=Helvetica;fontColor=default;" parent="1" vertex="1">
          <mxGeometry x="355" y="1870" width="190" height="30" as="geometry" />
        </mxCell>
        <mxCell id="R3MZH-MRjxxJCDUfZfmy-10" style="edgeStyle=orthogonalEdgeStyle;shape=connector;rounded=0;jumpStyle=arc;orthogonalLoop=1;jettySize=auto;html=1;labelBackgroundColor=default;strokeColor=default;align=center;verticalAlign=middle;fontFamily=Helvetica;fontSize=11;fontColor=default;endArrow=classic;" parent="1" source="c4oOFyMenq184vYpYAAe-2" target="NjeRcFu6_T-CQDwp8Fj8-5" edge="1">
          <mxGeometry relative="1" as="geometry">
            <Array as="points">
              <mxPoint x="450" y="1960" />
              <mxPoint x="195" y="1960" />
            </Array>
          </mxGeometry>
        </mxCell>
        <mxCell id="c4oOFyMenq184vYpYAAe-2" value="step1_init_data" style="rounded=0;whiteSpace=wrap;html=1;fontFamily=Helvetica;fontSize=11;fontColor=default;" parent="1" vertex="1">
          <mxGeometry x="380" y="1930" width="140" height="20" as="geometry" />
        </mxCell>
        <mxCell id="R3MZH-MRjxxJCDUfZfmy-11" style="edgeStyle=orthogonalEdgeStyle;shape=connector;rounded=0;jumpStyle=arc;orthogonalLoop=1;jettySize=auto;html=1;labelBackgroundColor=default;strokeColor=default;align=center;verticalAlign=middle;fontFamily=Helvetica;fontSize=11;fontColor=default;endArrow=classic;" parent="1" source="c4oOFyMenq184vYpYAAe-3" target="mu3f0GLNDps_eS_9TxsD-1" edge="1">
          <mxGeometry relative="1" as="geometry">
            <Array as="points">
              <mxPoint x="450" y="2020" />
              <mxPoint x="195" y="2020" />
            </Array>
          </mxGeometry>
        </mxCell>
        <mxCell id="c4oOFyMenq184vYpYAAe-3" value="step2_corr_icv" style="rounded=0;whiteSpace=wrap;html=1;fontFamily=Helvetica;fontSize=11;fontColor=default;" parent="1" vertex="1">
          <mxGeometry x="380" y="1990" width="140" height="20" as="geometry" />
        </mxCell>
        <mxCell id="R3MZH-MRjxxJCDUfZfmy-12" style="edgeStyle=orthogonalEdgeStyle;shape=connector;rounded=0;jumpStyle=arc;orthogonalLoop=1;jettySize=auto;html=1;labelBackgroundColor=default;strokeColor=default;align=center;verticalAlign=middle;fontFamily=Helvetica;fontSize=11;fontColor=default;endArrow=classic;" parent="1" source="c4oOFyMenq184vYpYAAe-4" target="mu3f0GLNDps_eS_9TxsD-2" edge="1">
          <mxGeometry relative="1" as="geometry">
            <Array as="points">
              <mxPoint x="450" y="2080" />
              <mxPoint x="195" y="2080" />
            </Array>
          </mxGeometry>
        </mxCell>
        <mxCell id="c4oOFyMenq184vYpYAAe-4" value="step3_select_ROIs" style="rounded=0;whiteSpace=wrap;html=1;fontFamily=Helvetica;fontSize=11;fontColor=default;" parent="1" vertex="1">
          <mxGeometry x="380" y="2050" width="140" height="20" as="geometry" />
        </mxCell>
        <mxCell id="R3MZH-MRjxxJCDUfZfmy-13" style="edgeStyle=orthogonalEdgeStyle;shape=connector;rounded=0;jumpStyle=arc;orthogonalLoop=1;jettySize=auto;html=1;entryX=0.5;entryY=0;entryDx=0;entryDy=0;labelBackgroundColor=default;strokeColor=default;align=center;verticalAlign=middle;fontFamily=Helvetica;fontSize=11;fontColor=default;endArrow=classic;" parent="1" source="c4oOFyMenq184vYpYAAe-5" target="mu3f0GLNDps_eS_9TxsD-3" edge="1">
          <mxGeometry relative="1" as="geometry">
            <Array as="points">
              <mxPoint x="450" y="2140" />
              <mxPoint x="195" y="2140" />
            </Array>
          </mxGeometry>
        </mxCell>
        <mxCell id="c4oOFyMenq184vYpYAAe-5" value="step4_merge_data" style="rounded=0;whiteSpace=wrap;html=1;fontFamily=Helvetica;fontSize=11;fontColor=default;" parent="1" vertex="1">
          <mxGeometry x="380" y="2110" width="140" height="20" as="geometry" />
        </mxCell>
        <mxCell id="R3MZH-MRjxxJCDUfZfmy-14" style="edgeStyle=orthogonalEdgeStyle;shape=connector;rounded=0;jumpStyle=arc;orthogonalLoop=1;jettySize=auto;html=1;labelBackgroundColor=default;strokeColor=default;align=center;verticalAlign=middle;fontFamily=Helvetica;fontSize=11;fontColor=default;endArrow=classic;" parent="1" source="c4oOFyMenq184vYpYAAe-6" target="mu3f0GLNDps_eS_9TxsD-4" edge="1">
          <mxGeometry relative="1" as="geometry">
            <Array as="points">
              <mxPoint x="450" y="2200" />
              <mxPoint x="195" y="2200" />
            </Array>
          </mxGeometry>
        </mxCell>
        <mxCell id="c4oOFyMenq184vYpYAAe-6" value="step5_select_subsample" style="rounded=0;whiteSpace=wrap;html=1;fontFamily=Helvetica;fontSize=11;fontColor=default;" parent="1" vertex="1">
          <mxGeometry x="380" y="2170" width="140" height="20" as="geometry" />
        </mxCell>
        <mxCell id="R3MZH-MRjxxJCDUfZfmy-15" style="edgeStyle=orthogonalEdgeStyle;shape=connector;rounded=0;jumpStyle=arc;orthogonalLoop=1;jettySize=auto;html=1;entryX=0.5;entryY=0;entryDx=0;entryDy=0;labelBackgroundColor=default;strokeColor=default;align=center;verticalAlign=middle;fontFamily=Helvetica;fontSize=11;fontColor=default;endArrow=classic;" parent="1" source="c4oOFyMenq184vYpYAAe-7" target="mu3f0GLNDps_eS_9TxsD-5" edge="1">
          <mxGeometry relative="1" as="geometry">
            <Array as="points">
              <mxPoint x="450" y="2260" />
              <mxPoint x="195" y="2260" />
            </Array>
          </mxGeometry>
        </mxCell>
        <mxCell id="c4oOFyMenq184vYpYAAe-7" value="step6_calc_centiles" style="rounded=0;whiteSpace=wrap;html=1;fontFamily=Helvetica;fontSize=11;fontColor=default;" parent="1" vertex="1">
          <mxGeometry x="380" y="2230" width="140" height="20" as="geometry" />
        </mxCell>
        <mxCell id="oc_KrWGCgvXSQ-w0boeC-5" style="edgeStyle=orthogonalEdgeStyle;shape=connector;rounded=0;jumpStyle=arc;orthogonalLoop=1;jettySize=auto;html=1;entryX=0.75;entryY=0;entryDx=0;entryDy=0;labelBackgroundColor=default;strokeColor=default;align=center;verticalAlign=middle;fontFamily=Helvetica;fontSize=11;fontColor=default;endArrow=classic;" parent="1" source="UBVci4InykhVcPVS9Pi9-1" target="oapGFXK2UFMUVKaCYQHU-2" edge="1">
          <mxGeometry relative="1" as="geometry">
            <Array as="points">
              <mxPoint x="815" y="1630" />
              <mxPoint x="430" y="1630" />
              <mxPoint x="430" y="1810" />
              <mxPoint x="230" y="1810" />
            </Array>
          </mxGeometry>
        </mxCell>
        <mxCell id="UBVci4InykhVcPVS9Pi9-1" value="Study RAW&lt;br&gt;(Images)" style="shape=datastore;whiteSpace=wrap;html=1;fontFamily=Helvetica;fontSize=11;fontColor=default;" parent="1" vertex="1">
          <mxGeometry x="780" y="1385" width="70" height="110" as="geometry" />
        </mxCell>
        <mxCell id="KIxfDSOly882Vs4wJonP-1" value="&lt;h2&gt;&lt;span style=&quot;font-size: 20px;&quot;&gt;Clinical_Data_Study&lt;/span&gt;&lt;/h2&gt;" style="text;html=1;strokeColor=none;fillColor=none;spacing=5;spacingTop=-20;whiteSpace=wrap;overflow=hidden;rounded=0;" parent="1" vertex="1">
          <mxGeometry x="640" y="1700" width="350" height="40" as="geometry" />
        </mxCell>
        <mxCell id="KIxfDSOly882Vs4wJonP-3" style="edgeStyle=orthogonalEdgeStyle;shape=connector;rounded=0;jumpStyle=arc;orthogonalLoop=1;jettySize=auto;html=1;entryX=0.357;entryY=1.005;entryDx=0;entryDy=0;entryPerimeter=0;labelBackgroundColor=default;strokeColor=default;align=center;verticalAlign=middle;fontFamily=Helvetica;fontSize=11;fontColor=default;endArrow=classic;" parent="1" source="mu3f0GLNDps_eS_9TxsD-5" target="CK7g-8x-_ucV-Jjm1lYH-203" edge="1">
          <mxGeometry relative="1" as="geometry" />
        </mxCell>
        <mxCell id="KIxfDSOly882Vs4wJonP-4" style="edgeStyle=orthogonalEdgeStyle;shape=connector;rounded=0;jumpStyle=arc;orthogonalLoop=1;jettySize=auto;html=1;entryX=0.655;entryY=0.978;entryDx=0;entryDy=0;entryPerimeter=0;labelBackgroundColor=default;strokeColor=default;align=center;verticalAlign=middle;fontFamily=Helvetica;fontSize=11;fontColor=default;endArrow=classic;" parent="1" source="c4oOFyMenq184vYpYAAe-1" target="CK7g-8x-_ucV-Jjm1lYH-203" edge="1">
          <mxGeometry relative="1" as="geometry">
            <Array as="points">
              <mxPoint x="455" y="2300" />
              <mxPoint x="-79" y="2300" />
            </Array>
          </mxGeometry>
        </mxCell>
        <mxCell id="oc_KrWGCgvXSQ-w0boeC-1" value="Input list&lt;br style=&quot;border-color: var(--border-color);&quot;&gt;(List of Studies)" style="shape=document;whiteSpace=wrap;html=1;boundedLbl=1;fontFamily=Helvetica;fontSize=11;fontColor=default;" parent="1" vertex="1">
          <mxGeometry x="125" y="1790" width="95" height="60" as="geometry" />
        </mxCell>
        <mxCell id="oc_KrWGCgvXSQ-w0boeC-3" value="&lt;h1&gt;Internal Data (CBICA)&lt;/h1&gt;" style="text;html=1;strokeColor=none;fillColor=none;spacing=5;spacingTop=-20;whiteSpace=wrap;overflow=hidden;rounded=0;fontSize=11;fontFamily=Helvetica;fontColor=default;" parent="1" vertex="1">
          <mxGeometry x="700" y="1240" width="290" height="40" as="geometry" />
        </mxCell>
        <mxCell id="oc_KrWGCgvXSQ-w0boeC-4" style="edgeStyle=orthogonalEdgeStyle;shape=connector;rounded=0;jumpStyle=arc;orthogonalLoop=1;jettySize=auto;html=1;entryX=0.393;entryY=0;entryDx=0;entryDy=0;entryPerimeter=0;labelBackgroundColor=default;strokeColor=default;align=center;verticalAlign=middle;fontFamily=Helvetica;fontSize=11;fontColor=default;endArrow=classic;" parent="1" source="oc_KrWGCgvXSQ-w0boeC-1" target="oapGFXK2UFMUVKaCYQHU-2" edge="1">
          <mxGeometry relative="1" as="geometry" />
        </mxCell>
        <mxCell id="oc_KrWGCgvXSQ-w0boeC-6" value="" style="rounded=0;whiteSpace=wrap;html=1;fillColor=none;dashed=1;dashPattern=8 8;" parent="1" vertex="1">
          <mxGeometry x="100" y="1780" width="190" height="80" as="geometry" />
        </mxCell>
        <mxCell id="oc_KrWGCgvXSQ-w0boeC-7" value="" style="rounded=0;whiteSpace=wrap;html=1;fillColor=none;dashed=1;dashPattern=8 8;" parent="1" vertex="1">
          <mxGeometry x="110" y="1900" width="170" height="410" as="geometry" />
        </mxCell>
        <mxCell id="ALthhLn-OF_V8jZ8Sbn9-3" style="edgeStyle=orthogonalEdgeStyle;shape=connector;rounded=0;jumpStyle=arc;orthogonalLoop=1;jettySize=auto;html=1;entryX=0;entryY=0.5;entryDx=0;entryDy=0;labelBackgroundColor=default;strokeColor=default;align=center;verticalAlign=middle;fontFamily=Helvetica;fontSize=11;fontColor=default;endArrow=classic;" parent="1" source="oc_KrWGCgvXSQ-w0boeC-11" target="_McH_Nw2-zbTuwpOxgld-2" edge="1">
          <mxGeometry relative="1" as="geometry">
            <Array as="points">
              <mxPoint x="1040" y="1650" />
              <mxPoint x="630" y="1650" />
              <mxPoint x="630" y="2090" />
            </Array>
          </mxGeometry>
        </mxCell>
        <mxCell id="oc_KrWGCgvXSQ-w0boeC-11" value="ISTAGING&lt;br&gt;Clinical" style="shape=cylinder3;whiteSpace=wrap;html=1;boundedLbl=1;backgroundOutline=1;size=15;fontFamily=Helvetica;fontSize=11;fontColor=default;" parent="1" vertex="1">
          <mxGeometry x="1010" y="1400" width="60" height="80" as="geometry" />
        </mxCell>
        <mxCell id="3BUDHjFz4d8L0ne-tI7D-3" style="edgeStyle=orthogonalEdgeStyle;shape=connector;rounded=0;jumpStyle=arc;orthogonalLoop=1;jettySize=auto;html=1;entryX=0;entryY=0.75;entryDx=0;entryDy=0;labelBackgroundColor=default;strokeColor=default;align=center;verticalAlign=middle;fontFamily=Helvetica;fontSize=11;fontColor=default;endArrow=classic;" parent="1" source="3BUDHjFz4d8L0ne-tI7D-1" target="HfQkpLC3kCFj8I65ou__-70" edge="1">
          <mxGeometry relative="1" as="geometry" />
        </mxCell>
        <mxCell id="3BUDHjFz4d8L0ne-tI7D-1" value="Demographics" style="rounded=0;whiteSpace=wrap;html=1;" parent="1" vertex="1">
          <mxGeometry x="260" y="1305" width="80" height="30" as="geometry" />
        </mxCell>
        <mxCell id="3BUDHjFz4d8L0ne-tI7D-4" value="" style="rounded=0;whiteSpace=wrap;html=1;fontFamily=Helvetica;fontSize=11;fontColor=default;fillColor=none;" parent="1" vertex="1">
          <mxGeometry x="640" y="1740" width="540" height="580" as="geometry" />
        </mxCell>
        <mxCell id="tsEuYPgvt_K7X8l1rrjh-1" value="&lt;h3&gt;Reference&lt;/h3&gt;" style="text;html=1;strokeColor=none;fillColor=none;align=left;verticalAlign=middle;whiteSpace=wrap;rounded=0;fontSize=11;fontFamily=Helvetica;fontColor=default;" parent="1" vertex="1">
          <mxGeometry x="680" y="1850" width="190" height="30" as="geometry" />
        </mxCell>
        <mxCell id="tsEuYPgvt_K7X8l1rrjh-2" value="" style="rounded=0;whiteSpace=wrap;html=1;fillColor=none;dashed=1;dashPattern=8 8;" parent="1" vertex="1">
          <mxGeometry x="680" y="1880" width="190" height="80" as="geometry" />
        </mxCell>
        <mxCell id="0SSOZMLq-PKCvhTUGQfr-1" value="&lt;h3&gt;Scripts&lt;/h3&gt;" style="text;html=1;strokeColor=none;fillColor=none;align=left;verticalAlign=middle;whiteSpace=wrap;rounded=0;fontSize=11;fontFamily=Helvetica;fontColor=default;" parent="1" vertex="1">
          <mxGeometry x="900" y="1850" width="190" height="30" as="geometry" />
        </mxCell>
        <mxCell id="0SSOZMLq-PKCvhTUGQfr-2" value="" style="rounded=0;whiteSpace=wrap;html=1;fillColor=none;dashed=1;dashPattern=8 8;" parent="1" vertex="1">
          <mxGeometry x="900" y="1880" width="190" height="80" as="geometry" />
        </mxCell>
        <mxCell id="eToo1uj2b1ARvQIdUc5P-1" value="&lt;h3&gt;Studies&lt;/h3&gt;" style="text;html=1;strokeColor=none;fillColor=none;align=left;verticalAlign=middle;whiteSpace=wrap;rounded=0;fontSize=11;fontFamily=Helvetica;fontColor=default;" parent="1" vertex="1">
          <mxGeometry x="660" y="1980" width="190" height="30" as="geometry" />
        </mxCell>
        <mxCell id="ALthhLn-OF_V8jZ8Sbn9-1" style="edgeStyle=orthogonalEdgeStyle;shape=connector;rounded=0;jumpStyle=arc;orthogonalLoop=1;jettySize=auto;html=1;entryX=0;entryY=0.5;entryDx=0;entryDy=0;labelBackgroundColor=default;strokeColor=default;align=center;verticalAlign=middle;fontFamily=Helvetica;fontSize=11;fontColor=default;endArrow=classic;" parent="1" source="_McH_Nw2-zbTuwpOxgld-2" target="_McH_Nw2-zbTuwpOxgld-3" edge="1">
          <mxGeometry relative="1" as="geometry" />
        </mxCell>
        <mxCell id="_McH_Nw2-zbTuwpOxgld-2" value="Input" style="rounded=0;whiteSpace=wrap;html=1;fontFamily=Helvetica;fontSize=11;fontColor=default;" parent="1" vertex="1">
          <mxGeometry x="722.5" y="2070" width="120" height="40" as="geometry" />
        </mxCell>
        <mxCell id="ALthhLn-OF_V8jZ8Sbn9-2" style="edgeStyle=orthogonalEdgeStyle;shape=connector;rounded=0;jumpStyle=arc;orthogonalLoop=1;jettySize=auto;html=1;labelBackgroundColor=default;strokeColor=default;align=center;verticalAlign=middle;fontFamily=Helvetica;fontSize=11;fontColor=default;endArrow=classic;" parent="1" source="_McH_Nw2-zbTuwpOxgld-3" target="GOAOHBEoqi5yDKEKNOpS-1" edge="1">
          <mxGeometry relative="1" as="geometry" />
        </mxCell>
        <mxCell id="_McH_Nw2-zbTuwpOxgld-3" value="Study-specific&lt;br&gt;Script" style="rounded=0;whiteSpace=wrap;html=1;fontFamily=Helvetica;fontSize=11;fontColor=default;" parent="1" vertex="1">
          <mxGeometry x="937.5" y="2070" width="120" height="40" as="geometry" />
        </mxCell>
        <mxCell id="1V1ZFGMDOZq_7fbAYQjQ-18" style="edgeStyle=orthogonalEdgeStyle;shape=connector;rounded=0;jumpStyle=arc;orthogonalLoop=1;jettySize=auto;html=1;entryX=1;entryY=0.5;entryDx=0;entryDy=0;labelBackgroundColor=default;strokeColor=default;align=center;verticalAlign=middle;fontFamily=Helvetica;fontSize=11;fontColor=default;endArrow=classic;" parent="1" source="GOAOHBEoqi5yDKEKNOpS-1" target="c4oOFyMenq184vYpYAAe-5" edge="1">
          <mxGeometry relative="1" as="geometry">
            <Array as="points">
              <mxPoint x="621" y="2220" />
              <mxPoint x="621" y="2120" />
            </Array>
          </mxGeometry>
        </mxCell>
        <mxCell id="GOAOHBEoqi5yDKEKNOpS-1" value="Output (Single study)" style="rounded=0;whiteSpace=wrap;html=1;fontFamily=Helvetica;fontSize=11;fontColor=default;" parent="1" vertex="1">
          <mxGeometry x="827.5" y="2200" width="120" height="40" as="geometry" />
        </mxCell>
        <mxCell id="ALthhLn-OF_V8jZ8Sbn9-4" value="column_name-dictionary" style="rounded=0;whiteSpace=wrap;html=1;fontFamily=Helvetica;fontSize=11;fontColor=default;" parent="1" vertex="1">
          <mxGeometry x="710" y="1900" width="130" height="30" as="geometry" />
        </mxCell>
        <mxCell id="ALthhLn-OF_V8jZ8Sbn9-5" value="Conventional Script" style="rounded=0;whiteSpace=wrap;html=1;fontFamily=Helvetica;fontSize=11;fontColor=default;" parent="1" vertex="1">
          <mxGeometry x="932.5" y="1900" width="130" height="30" as="geometry" />
        </mxCell>
        <mxCell id="ALthhLn-OF_V8jZ8Sbn9-6" style="edgeStyle=orthogonalEdgeStyle;shape=connector;rounded=0;jumpStyle=arc;orthogonalLoop=1;jettySize=auto;html=1;entryX=0.801;entryY=0.015;entryDx=0;entryDy=0;entryPerimeter=0;labelBackgroundColor=default;strokeColor=default;align=center;verticalAlign=middle;fontFamily=Helvetica;fontSize=11;fontColor=default;endArrow=classic;" parent="1" source="ALthhLn-OF_V8jZ8Sbn9-5" target="_McH_Nw2-zbTuwpOxgld-3" edge="1">
          <mxGeometry relative="1" as="geometry" />
        </mxCell>
        <mxCell id="ALthhLn-OF_V8jZ8Sbn9-7" style="edgeStyle=orthogonalEdgeStyle;shape=connector;rounded=0;jumpStyle=arc;orthogonalLoop=1;jettySize=auto;html=1;entryX=0.294;entryY=0.055;entryDx=0;entryDy=0;entryPerimeter=0;labelBackgroundColor=default;strokeColor=default;align=center;verticalAlign=middle;fontFamily=Helvetica;fontSize=11;fontColor=default;endArrow=classic;" parent="1" source="ALthhLn-OF_V8jZ8Sbn9-4" target="_McH_Nw2-zbTuwpOxgld-3" edge="1">
          <mxGeometry relative="1" as="geometry">
            <Array as="points">
              <mxPoint x="775" y="2000" />
              <mxPoint x="973" y="2000" />
            </Array>
          </mxGeometry>
        </mxCell>
        <mxCell id="Y2w2ZanXuCLovX-aBaCc-1" style="edgeStyle=orthogonalEdgeStyle;shape=connector;rounded=0;jumpStyle=arc;orthogonalLoop=1;jettySize=auto;html=1;entryX=0.851;entryY=0.979;entryDx=0;entryDy=0;entryPerimeter=0;labelBackgroundColor=default;strokeColor=default;align=center;verticalAlign=middle;fontFamily=Helvetica;fontSize=11;fontColor=default;endArrow=classic;" parent="1" source="3BUDHjFz4d8L0ne-tI7D-4" target="CK7g-8x-_ucV-Jjm1lYH-203" edge="1">
          <mxGeometry relative="1" as="geometry">
            <Array as="points">
              <mxPoint x="910" y="2340" />
              <mxPoint x="-102" y="2340" />
            </Array>
          </mxGeometry>
        </mxCell>
        <mxCell id="Y2w2ZanXuCLovX-aBaCc-2" value="&lt;h2&gt;&lt;span style=&quot;font-size: 20px;&quot;&gt;Clinical_Data_MRI&lt;/span&gt;&lt;/h2&gt;" style="text;html=1;strokeColor=none;fillColor=none;spacing=5;spacingTop=-20;whiteSpace=wrap;overflow=hidden;rounded=0;" parent="1" vertex="1">
          <mxGeometry x="1220" y="1700" width="350" height="40" as="geometry" />
        </mxCell>
        <mxCell id="OTsnvVz4ZM3vwK64wr2K-1" value="" style="rounded=0;whiteSpace=wrap;html=1;fontFamily=Helvetica;fontSize=11;fontColor=default;fillColor=none;" parent="1" vertex="1">
          <mxGeometry x="1220" y="1740" width="540" height="580" as="geometry" />
        </mxCell>
        <mxCell id="1V1ZFGMDOZq_7fbAYQjQ-1" value="&lt;h2&gt;&lt;span style=&quot;font-size: 20px;&quot;&gt;QC&lt;/span&gt;&lt;/h2&gt;" style="text;html=1;strokeColor=none;fillColor=none;spacing=5;spacingTop=-20;whiteSpace=wrap;overflow=hidden;rounded=0;" parent="1" vertex="1">
          <mxGeometry x="60" y="2370" width="350" height="40" as="geometry" />
        </mxCell>
        <mxCell id="1V1ZFGMDOZq_7fbAYQjQ-2" value="" style="rounded=0;whiteSpace=wrap;html=1;fontFamily=Helvetica;fontSize=11;fontColor=default;fillColor=none;" parent="1" vertex="1">
          <mxGeometry x="60" y="2410" width="840" height="140" as="geometry" />
        </mxCell>
        <mxCell id="1V1ZFGMDOZq_7fbAYQjQ-3" value="&lt;h2&gt;&lt;span style=&quot;font-size: 20px;&quot;&gt;Visualization&lt;/span&gt;&lt;/h2&gt;" style="text;html=1;strokeColor=none;fillColor=none;spacing=5;spacingTop=-20;whiteSpace=wrap;overflow=hidden;rounded=0;" parent="1" vertex="1">
          <mxGeometry x="920" y="2370" width="350" height="40" as="geometry" />
        </mxCell>
        <mxCell id="1V1ZFGMDOZq_7fbAYQjQ-4" value="" style="rounded=0;whiteSpace=wrap;html=1;fontFamily=Helvetica;fontSize=11;fontColor=default;fillColor=none;" parent="1" vertex="1">
          <mxGeometry x="920" y="2410" width="840" height="140" as="geometry" />
        </mxCell>
        <mxCell id="1V1ZFGMDOZq_7fbAYQjQ-6" value="&lt;h1 style=&quot;&quot;&gt;&lt;font style=&quot;font-size: 34px;&quot;&gt;NiChart Data&lt;/font&gt;&lt;/h1&gt;" style="text;html=1;strokeColor=none;fillColor=none;spacing=5;spacingTop=-20;whiteSpace=wrap;overflow=hidden;rounded=0;fontSize=20;verticalAlign=top;" parent="1" vertex="1">
          <mxGeometry x="40" y="1600" width="360" height="70" as="geometry" />
        </mxCell>
        <mxCell id="1V1ZFGMDOZq_7fbAYQjQ-14" style="edgeStyle=orthogonalEdgeStyle;shape=connector;rounded=0;jumpStyle=arc;orthogonalLoop=1;jettySize=auto;html=1;entryX=1;entryY=0.25;entryDx=0;entryDy=0;labelBackgroundColor=default;strokeColor=default;align=center;verticalAlign=middle;fontFamily=Helvetica;fontSize=11;fontColor=default;endArrow=classic;" parent="1" source="1V1ZFGMDOZq_7fbAYQjQ-10" target="HfQkpLC3kCFj8I65ou__-61" edge="1">
          <mxGeometry relative="1" as="geometry">
            <Array as="points">
              <mxPoint x="630" y="940" />
              <mxPoint x="630" y="1253" />
            </Array>
          </mxGeometry>
        </mxCell>
        <mxCell id="1V1ZFGMDOZq_7fbAYQjQ-16" style="edgeStyle=orthogonalEdgeStyle;shape=connector;rounded=0;jumpStyle=arc;orthogonalLoop=1;jettySize=auto;html=1;entryX=1;entryY=0.25;entryDx=0;entryDy=0;labelBackgroundColor=default;strokeColor=default;align=center;verticalAlign=middle;fontFamily=Helvetica;fontSize=11;fontColor=default;endArrow=classic;" parent="1" source="1V1ZFGMDOZq_7fbAYQjQ-10" target="HfQkpLC3kCFj8I65ou__-21" edge="1">
          <mxGeometry relative="1" as="geometry">
            <Array as="points">
              <mxPoint x="630" y="940" />
              <mxPoint x="630" y="833" />
            </Array>
          </mxGeometry>
        </mxCell>
        <mxCell id="1V1ZFGMDOZq_7fbAYQjQ-10" value="PyPi" style="rounded=0;whiteSpace=wrap;html=1;fillColor=#60a917;fontColor=#ffffff;strokeColor=#2D7600;" parent="1" vertex="1">
          <mxGeometry x="700" y="875" width="130" height="130" as="geometry" />
        </mxCell>
        <mxCell id="1V1ZFGMDOZq_7fbAYQjQ-19" value="" style="rounded=0;whiteSpace=wrap;html=1;fontFamily=Helvetica;fontSize=11;fontColor=default;fillColor=#00CC00;fillStyle=dashed;strokeColor=default;opacity=30;" parent="1" vertex="1">
          <mxGeometry x="-186" y="1592" width="1973" height="993" as="geometry" />
        </mxCell>
        <mxCell id="CWnHMLI2hWgPFUj4vNDs-1" value="" style="rounded=0;whiteSpace=wrap;html=1;fontFamily=Helvetica;fontSize=11;fontColor=default;fillColor=#FF8000;fillStyle=dashed;strokeColor=default;opacity=30;" parent="1" vertex="1">
          <mxGeometry x="-190" y="710" width="800" height="866" as="geometry" />
        </mxCell>
        <mxCell id="klk1ivTHdH1H8QMOO06S-4" value="NiChart Data" style="swimlane;fontStyle=0;childLayout=stackLayout;horizontal=1;startSize=30;horizontalStack=0;resizeParent=1;resizeParentMax=0;resizeLast=0;collapsible=1;marginBottom=0;whiteSpace=wrap;html=1;fillColor=#6d8764;fontColor=#ffffff;strokeColor=#3A5431;" vertex="1" parent="1">
          <mxGeometry x="-2620" y="1040" width="240" height="1020" as="geometry" />
        </mxCell>
        <mxCell id="klk1ivTHdH1H8QMOO06S-183" value="Data_Consolidation_NiChart" style="swimlane;fontStyle=0;childLayout=stackLayout;horizontal=1;startSize=30;horizontalStack=0;resizeParent=1;resizeParentMax=0;resizeLast=0;collapsible=1;marginBottom=0;whiteSpace=wrap;html=1;" vertex="1" parent="klk1ivTHdH1H8QMOO06S-4">
          <mxGeometry y="30" width="240" height="120" as="geometry">
            <mxRectangle y="30" width="240" height="30" as="alternateBounds" />
          </mxGeometry>
        </mxCell>
        <mxCell id="klk1ivTHdH1H8QMOO06S-184" value="Input" style="text;strokeColor=none;fillColor=none;align=left;verticalAlign=middle;spacingLeft=4;spacingRight=4;overflow=hidden;points=[[0,0.5],[1,0.5]];portConstraint=eastwest;rotatable=0;whiteSpace=wrap;html=1;" vertex="1" parent="klk1ivTHdH1H8QMOO06S-183">
          <mxGeometry y="30" width="240" height="30" as="geometry" />
        </mxCell>
        <mxCell id="klk1ivTHdH1H8QMOO06S-185" value="Scripts" style="text;strokeColor=none;fillColor=none;align=left;verticalAlign=middle;spacingLeft=4;spacingRight=4;overflow=hidden;points=[[0,0.5],[1,0.5]];portConstraint=eastwest;rotatable=0;whiteSpace=wrap;html=1;" vertex="1" parent="klk1ivTHdH1H8QMOO06S-183">
          <mxGeometry y="60" width="240" height="30" as="geometry" />
        </mxCell>
        <mxCell id="klk1ivTHdH1H8QMOO06S-186" value="&amp;nbsp; Output" style="swimlane;fontStyle=0;childLayout=stackLayout;horizontal=1;startSize=30;horizontalStack=0;resizeParent=1;resizeParentMax=0;resizeLast=0;collapsible=1;marginBottom=0;whiteSpace=wrap;html=1;align=left;" vertex="1" collapsed="1" parent="klk1ivTHdH1H8QMOO06S-183">
          <mxGeometry y="90" width="240" height="30" as="geometry">
            <mxRectangle y="90" width="240" height="720" as="alternateBounds" />
          </mxGeometry>
        </mxCell>
        <mxCell id="klk1ivTHdH1H8QMOO06S-187" value="ACCORD" style="text;strokeColor=none;fillColor=none;align=left;verticalAlign=middle;spacingLeft=4;spacingRight=4;overflow=hidden;points=[[0,0.5],[1,0.5]];portConstraint=eastwest;rotatable=0;whiteSpace=wrap;html=1;" vertex="1" parent="klk1ivTHdH1H8QMOO06S-186">
          <mxGeometry y="30" width="240" height="30" as="geometry" />
        </mxCell>
        <mxCell id="klk1ivTHdH1H8QMOO06S-188" value="ADNI" style="text;strokeColor=none;fillColor=none;align=left;verticalAlign=middle;spacingLeft=4;spacingRight=4;overflow=hidden;points=[[0,0.5],[1,0.5]];portConstraint=eastwest;rotatable=0;whiteSpace=wrap;html=1;" vertex="1" parent="klk1ivTHdH1H8QMOO06S-186">
          <mxGeometry y="60" width="240" height="30" as="geometry" />
        </mxCell>
        <mxCell id="klk1ivTHdH1H8QMOO06S-189" value="AIBL" style="text;strokeColor=none;fillColor=none;align=left;verticalAlign=middle;spacingLeft=4;spacingRight=4;overflow=hidden;points=[[0,0.5],[1,0.5]];portConstraint=eastwest;rotatable=0;whiteSpace=wrap;html=1;" vertex="1" parent="klk1ivTHdH1H8QMOO06S-186">
          <mxGeometry y="90" width="240" height="30" as="geometry" />
        </mxCell>
        <mxCell id="klk1ivTHdH1H8QMOO06S-190" value="BIOCARD" style="text;strokeColor=none;fillColor=none;align=left;verticalAlign=middle;spacingLeft=4;spacingRight=4;overflow=hidden;points=[[0,0.5],[1,0.5]];portConstraint=eastwest;rotatable=0;whiteSpace=wrap;html=1;" vertex="1" parent="klk1ivTHdH1H8QMOO06S-186">
          <mxGeometry y="120" width="240" height="30" as="geometry" />
        </mxCell>
        <mxCell id="klk1ivTHdH1H8QMOO06S-191" value="BLSA" style="text;strokeColor=none;fillColor=none;align=left;verticalAlign=middle;spacingLeft=4;spacingRight=4;overflow=hidden;points=[[0,0.5],[1,0.5]];portConstraint=eastwest;rotatable=0;whiteSpace=wrap;html=1;" vertex="1" parent="klk1ivTHdH1H8QMOO06S-186">
          <mxGeometry y="150" width="240" height="30" as="geometry" />
        </mxCell>
        <mxCell id="klk1ivTHdH1H8QMOO06S-192" value="CARDIA" style="text;strokeColor=none;fillColor=none;align=left;verticalAlign=middle;spacingLeft=4;spacingRight=4;overflow=hidden;points=[[0,0.5],[1,0.5]];portConstraint=eastwest;rotatable=0;whiteSpace=wrap;html=1;" vertex="1" parent="klk1ivTHdH1H8QMOO06S-186">
          <mxGeometry y="180" width="240" height="30" as="geometry" />
        </mxCell>
        <mxCell id="klk1ivTHdH1H8QMOO06S-193" value="FITBIR" style="text;strokeColor=none;fillColor=none;align=left;verticalAlign=middle;spacingLeft=4;spacingRight=4;overflow=hidden;points=[[0,0.5],[1,0.5]];portConstraint=eastwest;rotatable=0;whiteSpace=wrap;html=1;" vertex="1" parent="klk1ivTHdH1H8QMOO06S-186">
          <mxGeometry y="210" width="240" height="30" as="geometry" />
        </mxCell>
        <mxCell id="klk1ivTHdH1H8QMOO06S-194" value="GSP" style="text;strokeColor=none;fillColor=none;align=left;verticalAlign=middle;spacingLeft=4;spacingRight=4;overflow=hidden;points=[[0,0.5],[1,0.5]];portConstraint=eastwest;rotatable=0;whiteSpace=wrap;html=1;" vertex="1" parent="klk1ivTHdH1H8QMOO06S-186">
          <mxGeometry y="240" width="240" height="30" as="geometry" />
        </mxCell>
        <mxCell id="klk1ivTHdH1H8QMOO06S-195" value="HABS" style="text;strokeColor=none;fillColor=none;align=left;verticalAlign=middle;spacingLeft=4;spacingRight=4;overflow=hidden;points=[[0,0.5],[1,0.5]];portConstraint=eastwest;rotatable=0;whiteSpace=wrap;html=1;" vertex="1" parent="klk1ivTHdH1H8QMOO06S-186">
          <mxGeometry y="270" width="240" height="30" as="geometry" />
        </mxCell>
        <mxCell id="klk1ivTHdH1H8QMOO06S-196" value="HANDLS" style="text;strokeColor=none;fillColor=none;align=left;verticalAlign=middle;spacingLeft=4;spacingRight=4;overflow=hidden;points=[[0,0.5],[1,0.5]];portConstraint=eastwest;rotatable=0;whiteSpace=wrap;html=1;" vertex="1" parent="klk1ivTHdH1H8QMOO06S-186">
          <mxGeometry y="300" width="240" height="30" as="geometry" />
        </mxCell>
        <mxCell id="klk1ivTHdH1H8QMOO06S-197" value="HCP-Aging" style="text;strokeColor=none;fillColor=none;align=left;verticalAlign=middle;spacingLeft=4;spacingRight=4;overflow=hidden;points=[[0,0.5],[1,0.5]];portConstraint=eastwest;rotatable=0;whiteSpace=wrap;html=1;" vertex="1" parent="klk1ivTHdH1H8QMOO06S-186">
          <mxGeometry y="330" width="240" height="30" as="geometry" />
        </mxCell>
        <mxCell id="klk1ivTHdH1H8QMOO06S-198" value="HCP-YA" style="text;strokeColor=none;fillColor=none;align=left;verticalAlign=middle;spacingLeft=4;spacingRight=4;overflow=hidden;points=[[0,0.5],[1,0.5]];portConstraint=eastwest;rotatable=0;whiteSpace=wrap;html=1;" vertex="1" parent="klk1ivTHdH1H8QMOO06S-186">
          <mxGeometry y="360" width="240" height="30" as="geometry" />
        </mxCell>
        <mxCell id="klk1ivTHdH1H8QMOO06S-199" value="LookAHEAD" style="text;strokeColor=none;fillColor=none;align=left;verticalAlign=middle;spacingLeft=4;spacingRight=4;overflow=hidden;points=[[0,0.5],[1,0.5]];portConstraint=eastwest;rotatable=0;whiteSpace=wrap;html=1;" vertex="1" parent="klk1ivTHdH1H8QMOO06S-186">
          <mxGeometry y="390" width="240" height="30" as="geometry" />
        </mxCell>
        <mxCell id="klk1ivTHdH1H8QMOO06S-200" value="MESA" style="text;strokeColor=none;fillColor=none;align=left;verticalAlign=middle;spacingLeft=4;spacingRight=4;overflow=hidden;points=[[0,0.5],[1,0.5]];portConstraint=eastwest;rotatable=0;whiteSpace=wrap;html=1;" vertex="1" parent="klk1ivTHdH1H8QMOO06S-186">
          <mxGeometry y="420" width="240" height="30" as="geometry" />
        </mxCell>
        <mxCell id="klk1ivTHdH1H8QMOO06S-201" value="OASIS3" style="text;strokeColor=none;fillColor=none;align=left;verticalAlign=middle;spacingLeft=4;spacingRight=4;overflow=hidden;points=[[0,0.5],[1,0.5]];portConstraint=eastwest;rotatable=0;whiteSpace=wrap;html=1;" vertex="1" parent="klk1ivTHdH1H8QMOO06S-186">
          <mxGeometry y="450" width="240" height="30" as="geometry" />
        </mxCell>
        <mxCell id="klk1ivTHdH1H8QMOO06S-202" value="OASIS4" style="text;strokeColor=none;fillColor=none;align=left;verticalAlign=middle;spacingLeft=4;spacingRight=4;overflow=hidden;points=[[0,0.5],[1,0.5]];portConstraint=eastwest;rotatable=0;whiteSpace=wrap;html=1;" vertex="1" parent="klk1ivTHdH1H8QMOO06S-186">
          <mxGeometry y="480" width="240" height="30" as="geometry" />
        </mxCell>
        <mxCell id="klk1ivTHdH1H8QMOO06S-203" value="PENN" style="text;strokeColor=none;fillColor=none;align=left;verticalAlign=middle;spacingLeft=4;spacingRight=4;overflow=hidden;points=[[0,0.5],[1,0.5]];portConstraint=eastwest;rotatable=0;whiteSpace=wrap;html=1;" vertex="1" parent="klk1ivTHdH1H8QMOO06S-186">
          <mxGeometry y="510" width="240" height="30" as="geometry" />
        </mxCell>
        <mxCell id="klk1ivTHdH1H8QMOO06S-204" value="PreventAD" style="text;strokeColor=none;fillColor=none;align=left;verticalAlign=middle;spacingLeft=4;spacingRight=4;overflow=hidden;points=[[0,0.5],[1,0.5]];portConstraint=eastwest;rotatable=0;whiteSpace=wrap;html=1;" vertex="1" parent="klk1ivTHdH1H8QMOO06S-186">
          <mxGeometry y="540" width="240" height="30" as="geometry" />
        </mxCell>
        <mxCell id="klk1ivTHdH1H8QMOO06S-205" value="SHIP" style="text;strokeColor=none;fillColor=none;align=left;verticalAlign=middle;spacingLeft=4;spacingRight=4;overflow=hidden;points=[[0,0.5],[1,0.5]];portConstraint=eastwest;rotatable=0;whiteSpace=wrap;html=1;" vertex="1" parent="klk1ivTHdH1H8QMOO06S-186">
          <mxGeometry y="570" width="240" height="30" as="geometry" />
        </mxCell>
        <mxCell id="klk1ivTHdH1H8QMOO06S-206" value="SPRINT" style="text;strokeColor=none;fillColor=none;align=left;verticalAlign=middle;spacingLeft=4;spacingRight=4;overflow=hidden;points=[[0,0.5],[1,0.5]];portConstraint=eastwest;rotatable=0;whiteSpace=wrap;html=1;" vertex="1" parent="klk1ivTHdH1H8QMOO06S-186">
          <mxGeometry y="600" width="240" height="30" as="geometry" />
        </mxCell>
        <mxCell id="klk1ivTHdH1H8QMOO06S-207" value="UKBB" style="text;strokeColor=none;fillColor=none;align=left;verticalAlign=middle;spacingLeft=4;spacingRight=4;overflow=hidden;points=[[0,0.5],[1,0.5]];portConstraint=eastwest;rotatable=0;whiteSpace=wrap;html=1;" vertex="1" parent="klk1ivTHdH1H8QMOO06S-186">
          <mxGeometry y="630" width="240" height="30" as="geometry" />
        </mxCell>
        <mxCell id="klk1ivTHdH1H8QMOO06S-208" value="WHIMS" style="text;strokeColor=none;fillColor=none;align=left;verticalAlign=middle;spacingLeft=4;spacingRight=4;overflow=hidden;points=[[0,0.5],[1,0.5]];portConstraint=eastwest;rotatable=0;whiteSpace=wrap;html=1;" vertex="1" parent="klk1ivTHdH1H8QMOO06S-186">
          <mxGeometry y="660" width="240" height="30" as="geometry" />
        </mxCell>
        <mxCell id="klk1ivTHdH1H8QMOO06S-209" value="WRAP" style="text;strokeColor=none;fillColor=none;align=left;verticalAlign=middle;spacingLeft=4;spacingRight=4;overflow=hidden;points=[[0,0.5],[1,0.5]];portConstraint=eastwest;rotatable=0;whiteSpace=wrap;html=1;" vertex="1" parent="klk1ivTHdH1H8QMOO06S-186">
          <mxGeometry y="690" width="240" height="30" as="geometry" />
        </mxCell>
        <mxCell id="klk1ivTHdH1H8QMOO06S-55" value="Clinical_Data_Study" style="swimlane;fontStyle=0;childLayout=stackLayout;horizontal=1;startSize=30;horizontalStack=0;resizeParent=1;resizeParentMax=0;resizeLast=0;collapsible=1;marginBottom=0;whiteSpace=wrap;html=1;" vertex="1" parent="klk1ivTHdH1H8QMOO06S-4">
          <mxGeometry y="150" width="240" height="810" as="geometry">
            <mxRectangle y="150" width="240" height="30" as="alternateBounds" />
          </mxGeometry>
        </mxCell>
        <mxCell id="klk1ivTHdH1H8QMOO06S-56" value="Reference" style="text;strokeColor=none;fillColor=none;align=left;verticalAlign=middle;spacingLeft=4;spacingRight=4;overflow=hidden;points=[[0,0.5],[1,0.5]];portConstraint=eastwest;rotatable=0;whiteSpace=wrap;html=1;" vertex="1" parent="klk1ivTHdH1H8QMOO06S-55">
          <mxGeometry y="30" width="240" height="30" as="geometry" />
        </mxCell>
        <mxCell id="klk1ivTHdH1H8QMOO06S-57" value="Scripts" style="text;strokeColor=none;fillColor=none;align=left;verticalAlign=middle;spacingLeft=4;spacingRight=4;overflow=hidden;points=[[0,0.5],[1,0.5]];portConstraint=eastwest;rotatable=0;whiteSpace=wrap;html=1;" vertex="1" parent="klk1ivTHdH1H8QMOO06S-55">
          <mxGeometry y="60" width="240" height="30" as="geometry" />
        </mxCell>
        <mxCell id="klk1ivTHdH1H8QMOO06S-59" value="&amp;nbsp; Studies" style="swimlane;fontStyle=0;childLayout=stackLayout;horizontal=1;startSize=30;horizontalStack=0;resizeParent=1;resizeParentMax=0;resizeLast=0;collapsible=1;marginBottom=0;whiteSpace=wrap;html=1;align=left;" vertex="1" parent="klk1ivTHdH1H8QMOO06S-55">
          <mxGeometry y="90" width="240" height="720" as="geometry">
            <mxRectangle y="90" width="240" height="30" as="alternateBounds" />
          </mxGeometry>
        </mxCell>
        <mxCell id="klk1ivTHdH1H8QMOO06S-60" value="ACCORD" style="text;strokeColor=none;fillColor=none;align=left;verticalAlign=middle;spacingLeft=4;spacingRight=4;overflow=hidden;points=[[0,0.5],[1,0.5]];portConstraint=eastwest;rotatable=0;whiteSpace=wrap;html=1;" vertex="1" parent="klk1ivTHdH1H8QMOO06S-59">
          <mxGeometry y="30" width="240" height="30" as="geometry" />
        </mxCell>
        <mxCell id="klk1ivTHdH1H8QMOO06S-61" value="ADNI" style="text;strokeColor=none;fillColor=none;align=left;verticalAlign=middle;spacingLeft=4;spacingRight=4;overflow=hidden;points=[[0,0.5],[1,0.5]];portConstraint=eastwest;rotatable=0;whiteSpace=wrap;html=1;" vertex="1" parent="klk1ivTHdH1H8QMOO06S-59">
          <mxGeometry y="60" width="240" height="30" as="geometry" />
        </mxCell>
        <mxCell id="klk1ivTHdH1H8QMOO06S-62" value="AIBL" style="text;strokeColor=none;fillColor=none;align=left;verticalAlign=middle;spacingLeft=4;spacingRight=4;overflow=hidden;points=[[0,0.5],[1,0.5]];portConstraint=eastwest;rotatable=0;whiteSpace=wrap;html=1;" vertex="1" parent="klk1ivTHdH1H8QMOO06S-59">
          <mxGeometry y="90" width="240" height="30" as="geometry" />
        </mxCell>
        <mxCell id="klk1ivTHdH1H8QMOO06S-63" value="BIOCARD" style="text;strokeColor=none;fillColor=none;align=left;verticalAlign=middle;spacingLeft=4;spacingRight=4;overflow=hidden;points=[[0,0.5],[1,0.5]];portConstraint=eastwest;rotatable=0;whiteSpace=wrap;html=1;" vertex="1" parent="klk1ivTHdH1H8QMOO06S-59">
          <mxGeometry y="120" width="240" height="30" as="geometry" />
        </mxCell>
        <mxCell id="klk1ivTHdH1H8QMOO06S-64" value="BLSA" style="text;strokeColor=none;fillColor=none;align=left;verticalAlign=middle;spacingLeft=4;spacingRight=4;overflow=hidden;points=[[0,0.5],[1,0.5]];portConstraint=eastwest;rotatable=0;whiteSpace=wrap;html=1;" vertex="1" parent="klk1ivTHdH1H8QMOO06S-59">
          <mxGeometry y="150" width="240" height="30" as="geometry" />
        </mxCell>
        <mxCell id="klk1ivTHdH1H8QMOO06S-65" value="CARDIA" style="text;strokeColor=none;fillColor=none;align=left;verticalAlign=middle;spacingLeft=4;spacingRight=4;overflow=hidden;points=[[0,0.5],[1,0.5]];portConstraint=eastwest;rotatable=0;whiteSpace=wrap;html=1;" vertex="1" parent="klk1ivTHdH1H8QMOO06S-59">
          <mxGeometry y="180" width="240" height="30" as="geometry" />
        </mxCell>
        <mxCell id="klk1ivTHdH1H8QMOO06S-66" value="FITBIR" style="text;strokeColor=none;fillColor=none;align=left;verticalAlign=middle;spacingLeft=4;spacingRight=4;overflow=hidden;points=[[0,0.5],[1,0.5]];portConstraint=eastwest;rotatable=0;whiteSpace=wrap;html=1;" vertex="1" parent="klk1ivTHdH1H8QMOO06S-59">
          <mxGeometry y="210" width="240" height="30" as="geometry" />
        </mxCell>
        <mxCell id="klk1ivTHdH1H8QMOO06S-67" value="GSP" style="text;strokeColor=none;fillColor=none;align=left;verticalAlign=middle;spacingLeft=4;spacingRight=4;overflow=hidden;points=[[0,0.5],[1,0.5]];portConstraint=eastwest;rotatable=0;whiteSpace=wrap;html=1;" vertex="1" parent="klk1ivTHdH1H8QMOO06S-59">
          <mxGeometry y="240" width="240" height="30" as="geometry" />
        </mxCell>
        <mxCell id="klk1ivTHdH1H8QMOO06S-68" value="HABS" style="text;strokeColor=none;fillColor=none;align=left;verticalAlign=middle;spacingLeft=4;spacingRight=4;overflow=hidden;points=[[0,0.5],[1,0.5]];portConstraint=eastwest;rotatable=0;whiteSpace=wrap;html=1;" vertex="1" parent="klk1ivTHdH1H8QMOO06S-59">
          <mxGeometry y="270" width="240" height="30" as="geometry" />
        </mxCell>
        <mxCell id="klk1ivTHdH1H8QMOO06S-69" value="HANDLS" style="text;strokeColor=none;fillColor=none;align=left;verticalAlign=middle;spacingLeft=4;spacingRight=4;overflow=hidden;points=[[0,0.5],[1,0.5]];portConstraint=eastwest;rotatable=0;whiteSpace=wrap;html=1;" vertex="1" parent="klk1ivTHdH1H8QMOO06S-59">
          <mxGeometry y="300" width="240" height="30" as="geometry" />
        </mxCell>
        <mxCell id="klk1ivTHdH1H8QMOO06S-70" value="HCP-Aging" style="text;strokeColor=none;fillColor=none;align=left;verticalAlign=middle;spacingLeft=4;spacingRight=4;overflow=hidden;points=[[0,0.5],[1,0.5]];portConstraint=eastwest;rotatable=0;whiteSpace=wrap;html=1;" vertex="1" parent="klk1ivTHdH1H8QMOO06S-59">
          <mxGeometry y="330" width="240" height="30" as="geometry" />
        </mxCell>
        <mxCell id="klk1ivTHdH1H8QMOO06S-71" value="HCP-YA" style="text;strokeColor=none;fillColor=none;align=left;verticalAlign=middle;spacingLeft=4;spacingRight=4;overflow=hidden;points=[[0,0.5],[1,0.5]];portConstraint=eastwest;rotatable=0;whiteSpace=wrap;html=1;" vertex="1" parent="klk1ivTHdH1H8QMOO06S-59">
          <mxGeometry y="360" width="240" height="30" as="geometry" />
        </mxCell>
        <mxCell id="klk1ivTHdH1H8QMOO06S-83" value="LookAHEAD" style="text;strokeColor=none;fillColor=none;align=left;verticalAlign=middle;spacingLeft=4;spacingRight=4;overflow=hidden;points=[[0,0.5],[1,0.5]];portConstraint=eastwest;rotatable=0;whiteSpace=wrap;html=1;" vertex="1" parent="klk1ivTHdH1H8QMOO06S-59">
          <mxGeometry y="390" width="240" height="30" as="geometry" />
        </mxCell>
        <mxCell id="klk1ivTHdH1H8QMOO06S-72" value="MESA" style="text;strokeColor=none;fillColor=none;align=left;verticalAlign=middle;spacingLeft=4;spacingRight=4;overflow=hidden;points=[[0,0.5],[1,0.5]];portConstraint=eastwest;rotatable=0;whiteSpace=wrap;html=1;" vertex="1" parent="klk1ivTHdH1H8QMOO06S-59">
          <mxGeometry y="420" width="240" height="30" as="geometry" />
        </mxCell>
        <mxCell id="klk1ivTHdH1H8QMOO06S-73" value="OASIS3" style="text;strokeColor=none;fillColor=none;align=left;verticalAlign=middle;spacingLeft=4;spacingRight=4;overflow=hidden;points=[[0,0.5],[1,0.5]];portConstraint=eastwest;rotatable=0;whiteSpace=wrap;html=1;" vertex="1" parent="klk1ivTHdH1H8QMOO06S-59">
          <mxGeometry y="450" width="240" height="30" as="geometry" />
        </mxCell>
        <mxCell id="klk1ivTHdH1H8QMOO06S-74" value="OASIS4" style="text;strokeColor=none;fillColor=none;align=left;verticalAlign=middle;spacingLeft=4;spacingRight=4;overflow=hidden;points=[[0,0.5],[1,0.5]];portConstraint=eastwest;rotatable=0;whiteSpace=wrap;html=1;" vertex="1" parent="klk1ivTHdH1H8QMOO06S-59">
          <mxGeometry y="480" width="240" height="30" as="geometry" />
        </mxCell>
        <mxCell id="klk1ivTHdH1H8QMOO06S-75" value="PENN" style="text;strokeColor=none;fillColor=none;align=left;verticalAlign=middle;spacingLeft=4;spacingRight=4;overflow=hidden;points=[[0,0.5],[1,0.5]];portConstraint=eastwest;rotatable=0;whiteSpace=wrap;html=1;" vertex="1" parent="klk1ivTHdH1H8QMOO06S-59">
          <mxGeometry y="510" width="240" height="30" as="geometry" />
        </mxCell>
        <mxCell id="klk1ivTHdH1H8QMOO06S-76" value="PreventAD" style="text;strokeColor=none;fillColor=none;align=left;verticalAlign=middle;spacingLeft=4;spacingRight=4;overflow=hidden;points=[[0,0.5],[1,0.5]];portConstraint=eastwest;rotatable=0;whiteSpace=wrap;html=1;" vertex="1" parent="klk1ivTHdH1H8QMOO06S-59">
          <mxGeometry y="540" width="240" height="30" as="geometry" />
        </mxCell>
        <mxCell id="klk1ivTHdH1H8QMOO06S-77" value="SHIP" style="text;strokeColor=none;fillColor=none;align=left;verticalAlign=middle;spacingLeft=4;spacingRight=4;overflow=hidden;points=[[0,0.5],[1,0.5]];portConstraint=eastwest;rotatable=0;whiteSpace=wrap;html=1;" vertex="1" parent="klk1ivTHdH1H8QMOO06S-59">
          <mxGeometry y="570" width="240" height="30" as="geometry" />
        </mxCell>
        <mxCell id="klk1ivTHdH1H8QMOO06S-78" value="SPRINT" style="text;strokeColor=none;fillColor=none;align=left;verticalAlign=middle;spacingLeft=4;spacingRight=4;overflow=hidden;points=[[0,0.5],[1,0.5]];portConstraint=eastwest;rotatable=0;whiteSpace=wrap;html=1;" vertex="1" parent="klk1ivTHdH1H8QMOO06S-59">
          <mxGeometry y="600" width="240" height="30" as="geometry" />
        </mxCell>
        <mxCell id="klk1ivTHdH1H8QMOO06S-79" value="UKBB" style="text;strokeColor=none;fillColor=none;align=left;verticalAlign=middle;spacingLeft=4;spacingRight=4;overflow=hidden;points=[[0,0.5],[1,0.5]];portConstraint=eastwest;rotatable=0;whiteSpace=wrap;html=1;" vertex="1" parent="klk1ivTHdH1H8QMOO06S-59">
          <mxGeometry y="630" width="240" height="30" as="geometry" />
        </mxCell>
        <mxCell id="klk1ivTHdH1H8QMOO06S-80" value="WHIMS" style="text;strokeColor=none;fillColor=none;align=left;verticalAlign=middle;spacingLeft=4;spacingRight=4;overflow=hidden;points=[[0,0.5],[1,0.5]];portConstraint=eastwest;rotatable=0;whiteSpace=wrap;html=1;" vertex="1" parent="klk1ivTHdH1H8QMOO06S-59">
          <mxGeometry y="660" width="240" height="30" as="geometry" />
        </mxCell>
        <mxCell id="klk1ivTHdH1H8QMOO06S-81" value="WRAP" style="text;strokeColor=none;fillColor=none;align=left;verticalAlign=middle;spacingLeft=4;spacingRight=4;overflow=hidden;points=[[0,0.5],[1,0.5]];portConstraint=eastwest;rotatable=0;whiteSpace=wrap;html=1;" vertex="1" parent="klk1ivTHdH1H8QMOO06S-59">
          <mxGeometry y="690" width="240" height="30" as="geometry" />
        </mxCell>
        <mxCell id="klk1ivTHdH1H8QMOO06S-210" value="Clinical_Data_MRI" style="swimlane;fontStyle=0;childLayout=stackLayout;horizontal=1;startSize=30;horizontalStack=0;resizeParent=1;resizeParentMax=0;resizeLast=0;collapsible=1;marginBottom=0;whiteSpace=wrap;html=1;strokeColor=default;align=center;verticalAlign=middle;fontFamily=Helvetica;fontSize=12;fontColor=default;fillColor=default;" vertex="1" collapsed="1" parent="klk1ivTHdH1H8QMOO06S-4">
          <mxGeometry y="960" width="240" height="30" as="geometry">
            <mxRectangle y="960" width="240" height="60" as="alternateBounds" />
          </mxGeometry>
        </mxCell>
        <mxCell id="klk1ivTHdH1H8QMOO06S-218" value="QC (TBA)" style="swimlane;fontStyle=0;childLayout=stackLayout;horizontal=1;startSize=30;horizontalStack=0;resizeParent=1;resizeParentMax=0;resizeLast=0;collapsible=1;marginBottom=0;whiteSpace=wrap;html=1;strokeColor=default;align=center;verticalAlign=middle;fontFamily=Helvetica;fontSize=12;fontColor=default;fillColor=default;" vertex="1" collapsed="1" parent="klk1ivTHdH1H8QMOO06S-4">
          <mxGeometry y="990" width="240" height="30" as="geometry">
            <mxRectangle y="1020" width="240" height="60" as="alternateBounds" />
          </mxGeometry>
        </mxCell>
        <mxCell id="klk1ivTHdH1H8QMOO06S-10" value="AWS" style="swimlane;fontStyle=0;childLayout=stackLayout;horizontal=1;startSize=30;horizontalStack=0;resizeParent=1;resizeParentMax=0;resizeLast=0;collapsible=1;marginBottom=0;whiteSpace=wrap;html=1;fillColor=#f0a30a;fontColor=#000000;strokeColor=#BD7000;" vertex="1" parent="1">
          <mxGeometry x="-2620" y="730" width="240" height="270" as="geometry" />
        </mxCell>
        <mxCell id="klk1ivTHdH1H8QMOO06S-30" value="Module 1: Segmentation" style="swimlane;fontStyle=0;childLayout=stackLayout;horizontal=1;startSize=30;horizontalStack=0;resizeParent=1;resizeParentMax=0;resizeLast=0;collapsible=1;marginBottom=0;whiteSpace=wrap;html=1;" vertex="1" parent="klk1ivTHdH1H8QMOO06S-10">
          <mxGeometry y="30" width="240" height="120" as="geometry">
            <mxRectangle y="30" width="200" height="30" as="alternateBounds" />
          </mxGeometry>
        </mxCell>
        <mxCell id="klk1ivTHdH1H8QMOO06S-31" value="S3 Bucket (Object Storage)" style="text;strokeColor=none;fillColor=none;align=left;verticalAlign=middle;spacingLeft=4;spacingRight=4;overflow=hidden;points=[[0,0.5],[1,0.5]];portConstraint=eastwest;rotatable=0;whiteSpace=wrap;html=1;" vertex="1" parent="klk1ivTHdH1H8QMOO06S-30">
          <mxGeometry y="30" width="240" height="30" as="geometry" />
        </mxCell>
        <mxCell id="klk1ivTHdH1H8QMOO06S-32" value="AWS Batch (Batch processing)" style="text;strokeColor=none;fillColor=none;align=left;verticalAlign=middle;spacingLeft=4;spacingRight=4;overflow=hidden;points=[[0,0.5],[1,0.5]];portConstraint=eastwest;rotatable=0;whiteSpace=wrap;html=1;" vertex="1" parent="klk1ivTHdH1H8QMOO06S-30">
          <mxGeometry y="60" width="240" height="30" as="geometry" />
        </mxCell>
        <mxCell id="klk1ivTHdH1H8QMOO06S-33" value="AWS Lambda (Serverless compute)" style="text;strokeColor=none;fillColor=none;align=left;verticalAlign=middle;spacingLeft=4;spacingRight=4;overflow=hidden;points=[[0,0.5],[1,0.5]];portConstraint=eastwest;rotatable=0;whiteSpace=wrap;html=1;" vertex="1" parent="klk1ivTHdH1H8QMOO06S-30">
          <mxGeometry y="90" width="240" height="30" as="geometry" />
        </mxCell>
        <mxCell id="klk1ivTHdH1H8QMOO06S-42" value="Module 2: ML Pipeline / Scores" style="swimlane;fontStyle=0;childLayout=stackLayout;horizontal=1;startSize=30;horizontalStack=0;resizeParent=1;resizeParentMax=0;resizeLast=0;collapsible=1;marginBottom=0;whiteSpace=wrap;html=1;" vertex="1" parent="klk1ivTHdH1H8QMOO06S-10">
          <mxGeometry y="150" width="240" height="120" as="geometry">
            <mxRectangle y="60" width="200" height="30" as="alternateBounds" />
          </mxGeometry>
        </mxCell>
        <mxCell id="klk1ivTHdH1H8QMOO06S-43" value="S3 Bucket (Object Storage)" style="text;strokeColor=none;fillColor=none;align=left;verticalAlign=middle;spacingLeft=4;spacingRight=4;overflow=hidden;points=[[0,0.5],[1,0.5]];portConstraint=eastwest;rotatable=0;whiteSpace=wrap;html=1;" vertex="1" parent="klk1ivTHdH1H8QMOO06S-42">
          <mxGeometry y="30" width="240" height="30" as="geometry" />
        </mxCell>
        <mxCell id="klk1ivTHdH1H8QMOO06S-44" value="AWS Batch (Batch processing)" style="text;strokeColor=none;fillColor=none;align=left;verticalAlign=middle;spacingLeft=4;spacingRight=4;overflow=hidden;points=[[0,0.5],[1,0.5]];portConstraint=eastwest;rotatable=0;whiteSpace=wrap;html=1;" vertex="1" parent="klk1ivTHdH1H8QMOO06S-42">
          <mxGeometry y="60" width="240" height="30" as="geometry" />
        </mxCell>
        <mxCell id="klk1ivTHdH1H8QMOO06S-45" value="AWS Lambda (Serverless compute)" style="text;strokeColor=none;fillColor=none;align=left;verticalAlign=middle;spacingLeft=4;spacingRight=4;overflow=hidden;points=[[0,0.5],[1,0.5]];portConstraint=eastwest;rotatable=0;whiteSpace=wrap;html=1;" vertex="1" parent="klk1ivTHdH1H8QMOO06S-42">
          <mxGeometry y="90" width="240" height="30" as="geometry" />
        </mxCell>
        <mxCell id="klk1ivTHdH1H8QMOO06S-26" value="Internal Data (CBICA" style="swimlane;fontStyle=0;childLayout=stackLayout;horizontal=1;startSize=30;horizontalStack=0;resizeParent=1;resizeParentMax=0;resizeLast=0;collapsible=1;marginBottom=0;whiteSpace=wrap;html=1;fillColor=#e3c800;fontColor=#000000;strokeColor=#B09500;" vertex="1" parent="1">
          <mxGeometry x="-3000" y="1190" width="140" height="90" as="geometry" />
        </mxCell>
        <mxCell id="klk1ivTHdH1H8QMOO06S-28" value="ISTAGING Consortium" style="text;strokeColor=none;fillColor=none;align=left;verticalAlign=middle;spacingLeft=4;spacingRight=4;overflow=hidden;points=[[0,0.5],[1,0.5]];portConstraint=eastwest;rotatable=0;whiteSpace=wrap;html=1;" vertex="1" parent="klk1ivTHdH1H8QMOO06S-26">
          <mxGeometry y="30" width="140" height="30" as="geometry" />
        </mxCell>
        <mxCell id="klk1ivTHdH1H8QMOO06S-29" value="ISTAGING Clinical" style="text;strokeColor=none;fillColor=none;align=left;verticalAlign=middle;spacingLeft=4;spacingRight=4;overflow=hidden;points=[[0,0.5],[1,0.5]];portConstraint=eastwest;rotatable=0;whiteSpace=wrap;html=1;" vertex="1" parent="klk1ivTHdH1H8QMOO06S-26">
          <mxGeometry y="60" width="140" height="30" as="geometry" />
        </mxCell>
        <mxCell id="klk1ivTHdH1H8QMOO06S-108" value="PyPI" style="rounded=0;whiteSpace=wrap;html=1;fillColor=#60a917;fontColor=#ffffff;strokeColor=#2D7600;" vertex="1" parent="1">
          <mxGeometry x="-3010" y="1340" width="160" height="30" as="geometry" />
        </mxCell>
        <mxCell id="klk1ivTHdH1H8QMOO06S-109" value="DockerHub" style="swimlane;fontStyle=0;childLayout=stackLayout;horizontal=1;startSize=30;horizontalStack=0;resizeParent=1;resizeParentMax=0;resizeLast=0;collapsible=1;marginBottom=0;whiteSpace=wrap;html=1;fillColor=#1ba1e2;strokeColor=#006EAF;fontColor=#ffffff;" vertex="1" parent="1">
          <mxGeometry x="-3010" y="1400" width="160" height="120" as="geometry" />
        </mxCell>
        <mxCell id="klk1ivTHdH1H8QMOO06S-110" value="DLMUSE" style="text;strokeColor=none;fillColor=none;align=left;verticalAlign=middle;spacingLeft=4;spacingRight=4;overflow=hidden;points=[[0,0.5],[1,0.5]];portConstraint=eastwest;rotatable=0;whiteSpace=wrap;html=1;" vertex="1" parent="klk1ivTHdH1H8QMOO06S-109">
          <mxGeometry y="30" width="160" height="30" as="geometry" />
        </mxCell>
        <mxCell id="klk1ivTHdH1H8QMOO06S-111" value="Spare_Score" style="text;strokeColor=none;fillColor=none;align=left;verticalAlign=middle;spacingLeft=4;spacingRight=4;overflow=hidden;points=[[0,0.5],[1,0.5]];portConstraint=eastwest;rotatable=0;whiteSpace=wrap;html=1;" vertex="1" parent="klk1ivTHdH1H8QMOO06S-109">
          <mxGeometry y="60" width="160" height="30" as="geometry" />
        </mxCell>
        <mxCell id="klk1ivTHdH1H8QMOO06S-112" value="SurrealGAN (TBA)" style="text;strokeColor=none;fillColor=none;align=left;verticalAlign=middle;spacingLeft=4;spacingRight=4;overflow=hidden;points=[[0,0.5],[1,0.5]];portConstraint=eastwest;rotatable=0;whiteSpace=wrap;html=1;" vertex="1" parent="klk1ivTHdH1H8QMOO06S-109">
          <mxGeometry y="90" width="160" height="30" as="geometry" />
        </mxCell>
        <mxCell id="klk1ivTHdH1H8QMOO06S-113" value="" style="rounded=0;whiteSpace=wrap;html=1;fontFamily=Helvetica;fontSize=11;fontColor=default;fillColor=#007FFF;fillStyle=dashed;opacity=40;" vertex="1" parent="1">
          <mxGeometry x="-600" y="713" width="400" height="1610" as="geometry" />
        </mxCell>
        <mxCell id="klk1ivTHdH1H8QMOO06S-114" value="NiChart Website (frontend)" style="swimlane;fontStyle=0;childLayout=stackLayout;horizontal=1;startSize=30;horizontalStack=0;resizeParent=1;resizeParentMax=0;resizeLast=0;collapsible=1;marginBottom=0;whiteSpace=wrap;html=1;fillColor=#0050ef;fontColor=#ffffff;strokeColor=#001DBC;" vertex="1" parent="1">
          <mxGeometry x="-3060" y="730" width="240" height="360" as="geometry" />
        </mxCell>
        <mxCell id="klk1ivTHdH1H8QMOO06S-122" value="Module 1: Segmentation" style="swimlane;fontStyle=0;childLayout=stackLayout;horizontal=1;startSize=30;horizontalStack=0;resizeParent=1;resizeParentMax=0;resizeLast=0;collapsible=1;marginBottom=0;whiteSpace=wrap;html=1;fillColor=#d5e8d4;strokeColor=#82b366;" vertex="1" parent="klk1ivTHdH1H8QMOO06S-114">
          <mxGeometry y="30" width="240" height="90" as="geometry">
            <mxRectangle y="30" width="240" height="30" as="alternateBounds" />
          </mxGeometry>
        </mxCell>
        <mxCell id="klk1ivTHdH1H8QMOO06S-124" value="Input" style="text;strokeColor=none;fillColor=none;align=right;verticalAlign=middle;spacingLeft=4;spacingRight=4;overflow=hidden;points=[[0,0.5],[1,0.5]];portConstraint=eastwest;rotatable=0;whiteSpace=wrap;html=1;" vertex="1" parent="klk1ivTHdH1H8QMOO06S-122">
          <mxGeometry y="30" width="240" height="30" as="geometry" />
        </mxCell>
        <mxCell id="klk1ivTHdH1H8QMOO06S-125" value="Output" style="text;strokeColor=none;fillColor=none;align=right;verticalAlign=middle;spacingLeft=4;spacingRight=4;overflow=hidden;points=[[0,0.5],[1,0.5]];portConstraint=eastwest;rotatable=0;whiteSpace=wrap;html=1;strokeWidth=0.5;" vertex="1" parent="klk1ivTHdH1H8QMOO06S-122">
          <mxGeometry y="60" width="240" height="30" as="geometry" />
        </mxCell>
        <mxCell id="klk1ivTHdH1H8QMOO06S-126" value="Module 2: ML Pipeline / Scores" style="swimlane;fontStyle=0;childLayout=stackLayout;horizontal=1;startSize=30;horizontalStack=0;resizeParent=1;resizeParentMax=0;resizeLast=0;collapsible=1;marginBottom=0;whiteSpace=wrap;html=1;fillColor=#dae8fc;strokeColor=#6c8ebf;" vertex="1" parent="klk1ivTHdH1H8QMOO06S-114">
          <mxGeometry y="120" width="240" height="90" as="geometry">
            <mxRectangle y="60" width="240" height="30" as="alternateBounds" />
          </mxGeometry>
        </mxCell>
        <mxCell id="klk1ivTHdH1H8QMOO06S-127" value="Input" style="text;strokeColor=none;fillColor=none;align=right;verticalAlign=middle;spacingLeft=4;spacingRight=4;overflow=hidden;points=[[0,0.5],[1,0.5]];portConstraint=eastwest;rotatable=0;whiteSpace=wrap;html=1;" vertex="1" parent="klk1ivTHdH1H8QMOO06S-126">
          <mxGeometry y="30" width="240" height="30" as="geometry" />
        </mxCell>
        <mxCell id="klk1ivTHdH1H8QMOO06S-128" value="Output" style="text;strokeColor=none;fillColor=none;align=right;verticalAlign=middle;spacingLeft=4;spacingRight=4;overflow=hidden;points=[[0,0.5],[1,0.5]];portConstraint=eastwest;rotatable=0;whiteSpace=wrap;html=1;strokeWidth=0.5;" vertex="1" parent="klk1ivTHdH1H8QMOO06S-126">
          <mxGeometry y="60" width="240" height="30" as="geometry" />
        </mxCell>
        <mxCell id="klk1ivTHdH1H8QMOO06S-129" value="Module 3: Visualization (local)" style="swimlane;fontStyle=0;childLayout=stackLayout;horizontal=1;startSize=30;horizontalStack=0;resizeParent=1;resizeParentMax=0;resizeLast=0;collapsible=1;marginBottom=0;whiteSpace=wrap;html=1;fillColor=#fff2cc;strokeColor=#d6b656;" vertex="1" parent="klk1ivTHdH1H8QMOO06S-114">
          <mxGeometry y="210" width="240" height="120" as="geometry">
            <mxRectangle y="30" width="200" height="30" as="alternateBounds" />
          </mxGeometry>
        </mxCell>
        <mxCell id="klk1ivTHdH1H8QMOO06S-130" value="Input" style="text;strokeColor=none;fillColor=none;align=right;verticalAlign=middle;spacingLeft=4;spacingRight=4;overflow=hidden;points=[[0,0.5],[1,0.5]];portConstraint=eastwest;rotatable=0;whiteSpace=wrap;html=1;" vertex="1" parent="klk1ivTHdH1H8QMOO06S-129">
          <mxGeometry y="30" width="240" height="30" as="geometry" />
        </mxCell>
        <mxCell id="klk1ivTHdH1H8QMOO06S-132" value="Visualization function" style="text;strokeColor=none;fillColor=none;align=right;verticalAlign=middle;spacingLeft=4;spacingRight=4;overflow=hidden;points=[[0,0.5],[1,0.5]];portConstraint=eastwest;rotatable=0;whiteSpace=wrap;html=1;strokeWidth=0.5;" vertex="1" parent="klk1ivTHdH1H8QMOO06S-129">
          <mxGeometry y="60" width="240" height="30" as="geometry" />
        </mxCell>
        <mxCell id="klk1ivTHdH1H8QMOO06S-131" value="Output" style="text;strokeColor=none;fillColor=none;align=right;verticalAlign=middle;spacingLeft=4;spacingRight=4;overflow=hidden;points=[[0,0.5],[1,0.5]];portConstraint=eastwest;rotatable=0;whiteSpace=wrap;html=1;" vertex="1" parent="klk1ivTHdH1H8QMOO06S-129">
          <mxGeometry y="90" width="240" height="30" as="geometry" />
        </mxCell>
        <mxCell id="klk1ivTHdH1H8QMOO06S-182" style="edgeStyle=orthogonalEdgeStyle;rounded=0;orthogonalLoop=1;jettySize=auto;html=1;entryX=0;entryY=0.5;entryDx=0;entryDy=0;fontFamily=Helvetica;fontSize=12;fontColor=default;startSize=30;" edge="1" parent="klk1ivTHdH1H8QMOO06S-114" source="klk1ivTHdH1H8QMOO06S-115" target="klk1ivTHdH1H8QMOO06S-132">
          <mxGeometry relative="1" as="geometry" />
        </mxCell>
        <mxCell id="klk1ivTHdH1H8QMOO06S-115" value="Reference Data" style="text;strokeColor=#666666;fillColor=#f5f5f5;align=center;verticalAlign=middle;spacingLeft=4;spacingRight=4;overflow=hidden;points=[[0,0.5],[1,0.5]];portConstraint=eastwest;rotatable=0;whiteSpace=wrap;html=1;fontColor=#333333;" vertex="1" parent="klk1ivTHdH1H8QMOO06S-114">
          <mxGeometry y="330" width="240" height="30" as="geometry" />
        </mxCell>
      </root>
    </mxGraphModel>
  </diagram>
  <diagram id="cHSa7X14_8NsHsQTJBEa" name="NiChart Data">
    <mxGraphModel dx="2963" dy="183" grid="1" gridSize="10" guides="1" tooltips="1" connect="1" arrows="1" fold="1" page="0" pageScale="1" pageWidth="850" pageHeight="1100" math="0" shadow="0">
      <root>
        <mxCell id="0" />
        <mxCell id="1" parent="0" />
        <mxCell id="i57yBYP4YpkLfWuTjgx--1" value="" style="rounded=0;whiteSpace=wrap;html=1;fontFamily=Helvetica;fontSize=11;fontColor=default;fillColor=none;" parent="1" vertex="1">
          <mxGeometry x="60" y="1810" width="3320" height="1740" as="geometry" />
        </mxCell>
        <mxCell id="i57yBYP4YpkLfWuTjgx--2" value="&lt;h1&gt;NiChart - Data&lt;/h1&gt;" style="text;html=1;strokeColor=none;fillColor=none;spacing=5;spacingTop=-20;whiteSpace=wrap;overflow=hidden;rounded=0;" parent="1" vertex="1">
          <mxGeometry x="70" y="1760" width="340" height="40" as="geometry" />
        </mxCell>
        <mxCell id="i57yBYP4YpkLfWuTjgx--3" value="" style="rounded=0;whiteSpace=wrap;html=1;fillColor=none;" parent="1" vertex="1">
          <mxGeometry x="80" y="1880" width="1210" height="1650" as="geometry" />
        </mxCell>
        <mxCell id="i57yBYP4YpkLfWuTjgx--4" value="" style="rounded=0;whiteSpace=wrap;html=1;fillColor=none;" parent="1" vertex="1">
          <mxGeometry x="170" y="2220" width="1070" height="420" as="geometry" />
        </mxCell>
        <mxCell id="i57yBYP4YpkLfWuTjgx--5" value="" style="rounded=0;whiteSpace=wrap;html=1;fillColor=none;" parent="1" vertex="1">
          <mxGeometry x="160" y="2230" width="1070" height="420" as="geometry" />
        </mxCell>
        <mxCell id="i57yBYP4YpkLfWuTjgx--6" value="" style="rounded=0;whiteSpace=wrap;html=1;fillColor=none;" parent="1" vertex="1">
          <mxGeometry x="1490" y="2030" width="1870" height="1500" as="geometry" />
        </mxCell>
        <mxCell id="i57yBYP4YpkLfWuTjgx--7" value="" style="rounded=0;whiteSpace=wrap;html=1;fillColor=none;" parent="1" vertex="1">
          <mxGeometry x="150" y="2240" width="1070" height="420" as="geometry" />
        </mxCell>
        <mxCell id="i57yBYP4YpkLfWuTjgx--8" value="" style="rounded=0;whiteSpace=wrap;html=1;fillColor=none;" parent="1" vertex="1">
          <mxGeometry x="1610" y="2620" width="1670" height="410" as="geometry" />
        </mxCell>
        <mxCell id="i57yBYP4YpkLfWuTjgx--9" value="" style="rounded=0;whiteSpace=wrap;html=1;fillColor=none;" parent="1" vertex="1">
          <mxGeometry x="1600" y="2630" width="1670" height="410" as="geometry" />
        </mxCell>
        <mxCell id="i57yBYP4YpkLfWuTjgx--10" value="" style="rounded=0;whiteSpace=wrap;html=1;fillColor=none;" parent="1" vertex="1">
          <mxGeometry x="1590" y="2640" width="1670" height="410" as="geometry" />
        </mxCell>
        <mxCell id="i57yBYP4YpkLfWuTjgx--11" value="&lt;h1&gt;/scripts/&lt;/h1&gt;" style="text;html=1;strokeColor=none;fillColor=none;spacing=5;spacingTop=-20;whiteSpace=wrap;overflow=hidden;rounded=0;align=center;" parent="1" vertex="1">
          <mxGeometry x="1600" y="2360" width="130" height="40" as="geometry" />
        </mxCell>
        <mxCell id="i57yBYP4YpkLfWuTjgx--12" style="edgeStyle=orthogonalEdgeStyle;rounded=0;orthogonalLoop=1;jettySize=auto;html=1;" parent="1" source="i57yBYP4YpkLfWuTjgx--13" target="i57yBYP4YpkLfWuTjgx--50" edge="1">
          <mxGeometry relative="1" as="geometry" />
        </mxCell>
        <mxCell id="i57yBYP4YpkLfWuTjgx--13" value="step1_init_data" style="swimlane;fontStyle=0;childLayout=stackLayout;horizontal=1;startSize=30;horizontalStack=0;resizeParent=1;resizeParentMax=0;resizeLast=0;collapsible=1;marginBottom=0;whiteSpace=wrap;html=1;" parent="1" vertex="1">
          <mxGeometry x="1750" y="2360" width="190" height="210" as="geometry" />
        </mxCell>
        <mxCell id="i57yBYP4YpkLfWuTjgx--14" value="s1_copy_init_data.sh" style="text;strokeColor=none;fillColor=none;align=left;verticalAlign=middle;spacingLeft=4;spacingRight=4;overflow=hidden;points=[[0,0.5],[1,0.5]];portConstraint=eastwest;rotatable=0;whiteSpace=wrap;html=1;" parent="i57yBYP4YpkLfWuTjgx--13" vertex="1">
          <mxGeometry y="30" width="190" height="30" as="geometry" />
        </mxCell>
        <mxCell id="i57yBYP4YpkLfWuTjgx--15" value="s1_TMP_copy_data_dx.sh" style="text;strokeColor=none;fillColor=none;align=left;verticalAlign=middle;spacingLeft=4;spacingRight=4;overflow=hidden;points=[[0,0.5],[1,0.5]];portConstraint=eastwest;rotatable=0;whiteSpace=wrap;html=1;" parent="i57yBYP4YpkLfWuTjgx--13" vertex="1">
          <mxGeometry y="60" width="190" height="30" as="geometry" />
        </mxCell>
        <mxCell id="i57yBYP4YpkLfWuTjgx--16" value="s1_TMP_copy_data_race.sh" style="text;strokeColor=none;fillColor=none;align=left;verticalAlign=middle;spacingLeft=4;spacingRight=4;overflow=hidden;points=[[0,0.5],[1,0.5]];portConstraint=eastwest;rotatable=0;whiteSpace=wrap;html=1;" parent="i57yBYP4YpkLfWuTjgx--13" vertex="1">
          <mxGeometry y="90" width="190" height="30" as="geometry" />
        </mxCell>
        <mxCell id="i57yBYP4YpkLfWuTjgx--17" value="s1_TMP_copy_data_race.sh" style="text;strokeColor=none;fillColor=none;align=left;verticalAlign=middle;spacingLeft=4;spacingRight=4;overflow=hidden;points=[[0,0.5],[1,0.5]];portConstraint=eastwest;rotatable=0;whiteSpace=wrap;html=1;" parent="i57yBYP4YpkLfWuTjgx--13" vertex="1">
          <mxGeometry y="120" width="190" height="30" as="geometry" />
        </mxCell>
        <mxCell id="i57yBYP4YpkLfWuTjgx--18" value="util_filter_to_subsampled.py" style="text;strokeColor=none;fillColor=none;align=left;verticalAlign=middle;spacingLeft=4;spacingRight=4;overflow=hidden;points=[[0,0.5],[1,0.5]];portConstraint=eastwest;rotatable=0;whiteSpace=wrap;html=1;" parent="i57yBYP4YpkLfWuTjgx--13" vertex="1">
          <mxGeometry y="150" width="190" height="30" as="geometry" />
        </mxCell>
        <mxCell id="i57yBYP4YpkLfWuTjgx--19" value="util_subsample_data.py" style="text;strokeColor=none;fillColor=none;align=left;verticalAlign=middle;spacingLeft=4;spacingRight=4;overflow=hidden;points=[[0,0.5],[1,0.5]];portConstraint=eastwest;rotatable=0;whiteSpace=wrap;html=1;" parent="i57yBYP4YpkLfWuTjgx--13" vertex="1">
          <mxGeometry y="180" width="190" height="30" as="geometry" />
        </mxCell>
        <mxCell id="i57yBYP4YpkLfWuTjgx--20" style="edgeStyle=orthogonalEdgeStyle;rounded=0;orthogonalLoop=1;jettySize=auto;html=1;entryX=0.5;entryY=0;entryDx=0;entryDy=0;" parent="1" source="i57yBYP4YpkLfWuTjgx--21" target="i57yBYP4YpkLfWuTjgx--69" edge="1">
          <mxGeometry relative="1" as="geometry" />
        </mxCell>
        <mxCell id="i57yBYP4YpkLfWuTjgx--21" value="step2_corr_icv" style="swimlane;fontStyle=0;childLayout=stackLayout;horizontal=1;startSize=30;horizontalStack=0;resizeParent=1;resizeParentMax=0;resizeLast=0;collapsible=1;marginBottom=0;whiteSpace=wrap;html=1;" parent="1" vertex="1">
          <mxGeometry x="1990" y="2360" width="190" height="90" as="geometry" />
        </mxCell>
        <mxCell id="i57yBYP4YpkLfWuTjgx--22" value="s1_corr_ICV.sh" style="text;strokeColor=none;fillColor=none;align=left;verticalAlign=middle;spacingLeft=4;spacingRight=4;overflow=hidden;points=[[0,0.5],[1,0.5]];portConstraint=eastwest;rotatable=0;whiteSpace=wrap;html=1;" parent="i57yBYP4YpkLfWuTjgx--21" vertex="1">
          <mxGeometry y="30" width="190" height="30" as="geometry" />
        </mxCell>
        <mxCell id="i57yBYP4YpkLfWuTjgx--23" value="util_corr_icv.py" style="text;strokeColor=none;fillColor=none;align=left;verticalAlign=middle;spacingLeft=4;spacingRight=4;overflow=hidden;points=[[0,0.5],[1,0.5]];portConstraint=eastwest;rotatable=0;whiteSpace=wrap;html=1;" parent="i57yBYP4YpkLfWuTjgx--21" vertex="1">
          <mxGeometry y="60" width="190" height="30" as="geometry" />
        </mxCell>
        <mxCell id="i57yBYP4YpkLfWuTjgx--24" style="edgeStyle=orthogonalEdgeStyle;rounded=0;orthogonalLoop=1;jettySize=auto;html=1;" parent="1" source="i57yBYP4YpkLfWuTjgx--25" target="i57yBYP4YpkLfWuTjgx--72" edge="1">
          <mxGeometry relative="1" as="geometry" />
        </mxCell>
        <mxCell id="i57yBYP4YpkLfWuTjgx--25" value="step3_select_ROIs" style="swimlane;fontStyle=0;childLayout=stackLayout;horizontal=1;startSize=30;horizontalStack=0;resizeParent=1;resizeParentMax=0;resizeLast=0;collapsible=1;marginBottom=0;whiteSpace=wrap;html=1;" parent="1" vertex="1">
          <mxGeometry x="2230" y="2360" width="190" height="120" as="geometry" />
        </mxCell>
        <mxCell id="i57yBYP4YpkLfWuTjgx--26" value="s1_select_ROIs.sh" style="text;strokeColor=none;fillColor=none;align=left;verticalAlign=middle;spacingLeft=4;spacingRight=4;overflow=hidden;points=[[0,0.5],[1,0.5]];portConstraint=eastwest;rotatable=0;whiteSpace=wrap;html=1;" parent="i57yBYP4YpkLfWuTjgx--25" vertex="1">
          <mxGeometry y="30" width="190" height="30" as="geometry" />
        </mxCell>
        <mxCell id="i57yBYP4YpkLfWuTjgx--27" value="s2_select_ICV_Corr_ROIs.sh" style="text;strokeColor=none;fillColor=none;align=left;verticalAlign=middle;spacingLeft=4;spacingRight=4;overflow=hidden;points=[[0,0.5],[1,0.5]];portConstraint=eastwest;rotatable=0;whiteSpace=wrap;html=1;" parent="i57yBYP4YpkLfWuTjgx--25" vertex="1">
          <mxGeometry y="60" width="190" height="30" as="geometry" />
        </mxCell>
        <mxCell id="i57yBYP4YpkLfWuTjgx--28" value="util_sel_roi.py" style="text;strokeColor=none;fillColor=none;align=left;verticalAlign=middle;spacingLeft=4;spacingRight=4;overflow=hidden;points=[[0,0.5],[1,0.5]];portConstraint=eastwest;rotatable=0;whiteSpace=wrap;html=1;" parent="i57yBYP4YpkLfWuTjgx--25" vertex="1">
          <mxGeometry y="90" width="190" height="30" as="geometry" />
        </mxCell>
        <mxCell id="i57yBYP4YpkLfWuTjgx--29" style="edgeStyle=orthogonalEdgeStyle;rounded=0;orthogonalLoop=1;jettySize=auto;html=1;entryX=0.5;entryY=0;entryDx=0;entryDy=0;" parent="1" source="i57yBYP4YpkLfWuTjgx--30" target="i57yBYP4YpkLfWuTjgx--77" edge="1">
          <mxGeometry relative="1" as="geometry" />
        </mxCell>
        <mxCell id="i57yBYP4YpkLfWuTjgx--30" value="step4_merge_data" style="swimlane;fontStyle=0;childLayout=stackLayout;horizontal=1;startSize=30;horizontalStack=0;resizeParent=1;resizeParentMax=0;resizeLast=0;collapsible=1;marginBottom=0;whiteSpace=wrap;html=1;" parent="1" vertex="1">
          <mxGeometry x="2470" y="2360" width="190" height="90" as="geometry" />
        </mxCell>
        <mxCell id="i57yBYP4YpkLfWuTjgx--31" value="s1_merge_within_study.py" style="text;strokeColor=none;fillColor=none;align=left;verticalAlign=middle;spacingLeft=4;spacingRight=4;overflow=hidden;points=[[0,0.5],[1,0.5]];portConstraint=eastwest;rotatable=0;whiteSpace=wrap;html=1;" parent="i57yBYP4YpkLfWuTjgx--30" vertex="1">
          <mxGeometry y="30" width="190" height="30" as="geometry" />
        </mxCell>
        <mxCell id="i57yBYP4YpkLfWuTjgx--32" value="s2_merge_studies.py" style="text;strokeColor=none;fillColor=none;align=left;verticalAlign=middle;spacingLeft=4;spacingRight=4;overflow=hidden;points=[[0,0.5],[1,0.5]];portConstraint=eastwest;rotatable=0;whiteSpace=wrap;html=1;" parent="i57yBYP4YpkLfWuTjgx--30" vertex="1">
          <mxGeometry y="60" width="190" height="30" as="geometry" />
        </mxCell>
        <mxCell id="i57yBYP4YpkLfWuTjgx--33" style="edgeStyle=orthogonalEdgeStyle;rounded=0;orthogonalLoop=1;jettySize=auto;html=1;" parent="1" source="i57yBYP4YpkLfWuTjgx--34" target="i57yBYP4YpkLfWuTjgx--80" edge="1">
          <mxGeometry relative="1" as="geometry" />
        </mxCell>
        <mxCell id="i57yBYP4YpkLfWuTjgx--34" value="step5_select_subsample" style="swimlane;fontStyle=0;childLayout=stackLayout;horizontal=1;startSize=30;horizontalStack=0;resizeParent=1;resizeParentMax=0;resizeLast=0;collapsible=1;marginBottom=0;whiteSpace=wrap;html=1;" parent="1" vertex="1">
          <mxGeometry x="2710" y="2360" width="200" height="60" as="geometry" />
        </mxCell>
        <mxCell id="i57yBYP4YpkLfWuTjgx--35" value="s1_select_subsamples.py" style="text;strokeColor=none;fillColor=none;align=left;verticalAlign=middle;spacingLeft=4;spacingRight=4;overflow=hidden;points=[[0,0.5],[1,0.5]];portConstraint=eastwest;rotatable=0;whiteSpace=wrap;html=1;" parent="i57yBYP4YpkLfWuTjgx--34" vertex="1">
          <mxGeometry y="30" width="200" height="30" as="geometry" />
        </mxCell>
        <mxCell id="i57yBYP4YpkLfWuTjgx--36" style="edgeStyle=orthogonalEdgeStyle;rounded=0;orthogonalLoop=1;jettySize=auto;html=1;" parent="1" source="i57yBYP4YpkLfWuTjgx--37" target="i57yBYP4YpkLfWuTjgx--85" edge="1">
          <mxGeometry relative="1" as="geometry" />
        </mxCell>
        <mxCell id="i57yBYP4YpkLfWuTjgx--37" value="step6_calc_centiles" style="swimlane;fontStyle=0;childLayout=stackLayout;horizontal=1;startSize=30;horizontalStack=0;resizeParent=1;resizeParentMax=0;resizeLast=0;collapsible=1;marginBottom=0;whiteSpace=wrap;html=1;" parent="1" vertex="1">
          <mxGeometry x="2960" y="2360" width="190" height="120" as="geometry" />
        </mxCell>
        <mxCell id="i57yBYP4YpkLfWuTjgx--38" value="s1_run_calc_centiles.sh" style="text;strokeColor=none;fillColor=none;align=left;verticalAlign=middle;spacingLeft=4;spacingRight=4;overflow=hidden;points=[[0,0.5],[1,0.5]];portConstraint=eastwest;rotatable=0;whiteSpace=wrap;html=1;" parent="i57yBYP4YpkLfWuTjgx--37" vertex="1">
          <mxGeometry y="30" width="190" height="30" as="geometry" />
        </mxCell>
        <mxCell id="i57yBYP4YpkLfWuTjgx--39" value="s2_TMP_run_calc_centiles_SPARE.sh" style="text;strokeColor=none;fillColor=none;align=left;verticalAlign=middle;spacingLeft=4;spacingRight=4;overflow=hidden;points=[[0,0.5],[1,0.5]];portConstraint=eastwest;rotatable=0;whiteSpace=wrap;html=1;" parent="i57yBYP4YpkLfWuTjgx--37" vertex="1">
          <mxGeometry y="60" width="190" height="30" as="geometry" />
        </mxCell>
        <mxCell id="i57yBYP4YpkLfWuTjgx--40" value="util_calc_centiles.r" style="text;strokeColor=none;fillColor=none;align=left;verticalAlign=middle;spacingLeft=4;spacingRight=4;overflow=hidden;points=[[0,0.5],[1,0.5]];portConstraint=eastwest;rotatable=0;whiteSpace=wrap;html=1;" parent="i57yBYP4YpkLfWuTjgx--37" vertex="1">
          <mxGeometry y="90" width="190" height="30" as="geometry" />
        </mxCell>
        <mxCell id="i57yBYP4YpkLfWuTjgx--41" value="step7_view_data" style="swimlane;fontStyle=0;childLayout=stackLayout;horizontal=1;startSize=30;horizontalStack=0;resizeParent=1;resizeParentMax=0;resizeLast=0;collapsible=1;marginBottom=0;whiteSpace=wrap;html=1;" parent="1" vertex="1">
          <mxGeometry x="2000" y="3120" width="900" height="180" as="geometry" />
        </mxCell>
        <mxCell id="i57yBYP4YpkLfWuTjgx--42" value="s1_view_rois.ipynb" style="text;strokeColor=none;fillColor=none;align=left;verticalAlign=middle;spacingLeft=4;spacingRight=4;overflow=hidden;points=[[0,0.5],[1,0.5]];portConstraint=eastwest;rotatable=0;whiteSpace=wrap;html=1;" parent="i57yBYP4YpkLfWuTjgx--41" vertex="1">
          <mxGeometry y="30" width="900" height="30" as="geometry" />
        </mxCell>
        <mxCell id="i57yBYP4YpkLfWuTjgx--43" value="..." style="text;strokeColor=none;fillColor=none;align=left;verticalAlign=middle;spacingLeft=4;spacingRight=4;overflow=hidden;points=[[0,0.5],[1,0.5]];portConstraint=eastwest;rotatable=0;whiteSpace=wrap;html=1;" parent="i57yBYP4YpkLfWuTjgx--41" vertex="1">
          <mxGeometry y="60" width="900" height="30" as="geometry" />
        </mxCell>
        <mxCell id="i57yBYP4YpkLfWuTjgx--44" value="..." style="text;strokeColor=none;fillColor=none;align=left;verticalAlign=middle;spacingLeft=4;spacingRight=4;overflow=hidden;points=[[0,0.5],[1,0.5]];portConstraint=eastwest;rotatable=0;whiteSpace=wrap;html=1;" parent="i57yBYP4YpkLfWuTjgx--41" vertex="1">
          <mxGeometry y="90" width="900" height="30" as="geometry" />
        </mxCell>
        <mxCell id="i57yBYP4YpkLfWuTjgx--45" value="..." style="text;strokeColor=none;fillColor=none;align=left;verticalAlign=middle;spacingLeft=4;spacingRight=4;overflow=hidden;points=[[0,0.5],[1,0.5]];portConstraint=eastwest;rotatable=0;whiteSpace=wrap;html=1;" parent="i57yBYP4YpkLfWuTjgx--41" vertex="1">
          <mxGeometry y="120" width="900" height="30" as="geometry" />
        </mxCell>
        <mxCell id="i57yBYP4YpkLfWuTjgx--46" value="...." style="text;strokeColor=none;fillColor=none;align=left;verticalAlign=middle;spacingLeft=4;spacingRight=4;overflow=hidden;points=[[0,0.5],[1,0.5]];portConstraint=eastwest;rotatable=0;whiteSpace=wrap;html=1;" parent="i57yBYP4YpkLfWuTjgx--41" vertex="1">
          <mxGeometry y="150" width="900" height="30" as="geometry" />
        </mxCell>
        <mxCell id="i57yBYP4YpkLfWuTjgx--47" value="&lt;h1&gt;/output&lt;/h1&gt;&lt;div&gt;/STUDY/&lt;/div&gt;" style="text;html=1;strokeColor=none;fillColor=none;spacing=5;spacingTop=-20;whiteSpace=wrap;overflow=hidden;rounded=0;align=center;" parent="1" vertex="1">
          <mxGeometry x="1600" y="2660" width="130" height="130" as="geometry" />
        </mxCell>
        <mxCell id="i57yBYP4YpkLfWuTjgx--48" style="edgeStyle=orthogonalEdgeStyle;rounded=0;orthogonalLoop=1;jettySize=auto;html=1;entryX=0;entryY=0.25;entryDx=0;entryDy=0;" parent="1" source="i57yBYP4YpkLfWuTjgx--50" target="i57yBYP4YpkLfWuTjgx--21" edge="1">
          <mxGeometry relative="1" as="geometry" />
        </mxCell>
        <mxCell id="i57yBYP4YpkLfWuTjgx--49" style="edgeStyle=orthogonalEdgeStyle;rounded=0;orthogonalLoop=1;jettySize=auto;html=1;" parent="1" source="i57yBYP4YpkLfWuTjgx--50" target="i57yBYP4YpkLfWuTjgx--41" edge="1">
          <mxGeometry relative="1" as="geometry">
            <Array as="points">
              <mxPoint x="1845" y="3010" />
              <mxPoint x="2450" y="3010" />
            </Array>
          </mxGeometry>
        </mxCell>
        <mxCell id="i57yBYP4YpkLfWuTjgx--50" value="step1_init_data/STUDY/" style="swimlane;fontStyle=0;childLayout=stackLayout;horizontal=1;startSize=30;horizontalStack=0;resizeParent=1;resizeParentMax=0;resizeLast=0;collapsible=1;marginBottom=0;whiteSpace=wrap;html=1;labelBackgroundColor=none;fillStyle=solid;fillColor=default;" parent="1" vertex="1">
          <mxGeometry x="1750" y="2660" width="190" height="330" as="geometry">
            <mxRectangle x="-100" y="490" width="170" height="30" as="alternateBounds" />
          </mxGeometry>
        </mxCell>
        <mxCell id="i57yBYP4YpkLfWuTjgx--51" value="path_nichart_prjdir.lnk" style="text;strokeColor=none;fillColor=none;align=left;verticalAlign=middle;spacingLeft=4;spacingRight=4;overflow=hidden;points=[[0,0.5],[1,0.5]];portConstraint=eastwest;rotatable=0;whiteSpace=wrap;html=1;" parent="i57yBYP4YpkLfWuTjgx--50" vertex="1">
          <mxGeometry y="30" width="190" height="30" as="geometry" />
        </mxCell>
        <mxCell id="i57yBYP4YpkLfWuTjgx--52" value="STUDY_DLICV.csv" style="text;strokeColor=none;fillColor=none;align=left;verticalAlign=middle;spacingLeft=4;spacingRight=4;overflow=hidden;points=[[0,0.5],[1,0.5]];portConstraint=eastwest;rotatable=0;whiteSpace=wrap;html=1;" parent="i57yBYP4YpkLfWuTjgx--50" vertex="1">
          <mxGeometry y="60" width="190" height="30" as="geometry" />
        </mxCell>
        <mxCell id="i57yBYP4YpkLfWuTjgx--53" value="STUDY_DLMUSE.csv" style="text;strokeColor=none;fillColor=none;align=left;verticalAlign=middle;spacingLeft=4;spacingRight=4;overflow=hidden;points=[[0,0.5],[1,0.5]];portConstraint=eastwest;rotatable=0;whiteSpace=wrap;html=1;" parent="i57yBYP4YpkLfWuTjgx--50" vertex="1">
          <mxGeometry y="90" width="190" height="30" as="geometry" />
        </mxCell>
        <mxCell id="i57yBYP4YpkLfWuTjgx--54" value="STUDY_MasterList_DemogDXInfo.csv" style="text;strokeColor=none;fillColor=none;align=left;verticalAlign=middle;spacingLeft=4;spacingRight=4;overflow=hidden;points=[[0,0.5],[1,0.5]];portConstraint=eastwest;rotatable=0;whiteSpace=wrap;html=1;" parent="i57yBYP4YpkLfWuTjgx--50" vertex="1">
          <mxGeometry y="120" width="190" height="30" as="geometry" />
        </mxCell>
        <mxCell id="i57yBYP4YpkLfWuTjgx--55" value="STUDY_MasterList_ScanInfo.csv" style="text;strokeColor=none;fillColor=none;align=left;verticalAlign=middle;spacingLeft=4;spacingRight=4;overflow=hidden;points=[[0,0.5],[1,0.5]];portConstraint=eastwest;rotatable=0;whiteSpace=wrap;html=1;" parent="i57yBYP4YpkLfWuTjgx--50" vertex="1">
          <mxGeometry y="150" width="190" height="30" as="geometry" />
        </mxCell>
        <mxCell id="i57yBYP4YpkLfWuTjgx--56" value="STUDY_MasterList_sMRI.csv" style="text;strokeColor=none;fillColor=none;align=left;verticalAlign=middle;spacingLeft=4;spacingRight=4;overflow=hidden;points=[[0,0.5],[1,0.5]];portConstraint=eastwest;rotatable=0;whiteSpace=wrap;html=1;" parent="i57yBYP4YpkLfWuTjgx--50" vertex="1">
          <mxGeometry y="180" width="190" height="30" as="geometry" />
        </mxCell>
        <mxCell id="i57yBYP4YpkLfWuTjgx--57" value="STUDY_MasterList_withAllVars.csv" style="text;strokeColor=none;fillColor=none;align=left;verticalAlign=middle;spacingLeft=4;spacingRight=4;overflow=hidden;points=[[0,0.5],[1,0.5]];portConstraint=eastwest;rotatable=0;whiteSpace=wrap;html=1;" parent="i57yBYP4YpkLfWuTjgx--50" vertex="1">
          <mxGeometry y="210" width="190" height="30" as="geometry" />
        </mxCell>
        <mxCell id="i57yBYP4YpkLfWuTjgx--58" value="STUDY_MUSE-ISTAGING.csv" style="text;strokeColor=none;fillColor=none;align=left;verticalAlign=middle;spacingLeft=4;spacingRight=4;overflow=hidden;points=[[0,0.5],[1,0.5]];portConstraint=eastwest;rotatable=0;whiteSpace=wrap;html=1;" parent="i57yBYP4YpkLfWuTjgx--50" vertex="1">
          <mxGeometry y="240" width="190" height="30" as="geometry" />
        </mxCell>
        <mxCell id="i57yBYP4YpkLfWuTjgx--59" value="STUDY_MUSE-ISTAGING_QCFlags.csv" style="text;strokeColor=none;fillColor=none;align=left;verticalAlign=middle;spacingLeft=4;spacingRight=4;overflow=hidden;points=[[0,0.5],[1,0.5]];portConstraint=eastwest;rotatable=0;whiteSpace=wrap;html=1;" parent="i57yBYP4YpkLfWuTjgx--50" vertex="1">
          <mxGeometry y="270" width="190" height="30" as="geometry" />
        </mxCell>
        <mxCell id="i57yBYP4YpkLfWuTjgx--60" value="study_consolidation" style="swimlane;fontStyle=0;childLayout=stackLayout;horizontal=1;startSize=30;horizontalStack=0;resizeParent=1;resizeParentMax=0;resizeLast=0;collapsible=1;marginBottom=0;whiteSpace=wrap;html=1;" parent="i57yBYP4YpkLfWuTjgx--50" vertex="1" collapsed="1">
          <mxGeometry y="300" width="190" height="30" as="geometry">
            <mxRectangle y="300" width="190" height="240" as="alternateBounds" />
          </mxGeometry>
        </mxCell>
        <mxCell id="i57yBYP4YpkLfWuTjgx--61" value="STUDY_PI_Race_Ethnicity.csv" style="text;strokeColor=none;fillColor=none;align=left;verticalAlign=middle;spacingLeft=4;spacingRight=4;overflow=hidden;points=[[0,0.5],[1,0.5]];portConstraint=eastwest;rotatable=0;whiteSpace=wrap;html=1;" parent="i57yBYP4YpkLfWuTjgx--60" vertex="1">
          <mxGeometry y="30" width="190" height="30" as="geometry" />
        </mxCell>
        <mxCell id="i57yBYP4YpkLfWuTjgx--62" value="STUDY_DX_Diabetes.csv" style="text;strokeColor=none;fillColor=none;align=left;verticalAlign=middle;spacingLeft=4;spacingRight=4;overflow=hidden;points=[[0,0.5],[1,0.5]];portConstraint=eastwest;rotatable=0;whiteSpace=wrap;html=1;" parent="i57yBYP4YpkLfWuTjgx--60" vertex="1">
          <mxGeometry y="60" width="190" height="30" as="geometry" />
        </mxCell>
        <mxCell id="i57yBYP4YpkLfWuTjgx--63" value="STUDY_DX_AD.csv" style="text;strokeColor=none;fillColor=none;align=left;verticalAlign=middle;spacingLeft=4;spacingRight=4;overflow=hidden;points=[[0,0.5],[1,0.5]];portConstraint=eastwest;rotatable=0;whiteSpace=wrap;html=1;" parent="i57yBYP4YpkLfWuTjgx--60" vertex="1">
          <mxGeometry y="90" width="190" height="30" as="geometry" />
        </mxCell>
        <mxCell id="i57yBYP4YpkLfWuTjgx--64" value="STUDY_DX_Hypertension.csv" style="text;strokeColor=none;fillColor=none;align=left;verticalAlign=middle;spacingLeft=4;spacingRight=4;overflow=hidden;points=[[0,0.5],[1,0.5]];portConstraint=eastwest;rotatable=0;whiteSpace=wrap;html=1;" parent="i57yBYP4YpkLfWuTjgx--60" vertex="1">
          <mxGeometry y="120" width="190" height="30" as="geometry" />
        </mxCell>
        <mxCell id="i57yBYP4YpkLfWuTjgx--65" value="STUDY_CO_MMSE.csv" style="text;strokeColor=none;fillColor=none;align=left;verticalAlign=middle;spacingLeft=4;spacingRight=4;overflow=hidden;points=[[0,0.5],[1,0.5]];portConstraint=eastwest;rotatable=0;whiteSpace=wrap;html=1;" parent="i57yBYP4YpkLfWuTjgx--60" vertex="1">
          <mxGeometry y="150" width="190" height="30" as="geometry" />
        </mxCell>
        <mxCell id="i57yBYP4YpkLfWuTjgx--66" value="STUDY_CO_DSST.csv" style="text;strokeColor=none;fillColor=none;align=left;verticalAlign=middle;spacingLeft=4;spacingRight=4;overflow=hidden;points=[[0,0.5],[1,0.5]];portConstraint=eastwest;rotatable=0;whiteSpace=wrap;html=1;" parent="i57yBYP4YpkLfWuTjgx--60" vertex="1">
          <mxGeometry y="180" width="190" height="30" as="geometry" />
        </mxCell>
        <mxCell id="i57yBYP4YpkLfWuTjgx--67" value="STUDY_CO_MOCA.csv" style="text;strokeColor=none;fillColor=none;align=left;verticalAlign=middle;spacingLeft=4;spacingRight=4;overflow=hidden;points=[[0,0.5],[1,0.5]];portConstraint=eastwest;rotatable=0;whiteSpace=wrap;html=1;" parent="i57yBYP4YpkLfWuTjgx--60" vertex="1">
          <mxGeometry y="210" width="190" height="30" as="geometry" />
        </mxCell>
        <mxCell id="i57yBYP4YpkLfWuTjgx--68" style="edgeStyle=orthogonalEdgeStyle;rounded=0;orthogonalLoop=1;jettySize=auto;html=1;" parent="1" source="i57yBYP4YpkLfWuTjgx--69" edge="1">
          <mxGeometry relative="1" as="geometry">
            <mxPoint x="2450" y="3120" as="targetPoint" />
            <Array as="points">
              <mxPoint x="2085" y="2950" />
              <mxPoint x="2450" y="2950" />
            </Array>
          </mxGeometry>
        </mxCell>
        <mxCell id="i57yBYP4YpkLfWuTjgx--69" value="step2_corr_icv/STUDY/" style="swimlane;fontStyle=0;childLayout=stackLayout;horizontal=1;startSize=30;horizontalStack=0;resizeParent=1;resizeParentMax=0;resizeLast=0;collapsible=1;marginBottom=0;whiteSpace=wrap;html=1;" parent="1" vertex="1">
          <mxGeometry x="1990" y="2660" width="190" height="60" as="geometry" />
        </mxCell>
        <mxCell id="i57yBYP4YpkLfWuTjgx--70" value="STUDY_DLMUSE_PercICV.csv" style="text;strokeColor=none;fillColor=none;align=left;verticalAlign=middle;spacingLeft=4;spacingRight=4;overflow=hidden;points=[[0,0.5],[1,0.5]];portConstraint=eastwest;rotatable=0;whiteSpace=wrap;html=1;" parent="i57yBYP4YpkLfWuTjgx--69" vertex="1">
          <mxGeometry y="30" width="190" height="30" as="geometry" />
        </mxCell>
        <mxCell id="i57yBYP4YpkLfWuTjgx--71" style="edgeStyle=orthogonalEdgeStyle;rounded=0;orthogonalLoop=1;jettySize=auto;html=1;" parent="1" source="i57yBYP4YpkLfWuTjgx--72" edge="1">
          <mxGeometry relative="1" as="geometry">
            <mxPoint x="2450" y="3120" as="targetPoint" />
            <Array as="points">
              <mxPoint x="2325" y="2890" />
              <mxPoint x="2450" y="2890" />
              <mxPoint x="2450" y="3070" />
            </Array>
          </mxGeometry>
        </mxCell>
        <mxCell id="i57yBYP4YpkLfWuTjgx--72" value="step3_select_ROIs/STUDY/" style="swimlane;fontStyle=0;childLayout=stackLayout;horizontal=1;startSize=30;horizontalStack=0;resizeParent=1;resizeParentMax=0;resizeLast=0;collapsible=1;marginBottom=0;html=1;whiteSpace=wrap;" parent="1" vertex="1">
          <mxGeometry x="2230" y="2660" width="190" height="90" as="geometry" />
        </mxCell>
        <mxCell id="i57yBYP4YpkLfWuTjgx--73" value="STUDY_DLMUSE_PercICV_SelROI.csv&lt;br&gt;" style="text;strokeColor=none;fillColor=none;align=left;verticalAlign=middle;spacingLeft=4;spacingRight=4;overflow=hidden;points=[[0,0.5],[1,0.5]];portConstraint=eastwest;rotatable=0;html=1;whiteSpace=wrap;shadow=0;rounded=0;" parent="i57yBYP4YpkLfWuTjgx--72" vertex="1">
          <mxGeometry y="30" width="190" height="30" as="geometry" />
        </mxCell>
        <mxCell id="i57yBYP4YpkLfWuTjgx--74" value="STUDY_DLMUSE_SelROI.csv" style="text;strokeColor=none;fillColor=none;align=left;verticalAlign=middle;spacingLeft=4;spacingRight=4;overflow=hidden;points=[[0,0.5],[1,0.5]];portConstraint=eastwest;rotatable=0;whiteSpace=wrap;html=1;" parent="i57yBYP4YpkLfWuTjgx--72" vertex="1">
          <mxGeometry y="60" width="190" height="30" as="geometry" />
        </mxCell>
        <mxCell id="i57yBYP4YpkLfWuTjgx--75" style="edgeStyle=orthogonalEdgeStyle;rounded=0;orthogonalLoop=1;jettySize=auto;html=1;entryX=0;entryY=0.25;entryDx=0;entryDy=0;" parent="1" source="i57yBYP4YpkLfWuTjgx--77" target="i57yBYP4YpkLfWuTjgx--34" edge="1">
          <mxGeometry relative="1" as="geometry" />
        </mxCell>
        <mxCell id="i57yBYP4YpkLfWuTjgx--76" style="edgeStyle=orthogonalEdgeStyle;rounded=0;orthogonalLoop=1;jettySize=auto;html=1;" parent="1" source="i57yBYP4YpkLfWuTjgx--77" edge="1">
          <mxGeometry relative="1" as="geometry">
            <mxPoint x="2450" y="3120" as="targetPoint" />
            <Array as="points">
              <mxPoint x="2565" y="2860" />
              <mxPoint x="2450" y="2860" />
              <mxPoint x="2450" y="3070" />
            </Array>
          </mxGeometry>
        </mxCell>
        <mxCell id="i57yBYP4YpkLfWuTjgx--77" value="step4_merge_data/STUDY/" style="swimlane;fontStyle=0;childLayout=stackLayout;horizontal=1;startSize=30;horizontalStack=0;resizeParent=1;resizeParentMax=0;resizeLast=0;collapsible=1;marginBottom=0;whiteSpace=wrap;html=1;" parent="1" vertex="1">
          <mxGeometry x="2470" y="2660" width="190" height="60" as="geometry" />
        </mxCell>
        <mxCell id="i57yBYP4YpkLfWuTjgx--78" value="STUDY_SelVars.csv" style="text;strokeColor=none;fillColor=none;align=left;verticalAlign=middle;spacingLeft=4;spacingRight=4;overflow=hidden;points=[[0,0.5],[1,0.5]];portConstraint=eastwest;rotatable=0;whiteSpace=wrap;html=1;" parent="i57yBYP4YpkLfWuTjgx--77" vertex="1">
          <mxGeometry y="30" width="190" height="30" as="geometry" />
        </mxCell>
        <mxCell id="i57yBYP4YpkLfWuTjgx--79" style="edgeStyle=orthogonalEdgeStyle;rounded=0;orthogonalLoop=1;jettySize=auto;html=1;" parent="1" source="i57yBYP4YpkLfWuTjgx--80" edge="1">
          <mxGeometry relative="1" as="geometry">
            <mxPoint x="2450" y="3120" as="targetPoint" />
            <Array as="points">
              <mxPoint x="2810" y="2920" />
              <mxPoint x="2450" y="2920" />
              <mxPoint x="2450" y="3070" />
            </Array>
          </mxGeometry>
        </mxCell>
        <mxCell id="i57yBYP4YpkLfWuTjgx--80" value="step5_select_subsample/PURPOSE/" style="swimlane;fontStyle=0;childLayout=stackLayout;horizontal=1;startSize=30;horizontalStack=0;resizeParent=1;resizeParentMax=0;resizeLast=0;collapsible=1;marginBottom=0;whiteSpace=wrap;html=1;" parent="1" vertex="1">
          <mxGeometry x="2710" y="2660" width="200" height="120" as="geometry" />
        </mxCell>
        <mxCell id="i57yBYP4YpkLfWuTjgx--81" value="PURPOSE_SelVars_SelSample_IsF_X_DXAD_X.csv" style="text;strokeColor=none;fillColor=none;align=left;verticalAlign=middle;spacingLeft=4;spacingRight=4;overflow=hidden;points=[[0,0.5],[1,0.5]];portConstraint=eastwest;rotatable=0;html=1;whiteSpace=wrap;" parent="i57yBYP4YpkLfWuTjgx--80" vertex="1">
          <mxGeometry y="30" width="200" height="30" as="geometry" />
        </mxCell>
        <mxCell id="i57yBYP4YpkLfWuTjgx--82" value="..." style="text;strokeColor=none;fillColor=none;align=left;verticalAlign=middle;spacingLeft=4;spacingRight=4;overflow=hidden;points=[[0,0.5],[1,0.5]];portConstraint=eastwest;rotatable=0;whiteSpace=wrap;html=1;" parent="i57yBYP4YpkLfWuTjgx--80" vertex="1">
          <mxGeometry y="60" width="200" height="30" as="geometry" />
        </mxCell>
        <mxCell id="i57yBYP4YpkLfWuTjgx--83" value="...." style="text;strokeColor=none;fillColor=none;align=left;verticalAlign=middle;spacingLeft=4;spacingRight=4;overflow=hidden;points=[[0,0.5],[1,0.5]];portConstraint=eastwest;rotatable=0;whiteSpace=wrap;html=1;" parent="i57yBYP4YpkLfWuTjgx--80" vertex="1">
          <mxGeometry y="90" width="200" height="30" as="geometry" />
        </mxCell>
        <mxCell id="i57yBYP4YpkLfWuTjgx--84" style="edgeStyle=orthogonalEdgeStyle;rounded=0;orthogonalLoop=1;jettySize=auto;html=1;" parent="1" source="i57yBYP4YpkLfWuTjgx--85" edge="1">
          <mxGeometry relative="1" as="geometry">
            <mxPoint x="2450" y="3120" as="targetPoint" />
            <Array as="points">
              <mxPoint x="3055" y="2980" />
              <mxPoint x="2450" y="2980" />
              <mxPoint x="2450" y="3070" />
            </Array>
          </mxGeometry>
        </mxCell>
        <mxCell id="i57yBYP4YpkLfWuTjgx--85" value="step6_calc_centiles/PURPOSE" style="swimlane;fontStyle=0;childLayout=stackLayout;horizontal=1;startSize=30;horizontalStack=0;resizeParent=1;resizeParentMax=0;resizeLast=0;collapsible=1;marginBottom=0;whiteSpace=wrap;html=1;" parent="1" vertex="1">
          <mxGeometry x="2960" y="2660" width="190" height="120" as="geometry" />
        </mxCell>
        <mxCell id="i57yBYP4YpkLfWuTjgx--86" value="PURPOSE_SelVars_SelSample_IsF_X_DXAD_X_Centiles.csv" style="text;strokeColor=none;fillColor=none;align=left;verticalAlign=middle;spacingLeft=4;spacingRight=4;overflow=hidden;points=[[0,0.5],[1,0.5]];portConstraint=eastwest;rotatable=0;whiteSpace=wrap;html=1;" parent="i57yBYP4YpkLfWuTjgx--85" vertex="1">
          <mxGeometry y="30" width="190" height="30" as="geometry" />
        </mxCell>
        <mxCell id="i57yBYP4YpkLfWuTjgx--87" value="..." style="text;strokeColor=none;fillColor=none;align=left;verticalAlign=middle;spacingLeft=4;spacingRight=4;overflow=hidden;points=[[0,0.5],[1,0.5]];portConstraint=eastwest;rotatable=0;whiteSpace=wrap;html=1;" parent="i57yBYP4YpkLfWuTjgx--85" vertex="1">
          <mxGeometry y="60" width="190" height="30" as="geometry" />
        </mxCell>
        <mxCell id="i57yBYP4YpkLfWuTjgx--88" value="..." style="text;strokeColor=none;fillColor=none;align=left;verticalAlign=middle;spacingLeft=4;spacingRight=4;overflow=hidden;points=[[0,0.5],[1,0.5]];portConstraint=eastwest;rotatable=0;whiteSpace=wrap;html=1;" parent="i57yBYP4YpkLfWuTjgx--85" vertex="1">
          <mxGeometry y="90" width="190" height="30" as="geometry" />
        </mxCell>
        <mxCell id="i57yBYP4YpkLfWuTjgx--89" value="&lt;h1&gt;/input/&lt;/h1&gt;" style="text;html=1;strokeColor=none;fillColor=none;spacing=5;spacingTop=-20;whiteSpace=wrap;overflow=hidden;rounded=0;align=center;" parent="1" vertex="1">
          <mxGeometry x="1600" y="2060" width="130" height="40" as="geometry" />
        </mxCell>
        <mxCell id="i57yBYP4YpkLfWuTjgx--90" style="edgeStyle=orthogonalEdgeStyle;rounded=0;orthogonalLoop=1;jettySize=auto;html=1;" parent="1" source="i57yBYP4YpkLfWuTjgx--91" target="i57yBYP4YpkLfWuTjgx--13" edge="1">
          <mxGeometry relative="1" as="geometry" />
        </mxCell>
        <mxCell id="i57yBYP4YpkLfWuTjgx--91" value="/input/" style="swimlane;fontStyle=0;childLayout=stackLayout;horizontal=1;startSize=30;horizontalStack=0;resizeParent=1;resizeParentMax=0;resizeLast=0;collapsible=1;marginBottom=0;whiteSpace=wrap;html=1;" parent="1" vertex="1">
          <mxGeometry x="1750" y="2060" width="420" height="210" as="geometry">
            <mxRectangle x="-100" y="-110" width="70" height="30" as="alternateBounds" />
          </mxGeometry>
        </mxCell>
        <mxCell id="i57yBYP4YpkLfWuTjgx--92" value="nichart_list_studies_v1.1.csv" style="text;strokeColor=none;fillColor=none;align=left;verticalAlign=middle;spacingLeft=4;spacingRight=4;overflow=hidden;points=[[0,0.5],[1,0.5]];portConstraint=eastwest;rotatable=0;whiteSpace=wrap;html=1;" parent="i57yBYP4YpkLfWuTjgx--91" vertex="1">
          <mxGeometry y="30" width="420" height="30" as="geometry" />
        </mxCell>
        <mxCell id="i57yBYP4YpkLfWuTjgx--93" value="nichart_list_tables_v1.1.csv" style="text;strokeColor=none;fillColor=none;align=left;verticalAlign=middle;spacingLeft=4;spacingRight=4;overflow=hidden;points=[[0,0.5],[1,0.5]];portConstraint=eastwest;rotatable=0;whiteSpace=wrap;html=1;" parent="i57yBYP4YpkLfWuTjgx--91" vertex="1">
          <mxGeometry y="60" width="420" height="30" as="geometry" />
        </mxCell>
        <mxCell id="i57yBYP4YpkLfWuTjgx--94" value="nichart_list_rois_for_centiles_v1.1.csv" style="text;strokeColor=none;fillColor=none;align=left;verticalAlign=middle;spacingLeft=4;spacingRight=4;overflow=hidden;points=[[0,0.5],[1,0.5]];portConstraint=eastwest;rotatable=0;whiteSpace=wrap;html=1;" parent="i57yBYP4YpkLfWuTjgx--91" vertex="1">
          <mxGeometry y="90" width="420" height="30" as="geometry" />
        </mxCell>
        <mxCell id="i57yBYP4YpkLfWuTjgx--95" value="&amp;nbsp; &amp;nbsp; /external_data" style="swimlane;fontStyle=0;childLayout=stackLayout;horizontal=1;startSize=30;horizontalStack=0;resizeParent=1;resizeParentMax=0;resizeLast=0;collapsible=1;marginBottom=0;whiteSpace=wrap;html=1;align=left;" parent="i57yBYP4YpkLfWuTjgx--91" vertex="1">
          <mxGeometry y="120" width="420" height="90" as="geometry">
            <mxRectangle y="120" width="420" height="30" as="alternateBounds" />
          </mxGeometry>
        </mxCell>
        <mxCell id="i57yBYP4YpkLfWuTjgx--96" value="CombatBatchesShannon" style="text;strokeColor=none;fillColor=none;align=left;verticalAlign=middle;spacingLeft=4;spacingRight=4;overflow=hidden;points=[[0,0.5],[1,0.5]];portConstraint=eastwest;rotatable=0;whiteSpace=wrap;html=1;" parent="i57yBYP4YpkLfWuTjgx--95" vertex="1">
          <mxGeometry y="30" width="420" height="30" as="geometry" />
        </mxCell>
        <mxCell id="i57yBYP4YpkLfWuTjgx--97" value="NIAGADS_FS_Values" style="text;strokeColor=none;fillColor=none;align=left;verticalAlign=middle;spacingLeft=4;spacingRight=4;overflow=hidden;points=[[0,0.5],[1,0.5]];portConstraint=eastwest;rotatable=0;whiteSpace=wrap;html=1;" parent="i57yBYP4YpkLfWuTjgx--95" vertex="1">
          <mxGeometry y="60" width="420" height="30" as="geometry" />
        </mxCell>
        <mxCell id="i57yBYP4YpkLfWuTjgx--98" style="edgeStyle=orthogonalEdgeStyle;rounded=0;orthogonalLoop=1;jettySize=auto;html=1;entryX=-0.001;entryY=0.123;entryDx=0;entryDy=0;entryPerimeter=0;" parent="1" source="i57yBYP4YpkLfWuTjgx--69" target="i57yBYP4YpkLfWuTjgx--25" edge="1">
          <mxGeometry relative="1" as="geometry" />
        </mxCell>
        <mxCell id="i57yBYP4YpkLfWuTjgx--99" style="edgeStyle=orthogonalEdgeStyle;rounded=0;orthogonalLoop=1;jettySize=auto;html=1;entryX=0.005;entryY=0.155;entryDx=0;entryDy=0;entryPerimeter=0;" parent="1" source="i57yBYP4YpkLfWuTjgx--72" target="i57yBYP4YpkLfWuTjgx--30" edge="1">
          <mxGeometry relative="1" as="geometry" />
        </mxCell>
        <mxCell id="i57yBYP4YpkLfWuTjgx--100" style="edgeStyle=orthogonalEdgeStyle;rounded=0;orthogonalLoop=1;jettySize=auto;html=1;entryX=-0.005;entryY=0.116;entryDx=0;entryDy=0;entryPerimeter=0;" parent="1" source="i57yBYP4YpkLfWuTjgx--80" target="i57yBYP4YpkLfWuTjgx--37" edge="1">
          <mxGeometry relative="1" as="geometry" />
        </mxCell>
        <mxCell id="i57yBYP4YpkLfWuTjgx--101" style="edgeStyle=orthogonalEdgeStyle;rounded=0;orthogonalLoop=1;jettySize=auto;html=1;entryX=0.75;entryY=0;entryDx=0;entryDy=0;" parent="1" source="i57yBYP4YpkLfWuTjgx--102" target="i57yBYP4YpkLfWuTjgx--13" edge="1">
          <mxGeometry relative="1" as="geometry">
            <Array as="points">
              <mxPoint x="2345" y="2330" />
              <mxPoint x="1892" y="2330" />
            </Array>
          </mxGeometry>
        </mxCell>
        <mxCell id="i57yBYP4YpkLfWuTjgx--102" value="Data Source" style="shape=cylinder3;whiteSpace=wrap;html=1;boundedLbl=1;backgroundOutline=1;size=15;" parent="1" vertex="1">
          <mxGeometry x="2300" y="2080" width="90" height="150" as="geometry" />
        </mxCell>
        <mxCell id="i57yBYP4YpkLfWuTjgx--103" value="&lt;h1&gt;*/analysis/ (Suggestion)&lt;/h1&gt;&lt;div&gt;&lt;br&gt;&lt;/div&gt;&lt;div&gt;Move the view_data into a higher-level folder &quot;analysis/&quot; for better organization&lt;/div&gt;" style="text;html=1;strokeColor=none;fillColor=none;spacing=5;spacingTop=-20;whiteSpace=wrap;overflow=hidden;rounded=0;" parent="1" vertex="1">
          <mxGeometry x="1620" y="3120" width="200" height="180" as="geometry" />
        </mxCell>
        <mxCell id="i57yBYP4YpkLfWuTjgx--104" value="&lt;h1 style=&quot;font-size: 28px;&quot;&gt;Data_Consolidation_NiChart&lt;/h1&gt;" style="text;html=1;strokeColor=#005700;fillColor=#008a00;spacing=5;spacingTop=-20;whiteSpace=wrap;overflow=hidden;rounded=0;fontColor=#ffffff;fontSize=28;align=center;verticalAlign=top;" parent="1" vertex="1">
          <mxGeometry x="1490" y="1980" width="530" height="50" as="geometry" />
        </mxCell>
        <mxCell id="i57yBYP4YpkLfWuTjgx--105" value="&lt;h1&gt;/Studies&lt;/h1&gt;&lt;div&gt;/STUDY/&lt;/div&gt;" style="text;html=1;strokeColor=none;fillColor=none;spacing=5;spacingTop=-20;whiteSpace=wrap;overflow=hidden;rounded=0;align=center;" parent="1" vertex="1">
          <mxGeometry x="180" y="2250" width="130" height="80" as="geometry" />
        </mxCell>
        <mxCell id="i57yBYP4YpkLfWuTjgx--106" value="&lt;h1 style=&quot;font-size: 28px;&quot;&gt;Clinical_Data_Study&lt;br&gt;&lt;/h1&gt;" style="text;html=1;strokeColor=#006EAF;fillColor=#1ba1e2;spacing=5;spacingTop=-20;whiteSpace=wrap;overflow=hidden;rounded=0;fontColor=#ffffff;fontSize=28;align=center;verticalAlign=top;" parent="1" vertex="1">
          <mxGeometry x="80" y="1830" width="460" height="50" as="geometry" />
        </mxCell>
        <mxCell id="i57yBYP4YpkLfWuTjgx--107" value="&lt;h1&gt;/Reference&lt;/h1&gt;" style="text;html=1;strokeColor=none;fillColor=none;spacing=5;spacingTop=-20;whiteSpace=wrap;overflow=hidden;rounded=0;align=center;" parent="1" vertex="1">
          <mxGeometry x="180" y="1920" width="130" height="40" as="geometry" />
        </mxCell>
        <mxCell id="i57yBYP4YpkLfWuTjgx--108" style="edgeStyle=orthogonalEdgeStyle;rounded=0;orthogonalLoop=1;jettySize=auto;html=1;entryX=0.5;entryY=0;entryDx=0;entryDy=0;" parent="1" source="i57yBYP4YpkLfWuTjgx--109" target="i57yBYP4YpkLfWuTjgx--112" edge="1">
          <mxGeometry relative="1" as="geometry" />
        </mxCell>
        <mxCell id="i57yBYP4YpkLfWuTjgx--109" value="input/" style="swimlane;fontStyle=0;childLayout=stackLayout;horizontal=1;startSize=30;horizontalStack=0;resizeParent=1;resizeParentMax=0;resizeLast=0;collapsible=1;marginBottom=0;whiteSpace=wrap;html=1;" parent="1" vertex="1">
          <mxGeometry x="400" y="2270" width="200" height="90" as="geometry" />
        </mxCell>
        <mxCell id="i57yBYP4YpkLfWuTjgx--110" value="STUDY_ISTAGING_Clin.csv" style="text;strokeColor=none;fillColor=none;align=left;verticalAlign=middle;spacingLeft=4;spacingRight=4;overflow=hidden;points=[[0,0.5],[1,0.5]];portConstraint=eastwest;rotatable=0;whiteSpace=wrap;html=1;" parent="i57yBYP4YpkLfWuTjgx--109" vertex="1">
          <mxGeometry y="30" width="200" height="30" as="geometry" />
        </mxCell>
        <mxCell id="i57yBYP4YpkLfWuTjgx--111" value="STUDY_sMRI.csv" style="text;strokeColor=none;fillColor=none;align=left;verticalAlign=middle;spacingLeft=4;spacingRight=4;overflow=hidden;points=[[0,0.5],[1,0.5]];portConstraint=eastwest;rotatable=0;whiteSpace=wrap;html=1;" parent="i57yBYP4YpkLfWuTjgx--109" vertex="1">
          <mxGeometry y="60" width="200" height="30" as="geometry" />
        </mxCell>
        <mxCell id="i57yBYP4YpkLfWuTjgx--112" value="script/" style="swimlane;fontStyle=0;childLayout=stackLayout;horizontal=1;startSize=30;horizontalStack=0;resizeParent=1;resizeParentMax=0;resizeLast=0;collapsible=1;marginBottom=0;whiteSpace=wrap;html=1;" parent="1" vertex="1">
          <mxGeometry x="380" y="2390" width="190" height="240" as="geometry">
            <mxRectangle y="300" width="190" height="30" as="alternateBounds" />
          </mxGeometry>
        </mxCell>
        <mxCell id="i57yBYP4YpkLfWuTjgx--113" value="STUDY_PI_Race_Ethnicity.sh" style="text;strokeColor=none;fillColor=none;align=left;verticalAlign=middle;spacingLeft=4;spacingRight=4;overflow=hidden;points=[[0,0.5],[1,0.5]];portConstraint=eastwest;rotatable=0;whiteSpace=wrap;html=1;" parent="i57yBYP4YpkLfWuTjgx--112" vertex="1">
          <mxGeometry y="30" width="190" height="30" as="geometry" />
        </mxCell>
        <mxCell id="i57yBYP4YpkLfWuTjgx--114" value="STUDY_DX_Diabetes.sh" style="text;strokeColor=none;fillColor=none;align=left;verticalAlign=middle;spacingLeft=4;spacingRight=4;overflow=hidden;points=[[0,0.5],[1,0.5]];portConstraint=eastwest;rotatable=0;whiteSpace=wrap;html=1;" parent="i57yBYP4YpkLfWuTjgx--112" vertex="1">
          <mxGeometry y="60" width="190" height="30" as="geometry" />
        </mxCell>
        <mxCell id="i57yBYP4YpkLfWuTjgx--115" value="STUDY_DX_AD.sh" style="text;strokeColor=none;fillColor=none;align=left;verticalAlign=middle;spacingLeft=4;spacingRight=4;overflow=hidden;points=[[0,0.5],[1,0.5]];portConstraint=eastwest;rotatable=0;whiteSpace=wrap;html=1;" parent="i57yBYP4YpkLfWuTjgx--112" vertex="1">
          <mxGeometry y="90" width="190" height="30" as="geometry" />
        </mxCell>
        <mxCell id="i57yBYP4YpkLfWuTjgx--116" value="STUDY_DX_Hypertension.sh" style="text;strokeColor=none;fillColor=none;align=left;verticalAlign=middle;spacingLeft=4;spacingRight=4;overflow=hidden;points=[[0,0.5],[1,0.5]];portConstraint=eastwest;rotatable=0;whiteSpace=wrap;html=1;" parent="i57yBYP4YpkLfWuTjgx--112" vertex="1">
          <mxGeometry y="120" width="190" height="30" as="geometry" />
        </mxCell>
        <mxCell id="i57yBYP4YpkLfWuTjgx--117" value="STUDY_CO_MMSE.sh" style="text;strokeColor=none;fillColor=none;align=left;verticalAlign=middle;spacingLeft=4;spacingRight=4;overflow=hidden;points=[[0,0.5],[1,0.5]];portConstraint=eastwest;rotatable=0;whiteSpace=wrap;html=1;" parent="i57yBYP4YpkLfWuTjgx--112" vertex="1">
          <mxGeometry y="150" width="190" height="30" as="geometry" />
        </mxCell>
        <mxCell id="i57yBYP4YpkLfWuTjgx--118" value="STUDY_CO_DSST.sh" style="text;strokeColor=none;fillColor=none;align=left;verticalAlign=middle;spacingLeft=4;spacingRight=4;overflow=hidden;points=[[0,0.5],[1,0.5]];portConstraint=eastwest;rotatable=0;whiteSpace=wrap;html=1;" parent="i57yBYP4YpkLfWuTjgx--112" vertex="1">
          <mxGeometry y="180" width="190" height="30" as="geometry" />
        </mxCell>
        <mxCell id="i57yBYP4YpkLfWuTjgx--119" value="STUDY_CO_MOCA.sh" style="text;strokeColor=none;fillColor=none;align=left;verticalAlign=middle;spacingLeft=4;spacingRight=4;overflow=hidden;points=[[0,0.5],[1,0.5]];portConstraint=eastwest;rotatable=0;whiteSpace=wrap;html=1;" parent="i57yBYP4YpkLfWuTjgx--112" vertex="1">
          <mxGeometry y="210" width="190" height="30" as="geometry" />
        </mxCell>
        <mxCell id="i57yBYP4YpkLfWuTjgx--120" style="edgeStyle=orthogonalEdgeStyle;rounded=0;orthogonalLoop=1;jettySize=auto;html=1;" parent="1" source="i57yBYP4YpkLfWuTjgx--121" target="i57yBYP4YpkLfWuTjgx--112" edge="1">
          <mxGeometry relative="1" as="geometry">
            <Array as="points">
              <mxPoint x="355" y="2370" />
              <mxPoint x="475" y="2370" />
            </Array>
          </mxGeometry>
        </mxCell>
        <mxCell id="i57yBYP4YpkLfWuTjgx--121" value="" style="swimlane;fontStyle=0;childLayout=stackLayout;horizontal=1;startSize=30;horizontalStack=0;resizeParent=1;resizeParentMax=0;resizeLast=0;collapsible=1;marginBottom=0;whiteSpace=wrap;html=1;" parent="1" vertex="1">
          <mxGeometry x="180" y="2000" width="350" height="120" as="geometry" />
        </mxCell>
        <mxCell id="i57yBYP4YpkLfWuTjgx--122" value="Mapping_PI_Race_Ethnicity.json" style="text;strokeColor=none;fillColor=none;align=left;verticalAlign=middle;spacingLeft=4;spacingRight=4;overflow=hidden;points=[[0,0.5],[1,0.5]];portConstraint=eastwest;rotatable=0;whiteSpace=wrap;html=1;" parent="i57yBYP4YpkLfWuTjgx--121" vertex="1">
          <mxGeometry y="30" width="350" height="30" as="geometry" />
        </mxCell>
        <mxCell id="i57yBYP4YpkLfWuTjgx--123" value="Item 2" style="text;strokeColor=none;fillColor=none;align=left;verticalAlign=middle;spacingLeft=4;spacingRight=4;overflow=hidden;points=[[0,0.5],[1,0.5]];portConstraint=eastwest;rotatable=0;whiteSpace=wrap;html=1;" parent="i57yBYP4YpkLfWuTjgx--121" vertex="1">
          <mxGeometry y="60" width="350" height="30" as="geometry" />
        </mxCell>
        <mxCell id="i57yBYP4YpkLfWuTjgx--124" value="Item 3" style="text;strokeColor=none;fillColor=none;align=left;verticalAlign=middle;spacingLeft=4;spacingRight=4;overflow=hidden;points=[[0,0.5],[1,0.5]];portConstraint=eastwest;rotatable=0;whiteSpace=wrap;html=1;" parent="i57yBYP4YpkLfWuTjgx--121" vertex="1">
          <mxGeometry y="90" width="350" height="30" as="geometry" />
        </mxCell>
        <mxCell id="i57yBYP4YpkLfWuTjgx--125" value="" style="swimlane;fontStyle=0;childLayout=stackLayout;horizontal=1;startSize=30;horizontalStack=0;resizeParent=1;resizeParentMax=0;resizeLast=0;collapsible=1;marginBottom=0;whiteSpace=wrap;html=1;" parent="1" vertex="1">
          <mxGeometry x="320" y="2820" width="440" height="150" as="geometry" />
        </mxCell>
        <mxCell id="i57yBYP4YpkLfWuTjgx--126" value="util_PI_Race_Ethnicity.py" style="text;strokeColor=none;fillColor=none;align=left;verticalAlign=middle;spacingLeft=4;spacingRight=4;overflow=hidden;points=[[0,0.5],[1,0.5]];portConstraint=eastwest;rotatable=0;whiteSpace=wrap;html=1;" parent="i57yBYP4YpkLfWuTjgx--125" vertex="1">
          <mxGeometry y="30" width="440" height="30" as="geometry" />
        </mxCell>
        <mxCell id="i57yBYP4YpkLfWuTjgx--127" value="util_DX.py" style="text;strokeColor=none;fillColor=none;align=left;verticalAlign=middle;spacingLeft=4;spacingRight=4;overflow=hidden;points=[[0,0.5],[1,0.5]];portConstraint=eastwest;rotatable=0;whiteSpace=wrap;html=1;" parent="i57yBYP4YpkLfWuTjgx--125" vertex="1">
          <mxGeometry y="60" width="440" height="30" as="geometry" />
        </mxCell>
        <mxCell id="i57yBYP4YpkLfWuTjgx--128" value="util_CO.py" style="text;strokeColor=none;fillColor=none;align=left;verticalAlign=middle;spacingLeft=4;spacingRight=4;overflow=hidden;points=[[0,0.5],[1,0.5]];portConstraint=eastwest;rotatable=0;whiteSpace=wrap;html=1;" parent="i57yBYP4YpkLfWuTjgx--125" vertex="1">
          <mxGeometry y="90" width="440" height="30" as="geometry" />
        </mxCell>
        <mxCell id="i57yBYP4YpkLfWuTjgx--129" value="util_run_all_sge.sh" style="text;strokeColor=none;fillColor=none;align=left;verticalAlign=middle;spacingLeft=4;spacingRight=4;overflow=hidden;points=[[0,0.5],[1,0.5]];portConstraint=eastwest;rotatable=0;whiteSpace=wrap;html=1;" parent="i57yBYP4YpkLfWuTjgx--125" vertex="1">
          <mxGeometry y="120" width="440" height="30" as="geometry" />
        </mxCell>
        <mxCell id="i57yBYP4YpkLfWuTjgx--130" value="&lt;h1&gt;/Scripts&lt;/h1&gt;" style="text;html=1;strokeColor=none;fillColor=none;spacing=5;spacingTop=-20;whiteSpace=wrap;overflow=hidden;rounded=0;align=center;" parent="1" vertex="1">
          <mxGeometry x="160" y="2750" width="130" height="40" as="geometry" />
        </mxCell>
        <mxCell id="i57yBYP4YpkLfWuTjgx--131" value="&lt;h1&gt;/Log&lt;/h1&gt;" style="text;html=1;strokeColor=none;fillColor=none;spacing=5;spacingTop=-20;whiteSpace=wrap;overflow=hidden;rounded=0;align=center;" parent="1" vertex="1">
          <mxGeometry x="120" y="3110" width="170" height="40" as="geometry" />
        </mxCell>
        <mxCell id="i57yBYP4YpkLfWuTjgx--132" value="&lt;h1&gt;.README&lt;/h1&gt;" style="text;html=1;strokeColor=none;fillColor=none;spacing=5;spacingTop=-20;whiteSpace=wrap;overflow=hidden;rounded=0;align=center;" parent="1" vertex="1">
          <mxGeometry x="150" y="3380" width="170" height="40" as="geometry" />
        </mxCell>
        <mxCell id="i57yBYP4YpkLfWuTjgx--133" value="/SGE" style="swimlane;fontStyle=0;childLayout=stackLayout;horizontal=1;startSize=30;horizontalStack=0;resizeParent=1;resizeParentMax=0;resizeLast=0;collapsible=1;marginBottom=0;whiteSpace=wrap;html=1;" parent="1" vertex="1">
          <mxGeometry x="320" y="3160" width="290" height="120" as="geometry" />
        </mxCell>
        <mxCell id="i57yBYP4YpkLfWuTjgx--134" value="sge_ADNI_DX_AD-$JOBID.log" style="text;strokeColor=none;fillColor=none;align=left;verticalAlign=middle;spacingLeft=4;spacingRight=4;overflow=hidden;points=[[0,0.5],[1,0.5]];portConstraint=eastwest;rotatable=0;whiteSpace=wrap;html=1;" parent="i57yBYP4YpkLfWuTjgx--133" vertex="1">
          <mxGeometry y="30" width="290" height="30" as="geometry" />
        </mxCell>
        <mxCell id="i57yBYP4YpkLfWuTjgx--135" value="..." style="text;strokeColor=none;fillColor=none;align=left;verticalAlign=middle;spacingLeft=4;spacingRight=4;overflow=hidden;points=[[0,0.5],[1,0.5]];portConstraint=eastwest;rotatable=0;whiteSpace=wrap;html=1;" parent="i57yBYP4YpkLfWuTjgx--133" vertex="1">
          <mxGeometry y="60" width="290" height="30" as="geometry" />
        </mxCell>
        <mxCell id="i57yBYP4YpkLfWuTjgx--136" value="..." style="text;strokeColor=none;fillColor=none;align=left;verticalAlign=middle;spacingLeft=4;spacingRight=4;overflow=hidden;points=[[0,0.5],[1,0.5]];portConstraint=eastwest;rotatable=0;whiteSpace=wrap;html=1;" parent="i57yBYP4YpkLfWuTjgx--133" vertex="1">
          <mxGeometry y="90" width="290" height="30" as="geometry" />
        </mxCell>
        <mxCell id="i57yBYP4YpkLfWuTjgx--137" style="edgeStyle=orthogonalEdgeStyle;rounded=0;orthogonalLoop=1;jettySize=auto;html=1;entryX=0;entryY=0.5;entryDx=0;entryDy=0;" parent="1" source="i57yBYP4YpkLfWuTjgx--138" target="i57yBYP4YpkLfWuTjgx--60" edge="1">
          <mxGeometry relative="1" as="geometry" />
        </mxCell>
        <mxCell id="i57yBYP4YpkLfWuTjgx--138" value="output" style="swimlane;fontStyle=0;childLayout=stackLayout;horizontal=1;startSize=30;horizontalStack=0;resizeParent=1;resizeParentMax=0;resizeLast=0;collapsible=1;marginBottom=0;whiteSpace=wrap;html=1;" parent="1" vertex="1">
          <mxGeometry x="780" y="2320" width="190" height="240" as="geometry">
            <mxRectangle x="780" y="2320" width="190" height="30" as="alternateBounds" />
          </mxGeometry>
        </mxCell>
        <mxCell id="i57yBYP4YpkLfWuTjgx--139" value="STUDY_PI_Race_Ethnicity.csv" style="text;strokeColor=none;fillColor=none;align=left;verticalAlign=middle;spacingLeft=4;spacingRight=4;overflow=hidden;points=[[0,0.5],[1,0.5]];portConstraint=eastwest;rotatable=0;whiteSpace=wrap;html=1;" parent="i57yBYP4YpkLfWuTjgx--138" vertex="1">
          <mxGeometry y="30" width="190" height="30" as="geometry" />
        </mxCell>
        <mxCell id="i57yBYP4YpkLfWuTjgx--140" value="STUDY_DX_Diabetes.csv" style="text;strokeColor=none;fillColor=none;align=left;verticalAlign=middle;spacingLeft=4;spacingRight=4;overflow=hidden;points=[[0,0.5],[1,0.5]];portConstraint=eastwest;rotatable=0;whiteSpace=wrap;html=1;" parent="i57yBYP4YpkLfWuTjgx--138" vertex="1">
          <mxGeometry y="60" width="190" height="30" as="geometry" />
        </mxCell>
        <mxCell id="i57yBYP4YpkLfWuTjgx--141" value="STUDY_DX_AD.csv" style="text;strokeColor=none;fillColor=none;align=left;verticalAlign=middle;spacingLeft=4;spacingRight=4;overflow=hidden;points=[[0,0.5],[1,0.5]];portConstraint=eastwest;rotatable=0;whiteSpace=wrap;html=1;" parent="i57yBYP4YpkLfWuTjgx--138" vertex="1">
          <mxGeometry y="90" width="190" height="30" as="geometry" />
        </mxCell>
        <mxCell id="i57yBYP4YpkLfWuTjgx--142" value="STUDY_DX_Hypertension.csv" style="text;strokeColor=none;fillColor=none;align=left;verticalAlign=middle;spacingLeft=4;spacingRight=4;overflow=hidden;points=[[0,0.5],[1,0.5]];portConstraint=eastwest;rotatable=0;whiteSpace=wrap;html=1;" parent="i57yBYP4YpkLfWuTjgx--138" vertex="1">
          <mxGeometry y="120" width="190" height="30" as="geometry" />
        </mxCell>
        <mxCell id="i57yBYP4YpkLfWuTjgx--143" value="STUDY_CO_MMSE.csv" style="text;strokeColor=none;fillColor=none;align=left;verticalAlign=middle;spacingLeft=4;spacingRight=4;overflow=hidden;points=[[0,0.5],[1,0.5]];portConstraint=eastwest;rotatable=0;whiteSpace=wrap;html=1;" parent="i57yBYP4YpkLfWuTjgx--138" vertex="1">
          <mxGeometry y="150" width="190" height="30" as="geometry" />
        </mxCell>
        <mxCell id="i57yBYP4YpkLfWuTjgx--144" value="STUDY_CO_DSST.csv" style="text;strokeColor=none;fillColor=none;align=left;verticalAlign=middle;spacingLeft=4;spacingRight=4;overflow=hidden;points=[[0,0.5],[1,0.5]];portConstraint=eastwest;rotatable=0;whiteSpace=wrap;html=1;" parent="i57yBYP4YpkLfWuTjgx--138" vertex="1">
          <mxGeometry y="180" width="190" height="30" as="geometry" />
        </mxCell>
        <mxCell id="i57yBYP4YpkLfWuTjgx--145" value="STUDY_CO_MOCA.csv" style="text;strokeColor=none;fillColor=none;align=left;verticalAlign=middle;spacingLeft=4;spacingRight=4;overflow=hidden;points=[[0,0.5],[1,0.5]];portConstraint=eastwest;rotatable=0;whiteSpace=wrap;html=1;" parent="i57yBYP4YpkLfWuTjgx--138" vertex="1">
          <mxGeometry y="210" width="190" height="30" as="geometry" />
        </mxCell>
        <mxCell id="i57yBYP4YpkLfWuTjgx--146" style="edgeStyle=orthogonalEdgeStyle;rounded=0;orthogonalLoop=1;jettySize=auto;html=1;entryX=0;entryY=0.5;entryDx=0;entryDy=0;" parent="1" source="i57yBYP4YpkLfWuTjgx--113" target="i57yBYP4YpkLfWuTjgx--139" edge="1">
          <mxGeometry relative="1" as="geometry" />
        </mxCell>
        <mxCell id="i57yBYP4YpkLfWuTjgx--147" style="edgeStyle=orthogonalEdgeStyle;rounded=0;orthogonalLoop=1;jettySize=auto;html=1;entryX=0;entryY=0.5;entryDx=0;entryDy=0;" parent="1" source="i57yBYP4YpkLfWuTjgx--114" target="i57yBYP4YpkLfWuTjgx--140" edge="1">
          <mxGeometry relative="1" as="geometry" />
        </mxCell>
        <mxCell id="i57yBYP4YpkLfWuTjgx--148" style="edgeStyle=orthogonalEdgeStyle;rounded=0;orthogonalLoop=1;jettySize=auto;html=1;entryX=0;entryY=0.5;entryDx=0;entryDy=0;" parent="1" source="i57yBYP4YpkLfWuTjgx--115" target="i57yBYP4YpkLfWuTjgx--141" edge="1">
          <mxGeometry relative="1" as="geometry" />
        </mxCell>
        <mxCell id="i57yBYP4YpkLfWuTjgx--149" style="edgeStyle=orthogonalEdgeStyle;rounded=0;orthogonalLoop=1;jettySize=auto;html=1;entryX=0;entryY=0.5;entryDx=0;entryDy=0;" parent="1" source="i57yBYP4YpkLfWuTjgx--116" target="i57yBYP4YpkLfWuTjgx--142" edge="1">
          <mxGeometry relative="1" as="geometry" />
        </mxCell>
        <mxCell id="i57yBYP4YpkLfWuTjgx--150" style="edgeStyle=orthogonalEdgeStyle;rounded=0;orthogonalLoop=1;jettySize=auto;html=1;entryX=0;entryY=0.5;entryDx=0;entryDy=0;" parent="1" source="i57yBYP4YpkLfWuTjgx--117" target="i57yBYP4YpkLfWuTjgx--143" edge="1">
          <mxGeometry relative="1" as="geometry" />
        </mxCell>
        <mxCell id="i57yBYP4YpkLfWuTjgx--151" style="edgeStyle=orthogonalEdgeStyle;rounded=0;orthogonalLoop=1;jettySize=auto;html=1;entryX=0;entryY=0.5;entryDx=0;entryDy=0;" parent="1" source="i57yBYP4YpkLfWuTjgx--118" target="i57yBYP4YpkLfWuTjgx--144" edge="1">
          <mxGeometry relative="1" as="geometry" />
        </mxCell>
        <mxCell id="i57yBYP4YpkLfWuTjgx--152" style="edgeStyle=orthogonalEdgeStyle;rounded=0;orthogonalLoop=1;jettySize=auto;html=1;entryX=0;entryY=0.5;entryDx=0;entryDy=0;" parent="1" source="i57yBYP4YpkLfWuTjgx--119" target="i57yBYP4YpkLfWuTjgx--145" edge="1">
          <mxGeometry relative="1" as="geometry" />
        </mxCell>
        <mxCell id="i57yBYP4YpkLfWuTjgx--153" style="edgeStyle=orthogonalEdgeStyle;rounded=0;orthogonalLoop=1;jettySize=auto;html=1;entryX=-0.005;entryY=0.064;entryDx=0;entryDy=0;entryPerimeter=0;" parent="1" source="i57yBYP4YpkLfWuTjgx--125" target="i57yBYP4YpkLfWuTjgx--112" edge="1">
          <mxGeometry relative="1" as="geometry">
            <Array as="points">
              <mxPoint x="540" y="2725" />
              <mxPoint x="330" y="2725" />
              <mxPoint x="330" y="2405" />
            </Array>
          </mxGeometry>
        </mxCell>
        <mxCell id="i57yBYP4YpkLfWuTjgx--154" value="$JOB_NAME-$JOB_ID.log" style="text;whiteSpace=wrap;" parent="1" vertex="1">
          <mxGeometry x="300" y="3130" width="180" height="40" as="geometry" />
        </mxCell>
        <mxCell id="i57yBYP4YpkLfWuTjgx--155" style="edgeStyle=orthogonalEdgeStyle;rounded=0;orthogonalLoop=1;jettySize=auto;html=1;entryX=0;entryY=0.5;entryDx=0;entryDy=0;" parent="1" source="i57yBYP4YpkLfWuTjgx--156" target="i57yBYP4YpkLfWuTjgx--110" edge="1">
          <mxGeometry relative="1" as="geometry">
            <Array as="points">
              <mxPoint x="370" y="2170" />
              <mxPoint x="370" y="2315" />
            </Array>
          </mxGeometry>
        </mxCell>
        <mxCell id="i57yBYP4YpkLfWuTjgx--156" value="ISTAGING Dev" style="shape=umlActor;verticalLabelPosition=bottom;verticalAlign=top;html=1;outlineConnect=0;" parent="1" vertex="1">
          <mxGeometry x="290" y="2130" width="30" height="60" as="geometry" />
        </mxCell>
        <mxCell id="i57yBYP4YpkLfWuTjgx--157" style="edgeStyle=orthogonalEdgeStyle;rounded=0;orthogonalLoop=1;jettySize=auto;html=1;entryX=1.003;entryY=0.2;entryDx=0;entryDy=0;entryPerimeter=0;" parent="1" source="i57yBYP4YpkLfWuTjgx--112" target="i57yBYP4YpkLfWuTjgx--135" edge="1">
          <mxGeometry relative="1" as="geometry">
            <Array as="points">
              <mxPoint x="475" y="2690" />
              <mxPoint x="850" y="2690" />
              <mxPoint x="850" y="3226" />
            </Array>
          </mxGeometry>
        </mxCell>
        <mxCell id="i57yBYP4YpkLfWuTjgx--158" style="edgeStyle=orthogonalEdgeStyle;rounded=0;orthogonalLoop=1;jettySize=auto;html=1;entryX=1;entryY=0.142;entryDx=0;entryDy=0;entryPerimeter=0;" parent="1" source="i57yBYP4YpkLfWuTjgx--125" target="i57yBYP4YpkLfWuTjgx--133" edge="1">
          <mxGeometry relative="1" as="geometry">
            <Array as="points">
              <mxPoint x="810" y="2895" />
              <mxPoint x="810" y="3177" />
            </Array>
          </mxGeometry>
        </mxCell>
        <mxCell id="i57yBYP4YpkLfWuTjgx--159" value="&lt;h1 style=&quot;font-size: 28px;&quot;&gt;Clinical_Data_MRI&lt;br&gt;&lt;/h1&gt;" style="text;html=1;strokeColor=#3700CC;fillColor=#6a00ff;spacing=5;spacingTop=-20;whiteSpace=wrap;overflow=hidden;rounded=0;fontSize=28;align=center;verticalAlign=top;fontColor=#ffffff;" parent="1" vertex="1">
          <mxGeometry x="1490" y="1830" width="460" height="50" as="geometry" />
        </mxCell>
        <mxCell id="i57yBYP4YpkLfWuTjgx--160" value="&lt;h1 style=&quot;font-size: 28px;&quot;&gt;QC (TBA)&lt;br&gt;&lt;/h1&gt;" style="text;html=1;strokeColor=#C73500;fillColor=#fa6800;spacing=5;spacingTop=-20;whiteSpace=wrap;overflow=hidden;rounded=0;fontSize=28;align=center;verticalAlign=top;fontColor=#000000;" parent="1" vertex="1">
          <mxGeometry x="2010" y="1830" width="460" height="50" as="geometry" />
        </mxCell>
        <mxCell id="i57yBYP4YpkLfWuTjgx--161" value="&lt;h1 style=&quot;font-size: 28px;&quot;&gt;Visualization (TBA)&lt;br&gt;&lt;/h1&gt;" style="text;html=1;strokeColor=#314354;fillColor=#647687;spacing=5;spacingTop=-20;whiteSpace=wrap;overflow=hidden;rounded=0;fontColor=#ffffff;fontSize=28;align=center;verticalAlign=top;" parent="1" vertex="1">
          <mxGeometry x="2520" y="1830" width="460" height="50" as="geometry" />
        </mxCell>
        <mxCell id="i57yBYP4YpkLfWuTjgx--162" style="edgeStyle=orthogonalEdgeStyle;rounded=0;orthogonalLoop=1;jettySize=auto;html=1;entryX=1;entryY=0.5;entryDx=0;entryDy=0;" parent="1" source="i57yBYP4YpkLfWuTjgx--56" target="i57yBYP4YpkLfWuTjgx--111" edge="1">
          <mxGeometry relative="1" as="geometry">
            <Array as="points">
              <mxPoint x="1420" y="2855" />
              <mxPoint x="1420" y="2270" />
              <mxPoint x="640" y="2270" />
              <mxPoint x="640" y="2345" />
            </Array>
          </mxGeometry>
        </mxCell>
      </root>
    </mxGraphModel>
  </diagram>
</mxfile>
